<svg xmlns="http://www.w3.org/2000/svg" viewBox="0 0 123.64 121.86"><defs><style>.cls-1{fill:#fff;}</style></defs><g id="Layer_2" data-name="Layer 2"><g id="デザイン"><path class="cls-1" d="M79.82,17.66h-60A1.76,1.76,0,0,1,18,15.9V8.83A8.84,8.84,0,0,1,26.83,0H72.75a8.85,8.85,0,0,1,8.84,8.83V15.9A1.77,1.77,0,0,1,79.82,17.66ZM21.53,14.13H78.05V8.83a5.3,5.3,0,0,0-5.3-5.3H26.83a5.31,5.31,0,0,0-5.3,5.3Z"/><path class="cls-1" d="M79.82,91.85h-53a1.77,1.77,0,0,1,0-3.54h53a1.77,1.77,0,1,1,0,3.54Z"/><path class="cls-1" d="M53.32,98.91H46.26a1.77,1.77,0,1,1,0-3.53h7.06a1.77,1.77,0,1,1,0,3.53Z"/><path class="cls-1" d="M79.82,28.25a1.77,1.77,0,0,1-1.77-1.77V15.9a1.77,1.77,0,0,1,3.54,0V26.48A1.77,1.77,0,0,1,79.82,28.25Z"/><path class="cls-1" d="M72.75,106H26.83a8.82,8.82,0,0,1-3.44-.7A1.77,1.77,0,1,1,24.77,102a5.37,5.37,0,0,0,2.06.41H72.75a5.29,5.29,0,0,0,5.3-5.29V74.28a1.77,1.77,0,0,1,3.54,0V97.15A8.85,8.85,0,0,1,72.75,106Z"/><path class="cls-1" d="M19.77,72.42A1.77,1.77,0,0,1,18,70.65V15.9a1.77,1.77,0,1,1,3.53,0V70.65A1.76,1.76,0,0,1,19.77,72.42Z"/><path class="cls-1" d="M22.2,121.86a1.8,1.8,0,0,1-1.19-.45,1.77,1.77,0,0,1-.12-2.5L26,113.27a1.78,1.78,0,0,1,1.71-.53,8.26,8.26,0,0,0,7-1.6l8.56-7.93a1.77,1.77,0,1,1,2.4,2.59l-8.66,8a11.79,11.79,0,0,1-9.1,2.56l-4.42,4.91A1.78,1.78,0,0,1,22.2,121.86Z"/><path class="cls-1" d="M1.76,105.93a1.74,1.74,0,0,1-1-.3,1.78,1.78,0,0,1-.46-2.46l1.19-1.75L1,90c-.23-4.47-.51-10,2.87-14L18.08,57.79A1.77,1.77,0,1,1,20.86,60L6.56,78.18c-2.51,3-2.28,7.55-2.07,11.6l.56,12.07a1.76,1.76,0,0,1-.3,1.07l-1.52,2.24A1.79,1.79,0,0,1,1.76,105.93Z"/><path class="cls-1" d="M24.13,104.75a1.77,1.77,0,0,1-1.5-2.7c4.91-7.91.43-18.39.39-18.5a1.76,1.76,0,0,1,.17-1.72l6-8.47c.94-1.35,1.22-3.61.75-6a1.79,1.79,0,0,0-1.29-1.41,1.69,1.69,0,0,0-1.73.51L17,77a1.77,1.77,0,1,1-2.58-2.42L24.3,64a5.23,5.23,0,0,1,5.28-1.52,5.31,5.31,0,0,1,3.8,4.13c.67,3.42.19,6.61-1.33,8.76l-5.42,7.7c1.11,3,4,12.78-1,20.82A1.76,1.76,0,0,1,24.13,104.75Z"/><path class="cls-1" d="M54.75,81.24a1.79,1.79,0,0,1-.67-.14A1.76,1.76,0,0,1,53,79.47V70.64H45.92a5.31,5.31,0,0,1-5.3-5.3V30a5.31,5.31,0,0,1,5.3-5.3h72.42a5.31,5.31,0,0,1,5.3,5.3V65.34a5.31,5.31,0,0,1-5.3,5.3H66.08L56,80.72A1.75,1.75,0,0,1,54.75,81.24Zm-8.83-53A1.76,1.76,0,0,0,44.16,30V65.34a1.77,1.77,0,0,0,1.76,1.77h8.83a1.76,1.76,0,0,1,1.77,1.76v6.34l7.58-7.59a1.76,1.76,0,0,1,1.25-.51h53a1.78,1.78,0,0,0,1.77-1.77V30a1.77,1.77,0,0,0-1.77-1.76Z"/><path class="cls-1" d="M69,55.35a17.87,17.87,0,0,1-2-.15,1.77,1.77,0,0,1,.4-3.51c2.53.29,2.87.26,3.57-1.5,0,0,2.42-6.1,6.13-6.2h0c2.67,0,4.34,2.39,5.64,4.73.51.84,1.69,2.13,2.48,2.2.09,0,.36,0,.83-.51,1.32-1.32,3.64-6,5.17-9.06.69-1.41,1.3-2.63,1.73-3.4a5.12,5.12,0,0,1,4.39-3.21c1.82,0,3.4,1.15,4.45,3.19l.09.19c3.83,7.7,6.82,10.66,7.89,10.77.1,0,5,.19,6.36.34a1.77,1.77,0,1,1-.39,3.51c-1-.11-4.83-.28-6.22-.33-3.17-.32-6.76-4.6-10.8-12.72-.53-1-1-1.41-1.35-1.41h0c-.32,0-.85.41-1.29,1.31s-1,2-1.7,3.33C92,47.6,90.14,51.3,88.62,52.81a4.32,4.32,0,0,1-3.71,1.63c-2.84-.24-4.86-3.33-5.23-3.95-1.44-2.59-2.21-3-2.54-3-.6.06-2.25,2.28-2.89,3.95C73,54.71,70.93,55.35,69,55.35Z"/><path class="cls-1" d="M56.52,45.91H53a5.31,5.31,0,0,1-5.3-5.3V37.08a5.31,5.31,0,0,1,5.3-5.3h3.53a5.31,5.31,0,0,1,5.3,5.3v3.53A5.31,5.31,0,0,1,56.52,45.91ZM53,35.31a1.77,1.77,0,0,0-1.77,1.77v3.53A1.77,1.77,0,0,0,53,42.38h3.53a1.77,1.77,0,0,0,1.77-1.77V37.08a1.78,1.78,0,0,0-1.77-1.77Z"/><path class="cls-1" d="M56.52,63.57H53a5.3,5.3,0,0,1-5.3-5.3V54.74a5.31,5.31,0,0,1,5.3-5.3h3.53a5.31,5.31,0,0,1,5.3,5.3v3.53A5.3,5.3,0,0,1,56.52,63.57ZM53,53a1.76,1.76,0,0,0-1.77,1.76v3.53A1.77,1.77,0,0,0,53,60h3.53a1.77,1.77,0,0,0,1.77-1.77V54.74A1.77,1.77,0,0,0,56.52,53Z"/></g></g></svg>