<?xml version="1.0" encoding="UTF-8"?>
<svg id="Layer_2" data-name="Layer 2" xmlns="http://www.w3.org/2000/svg" viewBox="0 0 515.71 126.2">
  <defs>
    <style>
      .cls-1 {
        fill: #fcee21;
      }
    </style>
  </defs>
  <g id="_デザイン" data-name="デザイン">
    <g>
      <circle class="cls-1" cx="63.1" cy="63.1" r="63.1"/>
      <g>
        <path d="m31.55,40.78c0,.87.06,1.74.06,2.59,0,.5-.23.54-.85.54h-1.12c-.62,0-.85-.04-.85-.52,0-.87.06-1.74.06-2.61v-2.09c0-.15-.04-.35-.23-.35-.14,0-.29.13-.39.21-.19.16-.43.33-.68.33-.52,0-1.47-1.43-1.47-1.8,0-.21.23-.33.41-.44,1.14-.77,2.15-1.57,3.05-2.63.31-.37,1.33-1.66,1.33-2.09,0-.13-.06-.15-.68-.15h-1.6c-.48,0-.97.06-1.33.06-.54,0-.6-.19-.6-.83v-.97c0-.58.06-.77.6-.77.35,0,.72.04,1.06.04s.56-.25.56-.58v-.7c0-.33-.06-.83-.06-1.16v-.17c0-.23.17-.31.37-.31.29,0,2.05.16,2.42.19.15.02.41.04.41.27,0,.13-.08.19-.23.31-.17.14-.19.46-.19,1.3v.27c0,.33.23.58.54.58.17,0,.33-.02.5-.02.66,0,.93.19,1.37.64.19.19.43.41.43.72,0,.75-1.62,3.33-2.15,3.96-.08.08-.14.15-.14.27,0,.17.15.31.31.31s.23-.12.33-.25c.27-.33.46-.62.7-.97.08-.12.14-.19.27-.19.19,0,.37.13.68.39.08.08.14.12.27.21.21.15.85.6.85.85,0,.19-.25.23-.41.23-.21,0-.25.04-.54.35-.1.1-.19.19-.31.33-.1.12-.21.23-.21.39,0,.19.15.31.25.39.15.12.37.25.37.46,0,.48-.93,1.62-1.43,1.62-.23,0-.39-.17-.68-.46-.23-.23-.43-.43-.66-.64-.08-.08-.12-.08-.19-.08-.19,0-.19.17-.19.31v2.67Zm8.53-13.38c.52,0,.99-.02,1.37-.02,1.1,0,1.76.12,1.84.87.04.35.06.91.06,1.58,0,2.15-.15,5.41-.21,6.21-.14,1.7-.27,3.58-.6,5.22-.12.54-.27,1.08-.58,1.55-.64.93-2.07,1.12-3.11,1.12-1.1,0-1.6-.08-1.6-1.93,0-.73.06-.99.43-.99.21,0,.56.06.77.1.14.02.33.04.48.04.83,0,.95-.44,1.1-1.51.37-2.44.54-5.86.54-8.74,0-.91-.02-.95-1.12-.95h-.31c-.54,0-.56.54-.58,1.49-.1,4.2-.87,8.85-3.85,12.03-.14.13-.29.31-.46.31-.64,0-1.93-.87-1.93-1.35,0-.17.17-.35.31-.5,1.55-1.78,2.59-3.92,2.94-6.26.21-1.45.39-3.33.39-4.78v-.33c0-.33-.23-.58-.56-.58-.17,0-.35.02-.5.02-.56,0-.64-.19-.64-.77v-1.16c0-.54.12-.7.64-.7.7,0,1.37.04,2.05.04h3.15Z"/>
        <path d="m53.74,36.57c0,.43.37.46.72.48.39.02.41.25.41.74v.79c0,.58-.08.72-.56.72-.37,0-.72-.04-1.06-.04-.15,0-.31.06-.31.23,0,.04.04.12.1.21.21.35.73,1.03,1.02,1.35.12.14.17.16.21.16.12,0,.17-.12.27-.35.64-1.62.83-4.16.83-6.65v-4.06c0-.75-.04-1.51-.04-2.28,0-.68.29-.91.95-.91.58,0,1.18.04,1.76.04h1.53c.58,0,1.14-.04,1.72-.04.68,0,.99.21.99.91,0,.77-.04,1.53-.04,2.28v9.8c0,.5.04,1,.04,1.51,0,2.11-.77,2.53-2.9,2.53-.91,0-1.22-.19-1.41-1-.08-.33-.17-1.06-.17-1.41,0-.27.1-.56.43-.56.23,0,.62.06.89.06.58,0,.58-.39.58-.75v-2.11c0-.31-.23-.54-.54-.54h-.89c-.39,0-.52.27-.56.6-.08.87-.27,1.89-.52,2.8-.19.7-.72,2.07-1.1,2.71-.1.15-.17.21-.35.21-.48,0-2.07-.64-2.07-1.18,0-.17.23-.46.23-.58,0-.02,0-.06-.06-.06s-.12.02-.19.08c-.27.21-.81.52-1.1.52-.43,0-.95-.85-1.16-1.18-.15-.25-.75-1.18-.75-1.41,0-.27.35-.52.64-.66.08-.04.14-.08.14-.13,0-.1-.14-.14-.21-.14h-2.13c-.14,0-.33,0-.33.12,0,.04.06.1.17.15.37.19.75.39.97.5.12.06.21.17.21.27,0,.14-.12.21-.25.23-.19.04-.25.06-.39.33-.46.91-1.02,1.89-1.62,2.73-.17.23-.27.41-.48.41-.44,0-1.95-.75-1.95-1.26,0-.1.06-.17.17-.33.35-.44,1.68-2.36,1.68-2.84,0-.21-.21-.31-.39-.31-.19,0-.44.04-.72.04-.52,0-.58-.16-.58-.72v-.85c0-.52.06-.7.56-.7.06,0,.14.02.21.02.29,0,.5-.27.5-.56v-5.39c0-.33-.27-.43-.56-.46-.35-.04-.41-.23-.41-.7v-.95c0-.6.08-.66.54-.7.25-.02.43-.21.43-.46s-.06-.81-.06-1.06c0-.23.14-.27.35-.27.23,0,1.58.1,1.89.14.44.06.77.06.77.33,0,.12-.08.17-.19.29-.15.14-.19.33-.19.52,0,.29.23.56.54.56h.72c.29,0,.54-.27.54-.56,0-.17-.06-.72-.06-1.01,0-.23.14-.27.35-.27.23,0,1.72.12,2.01.16.46.06.66.08.66.31,0,.12-.1.17-.19.29-.17.16-.19.41-.19.64,0,.31.21.39.48.41.35.02.41.25.41.7v.91c0,.62-.08.7-.54.74-.23.02-.37.17-.37.37v5.57Zm-4.04-5.97c-.17,0-.31.14-.31.31v.17c0,.15.14.31.31.31h1.18c.17,0,.31-.16.31-.31v-.17c0-.17-.12-.31-.31-.31h-1.18Zm0,2.84c-.17,0-.31.14-.31.31v.17c0,.16.14.31.31.31h1.18c.17,0,.31-.15.31-.31v-.17c0-.17-.12-.31-.31-.31h-1.18Zm1.12,3.63c.21,0,.37-.15.37-.37v-.06c0-.21-.15-.39-.37-.39h-1.06c-.21,0-.37.17-.37.39v.06c0,.21.15.37.37.37h1.06Zm7.62-3.44c-.46,0-.56.35-.56.7v.29c0,.29.23.52.52.52h.73c.31,0,.54-.23.54-.54v-.42c0-.31-.21-.54-.54-.54h-.7Zm.7-2.57c.31,0,.54-.25.54-.54v-.43c0-.29-.23-.54-.54-.54h-.7c-.29,0-.54.25-.54.54v.43c0,.31.21.54.54.54h.7Z"/>
        <path d="m72.97,27.42c.21,0,.46-.17.46-.41,0-.1-.04-.21-.04-.31,0-.25.17-.29.39-.29.27,0,1.7.1,2.03.14.37.04.62.04.62.21s-.17.29-.31.39c-.02.02-.04.04-.04.08,0,.1.1.19.23.19h1.01c.66,0,1.31-.04,1.97-.04.41,0,.91.04.91.66,0,.23-.04.6-.04,1.02v.21c0,.42.04.81.04,1.04,0,.56-.43.64-.89.64-.66,0-1.31-.02-1.99-.02h-1.06c-.12,0-.21.1-.21.21v.12c0,.12.1.21.21.21h3.13c.43,0,.87-.02,1.3-.02.29,0,.58.02.58.39,0,.6-.35,2.07-.68,2.57-.23.37-.44.5-.89.62-.75.19-.79.37-.79,1.12v3.21c0,.52.04.97.04,1.26,0,.54-.44.7-1.1.7h-.19c-.06,0-.17.02-.17.1,0,.17,1.3.27,1.51.29.66.06,1.3.12,1.95.14.29,0,.35.02.35.21,0,.37-.12.91-.23,1.26-.14.45-.33.66-.81.66-.97,0-2.09-.17-3.05-.35-.62-.1-2.03-.37-2.55-.58-.15-.06-.33-.13-.33-.33,0-.25.27-.72.43-.93.06-.08.12-.14.12-.25,0-.17-.17-.25-.33-.25h-3.25c-.17,0-.33.08-.33.25,0,.04.02.1.12.25.19.31.52.79.7,1.08.06.1.08.16.08.23s-.1.15-.17.15c-.1,0-.21-.02-.31-.06-.06-.02-.15-.06-.23-.06-.04,0-.14.02-.17.04-1.39.35-3.96.77-5.37.77-.41,0-.48-.16-.62-.54-.12-.35-.31-.95-.31-1.29,0-.31.19-.31.29-.31,1.1,0,2.42-.08,3.27-.21.54-.08.66-.14.66-.21,0-.04,0-.08-.17-.08s-.35.02-.52.02c-.5,0-1.2-.02-1.2-.7,0-.27.06-.72.06-1.26v-3.21c0-.29-.06-.6-.43-.6-.23,0-.46.08-.68.14-.15.04-.33.08-.48.08-.73,0-1.1-1.26-1.1-1.66,0-.33.14-.37.81-.46.25-.04,1.76-.29,1.76-.54,0-.1-.14-.12-.21-.12h-.54c-.56,0-1.18-.02-1.18-.37,0-.14.1-.39.14-.5.21-.7.41-1.45.54-2.11.08-.41.21-.5.62-.5h2.92c.15,0,.25-.14.25-.29,0-.14-.1-.25-.23-.25h-1.89c-.62,0-1.22.02-1.82.02-.35,0-.41-.1-.41-.46v-.62c0-.41.04-.52.41-.52.6,0,1.2.04,1.82.04h1.66c.25,0,.44-.21.44-.46v-.23c0-.29.14-.37.41-.37.29,0,2.11.1,2.36.13.14.02.29.1.29.27,0,.16-.1.21-.19.27-.1.06-.17.1-.17.19,0,.08.06.19.23.19h.64Zm-4.18,4.06c.19,0,.27-.19.27-.31,0-.14-.12-.23-.29-.23h-.43c-.37,0-.56.02-.56.29,0,.16.12.23.25.25h.75Zm4.14,2.76c.31,0,.54-.25.54-.54v-.17c0-.31-.23-.54-.54-.54h-1.6c-.37,0-.64.19-.89.46-.1.1-.25.23-.39.35-.12.1-.21.19-.21.27,0,.13.15.17.25.17h2.84Zm2.92,2.09c.12,0,.21-.1.21-.21v-.12c0-.12-.1-.21-.21-.21h-5.8c-.12,0-.21.1-.21.21v.12c0,.12.08.19.21.21h5.8Zm-5.8,1.18c-.12,0-.21.1-.21.23v.1c0,.12.1.21.21.21h5.8c.12,0,.21-.1.21-.21v-.1c0-.14-.08-.23-.21-.23h-5.8Zm0,1.68c-.12,0-.21.1-.21.21v.12c0,.12.1.21.21.21h5.8c.12,0,.21-.1.21-.21v-.12c0-.12-.08-.21-.21-.21h-5.8Zm1.91-8.26c-.15,0-.27.12-.27.27,0,.17.12.27.25.27h1.31c.12,0,.21-.1.21-.21v-.12c0-.12-.08-.21-.21-.21h-1.3Zm1.26-1.43c.14,0,.25-.12.25-.25v-.06c0-.14-.12-.23-.25-.23h-1c-.15,0-.23.14-.23.29s.1.23.25.25h.99Zm4,0c.14,0,.25-.12.25-.25v-.06c0-.14-.12-.23-.25-.23h-.93c-.14,0-.25.1-.25.23v.06c0,.14.12.23.25.25h.93Zm-.64,3.48c-.29,0-.54.23-.54.54v.46c0,.1.08.25.27.25.23,0,.27-.14.27-.37,0-.39.17-.41.44-.41.23,0,.44.02.68.02.15,0,.35,0,.5-.08.14-.06.25-.23.25-.33s-.1-.1-.27-.1h-1.6Z"/>
        <path d="m88.21,38.25c-.66,0-.83.33-.93.91-.25,1.39-.73,2.92-1.49,4.1-.17.27-.43.66-.79.66-.43,0-1.95-1-1.95-1.53,0-.12.06-.23.19-.42.44-.7.89-1.84,1.1-2.65.48-1.78.5-4.14.5-6.01v-3.23c0-.7-.06-1.37-.06-2.07,0-.75.29-1.06,1.06-1.06.64,0,1.28.04,1.91.04h8.99c.62,0,1.26-.04,1.88-.04.77,0,1.08.27,1.08,1.06,0,.68-.04,1.37-.04,2.07v9.8c0,.52.02,1.06.02,1.58,0,.87-.16,1.6-.99,2.07-.66.37-1.51.43-2.26.43-.68,0-.95-.17-1.18-.81-.15-.42-.23-.89-.23-1.35,0-.35.06-.62.46-.62.12,0,.21,0,.33.02.17.02.29.02.46.02.56,0,.6-.17.6-.7v-1.72c0-.29-.23-.54-.54-.54h-2.4c-.31,0-.54.25-.54.54v1.16c0,1.02.06,2.03.06,3.04,0,.48-.23.52-.89.52h-1.2c-.68,0-.89-.04-.89-.54,0-1,.06-2.01.06-3.02v-1.16c0-.31-.21-.54-.54-.54h-1.8Zm.04-4.29c-.6,0-.68.31-.68.83v.43c0,.27.21.54.64.54h1.8c.31,0,.54-.25.54-.54v-.72c0-.29-.21-.54-.54-.54h-1.76Zm1.76-2.55c.33,0,.54-.23.54-.54v-.7c0-.31-.23-.54-.54-.54h-1.86c-.29,0-.54.23-.54.54v.7c0,.31.25.54.54.54h1.86Zm6.34,0c.31,0,.54-.23.54-.54v-.7c0-.31-.23-.54-.54-.54h-2.4c-.31,0-.54.23-.54.54v.7c0,.31.21.54.54.54h2.4Zm-2.4,2.55c-.33,0-.54.25-.54.54v.72c0,.29.23.54.54.54h2.4c.31,0,.54-.25.54-.54v-.72c0-.29-.23-.54-.54-.54h-2.4Z"/>
      </g>
      <path d="m79.73,89.54c0,1.34.11,2.68.11,4,0,.72-.32.78-1.29.78h-1.66c-.97,0-1.31-.05-1.31-.75,0-1.34.08-2.68.08-4.02v-14.38c0-.97-.05-1.9-.05-2.87,0-1.13.51-1.48,1.58-1.48.97,0,1.93.05,2.9.05h12.31c.94,0,1.88-.05,2.84-.05.83,0,1.64.13,1.64,1.48,0,.97-.08,1.9-.08,2.87v13.09c0,.75.05,1.48.05,2.23,0,1.07-.03,2.04-.86,2.82-.97.88-2.49.97-3.76.97-1.1,0-1.74-.08-2.12-.67-.32-.51-.46-1.53-.46-2.15,0-.97.13-1.37.62-1.37.24,0,.89.08,1.34.08,1.07,0,1.1-.38,1.1-1.31v-3.7c0-.4-.35-.75-.75-.75h-11.48c-.4,0-.75.38-.75.8v4.35Zm4.56-14.08c0-.4-.35-.75-.75-.75h-3.06c-.4,0-.75.35-.75.75v4.53c0,.4.35.75.75.75h3.06c.4,0,.75-.32.75-.75v-4.53Zm3.94,4.53c0,.43.32.75.75.75h2.98c.4,0,.75-.35.75-.75v-4.53c0-.4-.35-.75-.75-.75h-2.98c-.43,0-.75.35-.75.75v4.53Z"/>
      <path d="m44.7,75.27c0-11.13.28-13.42.84-15.63,1.57-6.42,5.5-10.25,11.5-10.25s9.93,3.83,11.5,10.25c.56,2.21.84,4.5.84,15.63s-.28,13.42-.84,15.63c-1.57,6.41-5.5,10.25-11.5,10.25s-9.93-3.83-11.5-10.25c-.56-2.21-.84-4.5-.84-15.63Zm12.34,17.18c1.96,0,3.31-1.11,3.87-3.39.34-1.33.45-2.8.45-13.79s-.11-12.46-.45-13.79c-.56-2.29-1.91-3.39-3.87-3.39s-3.31,1.11-3.87,3.39c-.34,1.33-.45,2.8-.45,13.79s.11,12.46.45,13.79c.56,2.29,1.85,3.39,3.87,3.39Z"/>
    </g>
    <g>
      <path d="m158.45,25.84c0-1.86-.1-3.72-.1-5.59,0-2.17.93-2.84,3-2.84,1.81,0,3.62.1,5.43.1h14.69c1.76,0,3.57-.1,5.33-.1s3.05.36,3.05,2.84c0,1.86-.1,3.78-.1,5.64v25.14c0,1.34.15,2.64.15,3.98,0,2.74-.36,4.76-2.95,6.16-2.12,1.14-4.45,1.45-7.19,1.45s-3.26-.72-3.62-2.38c-.26-1.09-.47-2.74-.47-3.88,0-.83.26-1.5,1.24-1.5.62,0,1.71.21,2.59.21,2.28,0,2.38-.93,2.38-1.96v-5.43c0-.78-.67-1.45-1.45-1.45h-12.52c-1.4,0-1.97.41-2.22,1.81-.47,2.69-1.55,5.59-2.74,8.12-.67,1.45-3.05,6.31-4.76,6.31-1.35,0-5.64-2.74-5.64-4.4,0-.47.41-.93.72-1.29,2.07-2.64,3.67-6.62,4.4-9.93.72-3.31.78-6.52.78-9.78v-11.22Zm7.92,1.09c0,.78.67,1.45,1.45,1.45h12.62c.78,0,1.45-.67,1.45-1.45v-.67c0-.83-.67-1.45-1.45-1.45h-12.62c-.78,0-1.45.62-1.45,1.45v.67Zm14.07,12.31c.78,0,1.45-.67,1.45-1.45v-.93c0-.78-.67-1.45-1.45-1.45h-12.41c-1.14,0-1.66.62-1.66,1.76v.31c0,1.14.57,1.76,1.76,1.76h12.31Z"/>
      <path d="m161.09,112.02c-.98,0-1.14.1-1.14.88,0,1.24-.16,1.34-2.02,1.34h-2.79c-1.55,0-2.07-.1-2.07-1.09s.05-1.97.05-2.9v-8.79c0-.88,0-1.24-.72-1.5-.93-.31-2.9-4.04-2.9-5.17,0-.78.62-.93,1.34-1.14.88-.26,5.84-1.81,5.84-2.59,0-.31-.57-1.14-1.09-1.14-.31,0-.57.16-.88.41-.36.31-1.09.88-1.6.88-1.09,0-3.57-2.74-3.57-3.98,0-.52.52-.83,1.29-1.34,2.79-1.91,5.64-4.6,7.14-6.57.46-.57,1.09-1.34,1.09-1.6,0-.31-.26-.47-.52-.47h-.78c-.52,0-.98.41-.98.93,0,.26.1.62.1,1.5,0,1.19-.67,1.29-2.07,1.29h-2.12c-1.55,0-2.22-.1-2.22-1.29,0-.52.05-.98.1-1.45.05-.36.05-.57.05-.93v-1.66c0-.88-.1-1.71-.1-2.59,0-1.76,1.66-1.81,2.95-1.81,1.19,0,2.33.1,3.47.1s1.71-.72,1.71-1.4c0-.36-.1-1.4-.16-1.76,0-.1-.05-.26-.05-.41,0-.57.62-.57,1.04-.57,1.45,0,3.93.16,5.38.26,1.19.1,2.17.1,2.17.72,0,.26-.26.41-.57.67-.31.26-.52.67-.52,1.09,0,.78.72,1.4,1.55,1.4.47,0,1.71-.1,2.79-.1,1.29,0,3.1,0,3.1,1.81,0,.83-.1,1.71-.1,2.59v1.76c0,.98.1,1.55.1,2.33,0,.67-.31,1.24-.83,1.24-.21,0-.72,0-.72.47,0,.26.16.41.36.67.41.52,1.03,1.6,1.03,2.28,0,1.09-3.46,4.86-4.34,5.74-.26.26-.47.47-.47.83,0,1.14,5.22,2.43,5.54,2.43.67,0,.83-.57.83-1.14v-7.14c0-1.6-.1-3.26-.1-4.86,0-2.12.98-2.43,2.74-2.43h.93c.36,0,.67-.16.98-.57.36-.52.57-1.24.57-1.4,0-.52-.46-.62-.88-.62-1.34,0-2.69.15-4.04.15-1.03,0-1.14-.52-1.14-2.17v-2.54c0-1.45.1-1.97,1.14-1.97,1.24,0,2.9.1,4.66.1h11.02c1.76,0,3.41-.1,4.66-.1,1.04,0,1.14.47,1.14,1.71v3c0,1.5-.1,1.96-1.09,1.96-1.34,0-3.05-.15-4.71-.15h-1.5c-1.81,0-2.28,1.91-2.28,2.12s.16.57.88.57c1.5,0,3-.1,4.5-.1,1.71,0,2.53.57,2.53,2.38,0,1.66-.1,3.26-.1,4.92v12.41c0,1.66.1,3.26.1,4.91,0,2.33-1.34,2.43-3,2.43-.16,0-.31-.05-.46-.05-.26,0-.41.21-.41.36,0,.67,4.76,3.16,5.59,3.52.47.21.72.52.72.88,0,1.24-2.64,4.81-3.88,4.81-.36,0-.62-.16-.98-.36-2.17-1.19-4.19-2.53-5.85-3.93-.46-.36-1.34-1.14-1.34-1.5,0-.67.88-1.5,1.5-2.17l.41-.41c.1-.1.36-.31.47-.41s.26-.21.26-.41c0-.31-.31-.46-.57-.46h-5.02c-.36,0-.67.26-.67.52,0,.41,1.29,1.6,1.71,1.97.36.36,1.45,1.34,1.45,1.81,0,.31-.31.57-.62.57-.36,0-.41-.1-.88-.1-.15,0-.21,0-.41.16-1.19.98-6.83,4.97-8.07,4.97-.98,0-2.54-2.12-3.1-2.9-.1-.15-.21-.21-.26-.21-.16,0-.21.31-.21.41v.36c0,.78-.52.98-1.91.98h-3.93c-1.03,0-1.03-.47-1.03-.72,0-.41-.21-.52-.52-.52h-2.69Zm3.21-14.33c.26,0,.41-.1.41-.36,0-.41-1.6-1.5-2.64-1.5-.62,0-.98.26-1.4.52-.16.1-.67.41-.93.57-.26.16-.41.31-.41.47,0,.26.36.31.57.31h4.4Zm-4.34,7.09c0,.52.46.98.98.98h2.53c.52,0,.98-.47.98-.98v-.36c0-.57-.47-.98-.98-.98h-2.53c-.57,0-.93.41-.98.98v.36Zm2.17-19.35c-.36,0-1.03,0-1.03.52,0,.36.93,1.5,1.55,1.5.72,0,2.12-1.5,2.12-1.66,0-.31-.98-.36-1.91-.36h-.72Zm2.28-8.17c-.16,0-.41.05-.41.26s.57.41.88.47c.57.1,1.34.31,1.34.78,0,.36-.47.57-.78.62-.83.16-.98.83-.98.93,0,.26.21.47.46.47h1.6c.41,0,.72-.36.72-.78v-.31c0-.16.05-1.19.05-1.34.05-.1.05-.26.05-.36,0-.31-.21-.67-.88-.72h-2.07Zm6.72,30.21c0,.62.1,1.24.78,1.24.31,0,1.24-.57,1.6-.72.57-.31,4.14-2.33,4.14-2.79,0-.21-.16-.36-.41-.36h-.36c-1.6,0-2.17-.93-2.17-2.38s.1-2.84.1-4.29v-.72c0-.26,0-.57-.36-.57-.26,0-.36.21-.57.57-.41.78-1.29,1.71-1.97,2.22-.72.52-.78,1.19-.78,2.28v5.54Zm16.35-22.97c0-.36-.26-.67-.62-.67h-4.03c-.36,0-.62.31-.62.67v.26c0,.36.26.67.62.67h4.03c.36,0,.62-.26.62-.67v-.26Zm0,6.67c0-.36-.26-.67-.62-.67h-4.03c-.36,0-.62.31-.62.67v.26c0,.36.26.67.62.67h4.03c.36,0,.62-.31.62-.67v-.26Zm0,6.57c0-.36-.26-.67-.62-.67h-4.03c-.36,0-.62.31-.62.67v.31c0,.36.26.67.62.67h4.03c.36,0,.62-.31.62-.67v-.31Z"/>
    </g>
    <g>
      <path d="m456,89.98c0,1.99.16,3.97.16,5.92,0,1.07-.48,1.15-1.91,1.15h-2.46c-1.43,0-1.95-.08-1.95-1.11,0-1.99.12-3.97.12-5.96v-21.28c0-1.43-.08-2.82-.08-4.25,0-1.67.75-2.18,2.34-2.18,1.43,0,2.86.08,4.29.08h18.22c1.39,0,2.78-.08,4.21-.08,1.23,0,2.42.2,2.42,2.18,0,1.43-.12,2.82-.12,4.25v19.38c0,1.11.08,2.18.08,3.29,0,1.59-.04,3.02-1.27,4.17-1.43,1.31-3.69,1.43-5.56,1.43-1.63,0-2.58-.12-3.14-.99-.48-.75-.68-2.26-.68-3.18,0-1.43.2-2.03.91-2.03.36,0,1.31.12,1.98.12,1.59,0,1.63-.56,1.63-1.95v-5.48c0-.6-.52-1.11-1.11-1.11h-16.99c-.6,0-1.11.56-1.11,1.19v6.43Zm6.75-20.84c0-.6-.52-1.11-1.11-1.11h-4.53c-.6,0-1.11.52-1.11,1.11v6.71c0,.59.52,1.11,1.11,1.11h4.53c.6,0,1.11-.48,1.11-1.11v-6.71Zm5.84,6.71c0,.63.48,1.11,1.11,1.11h4.41c.6,0,1.11-.52,1.11-1.11v-6.71c0-.6-.52-1.11-1.11-1.11h-4.41c-.63,0-1.11.52-1.11,1.11v6.71Z"/>
      <path d="m515.71,78.78c0,.2-.12.48-.4.83-1.91,2.62-4.69,4.61-8.02,4.61-2.42,0-4.41-.95-6.15-1.95-1.63-.91-3.26-1.99-5.08-1.99-1.63,0-2.86.95-3.65,2.06-.32.44-.52.67-.75.67s-.48-.16-.83-.48l-2.34-2.02c-.44-.36-.63-.64-.63-.91,0-.24.16-.48.4-.83,1.83-2.62,4.57-4.65,7.98-4.65,2.58,0,4.53,1.07,6.27,2.06,1.71.99,3.26,1.91,4.96,1.91s2.94-.99,3.69-2.1c.32-.44.52-.67.75-.67.2,0,.44.16.79.48l2.42,2.06c.4.36.59.63.59.91Z"/>
    </g>
    <g>
      <path d="m445.31,42.58c0-4.17,1.53-8.52,4.3-11.66.23-.28.6-.7.95-.7.58,0,2.01,1.23,2.01,1.63,0,.18-.12.35-.25.48-2.56,2.92-4,6.33-4,10.25,0,3.67,1.36,7.24,3.77,10,.18.18.45.45.45.7,0,.5-1.48,1.66-1.96,1.66-.35,0-.65-.33-.88-.6-2.81-3.17-4.4-7.51-4.4-11.76Z"/>
      <path d="m457.8,36.5c0-.28,0-.65-.5-.65-.18,0-.58.08-.78.1-.08.03-.2.03-.28.03-.88,0-1.26-2.09-1.26-2.76,0-.4.15-.43.5-.48,1.81-.25,4.5-.83,6.16-1.58.08-.05.23-.13.33-.13.28,0,.48.45,1.26,1.94.4.78.5.96.5,1.16,0,.23-.18.33-.38.33-.18,0-.28-.05-.43-.1-.05-.03-.1-.05-.15-.05-.08,0-.65.23-.75.28-.75.25-.93.4-.93,1.23v1.21c0,.25.03.6.5.6s.98-.08,1.48-.08.53.25.53.83v1.56c0,.8-.05,1.03-.55,1.03-.28,0-.58-.05-.78-.05-.23,0-.43.05-.43.3,0,.38,1.41,2.29,1.71,2.64.38.45.45.58.45.75,0,.58-1.23,2.51-1.68,2.51-.3,0-.78-1-.93-1.28-.03-.08-.1-.18-.18-.18-.12,0-.12.15-.12.28v3.74c0,1.18.08,2.34.08,3.49,0,.63-.23.68-1,.68h-1.46c-.75,0-.98-.05-.98-.63,0-1.18.08-2.36.08-3.54v-1c0-.2,0-.43-.15-.43-.1,0-.18.15-.2.25-.15.38-.8,2.06-1.23,2.06s-1.91-1.76-1.91-2.34c0-.15.08-.3.18-.43.45-.78.9-1.68,1.26-2.51.3-.68,1.38-3.42,1.38-4,0-.28-.15-.38-.43-.38-.38,0-.78.05-1.16.05-.5,0-.55-.23-.55-1.03v-1.63c0-.45.05-.75.53-.75.5,0,1.11.08,1.68.08.65,0,.6-.5.6-.65v-.45Zm10.96,10.38c-.38,3.92-3.92,7.01-4.85,7.01-.58,0-2.11-1.36-2.11-2.19,0-.2.13-.33.28-.45.93-.7,1.71-1.41,2.39-2.36.48-.73.96-1.88.96-2.76,0-.4-.4-.43-.65-.43-.33,0-.63-.03-.63-.4,0-.23.08-1.13.08-1.78v-5.25c0-.6-.05-1.03-.05-1.41,0-.7.75-.8,1.31-.83.23-.02.48-.1.48-.38,0-.38-1.26-2.36-1.53-2.79-.08-.1-.23-.33-.23-.45,0-.5,2.16-1.38,2.64-1.38.2,0,.33.1.43.28.3.4.68,1.01.9,1.43.2.35.98,1.83.98,2.14s-.18.45-1.08.8c-.1.03-.28.1-.28.25,0,.13.23.13.58.13h1.16c.73,0,1.13-.05,1.48-.75.5-.96,1.23-2.66,1.56-3.69.08-.2.18-.58.45-.58.2,0,1.88.58,2.19.68.88.33,1.51.53,1.51.83,0,.18-.15.25-.3.28-.28.05-.33.13-.48.35-.05.12-.23.43-.4.75-.38.7-.85,1.61-.85,1.73,0,.3.28.35.5.38.55.03,1.38.1,1.38.8,0,.38-.05.83-.05,1.43v5.25c0,.85.08,1.58.08,1.78,0,.4-.35.43-.75.43h-1.33c-.7,0-.96.18-.96.88v2.76c0,.5,0,.78.3.78h.13c.38,0,.4-1.03.4-1.31.02-.45.1-.68.68-.68.53,0,1.26.15,1.76.35.55.23.9.53.9,1.16,0,.8-.53,2.56-1,3.19-.6.83-1.26.83-2.31.83h-1.18c-2.51,0-3.12-.55-3.12-3.09,0-.58.02-1.16.02-1.73v-2.94c0-.4-.33-.7-.7-.7h-1.06c-.1,0-.38-.03-.38.15,0,.15.25.18.45.23.4.1.88.18.88.45,0,.18-.15.28-.3.38-.18.13-.2.25-.25.45Zm3.44-5c.4,0,.7-.3.7-.7v-1.11c0-.4-.3-.7-.7-.7h-3.74c-.4,0-.7.3-.7.7v1.11c0,.4.28.68.7.7h3.74Z"/>
      <path d="m482.33,48.64c.63-.28.73-.63.73-1.03v-3.52c0-.43-.3-.73-.75-.73-.53,0-1.06.05-1.58.05-.63,0-.68-.3-.68-1v-1.43c0-.73.08-1,.65-1,.48,0,1.08.05,1.68.05h.96c.63,0,1.26-.05,1.88-.05.83,0,1.53.25,1.53,1.21,0,.6-.05,1.31-.05,2.24v3.64c0,1.31.45,2.34,1.81,2.64,1.13.25,5.71.3,7.09.3,1.63,0,3.27-.05,4.9-.15.33-.03,1.28-.1,1.53-.1.6,0,.6.45.6,1.03,0,.38-.05,1.76-.45,2.21-.33.38-.88.4-2.97.4-6.16,0-9.22-.05-11.21-.35-1.03-.15-1.83-.55-2.61-1.33-.18-.18-.38-.38-.65-.38-.45,0-2.01,1.03-2.46,1.33-.23.15-.38.2-.5.45-.1.2-.25.48-.48.48s-.3-.1-.48-.55c-.18-.45-1.08-2.79-1.08-3.32,0-.3.28-.43.83-.55.65-.15,1.48-.4,1.76-.53Zm.25-17.06c.5,0,4.37,3.87,4.37,4.37,0,.58-1.86,2.06-2.34,2.06-.2,0-.35-.18-.5-.35-1.08-1.26-2.26-2.44-3.47-3.57-.15-.15-.3-.3-.3-.5,0-.65,1.78-2.01,2.24-2.01Zm8.87,3.62c-.83,0-1.81.05-2.49.05-.8,0-.88-.25-.88-1.21v-1.06c0-1.13.08-1.33.9-1.33.88,0,1.73.08,2.59.08h2.26c.45,0,.88-.05,1.33-.05,1.23,0,1.51.38,1.58,1.78.03.38.03.83.03,1.38.08,3.32.96,6.01,2.89,8.75.7,1.01,1.46,1.86,2.39,2.66.15.13.28.25.28.45,0,1.01-1.96,2.44-2.92,2.44-.3,0-.43-.15-.65-.4-1.28-1.43-2.54-3.19-3.42-4.95-.13-.25-.38-.78-.7-.78-.3,0-.58.58-.7.83-.93,1.66-4.05,5.35-4.75,5.35-.58,0-2.31-2.04-2.31-2.69,0-.23.18-.35.58-.68,2.64-2.14,4.4-5.66,5.15-8.87.08-.35.2-.93.2-1.28s-.2-.48-.58-.48h-.78Z"/>
      <path d="m511.73,42.58c0,4.17-1.53,8.52-4.3,11.66-.23.28-.6.7-.96.7-.58,0-2.01-1.23-2.01-1.63,0-.18.13-.35.25-.48,2.56-2.92,4-6.33,4-10.25,0-3.67-1.36-7.24-3.77-10-.18-.18-.45-.45-.45-.7,0-.5,1.48-1.66,1.96-1.66.35,0,.65.33.88.6,2.81,3.17,4.4,7.51,4.4,11.76Z"/>
    </g>
    <g>
      <path d="m204.48,97.35c0-.84.11-1.26.53-1.96l25.4-39.67c2.76-4.19,4.25-8.24,4.25-13.13,0-6.29-2.87-10.89-7.87-10.89s-7.86,3.91-8.5,11.17c0,.84-.42,1.26-1.17,1.12l-11.69-2.51c-.64-.14-.96-.84-.85-1.68.74-13.13,8.82-24.58,22.74-24.58s22.21,11.73,22.21,27.1c0,9.08-2.76,16.2-7.33,23.05l-19.02,29.47v.28h25.29c.64,0,1.06.56,1.06,1.4v13.83c0,.84-.42,1.4-1.06,1.4h-42.94c-.64,0-1.06-.56-1.06-1.4v-12.99Z"/>
      <path d="m260.8,90.77c0-.86.44-1.44,1.1-1.44h12.39c.66,0,1.1.58,1.1,1.44v17.44c0,1.3-.33,2.02-.99,2.88l-10.86,12.97c-.66.72-1.1,1.01-1.64,1.01-.66,0-1.1-.58-1.1-1.59v-32.72Z"/>
      <path d="m304.36,73.61l-.21-.28c-.74.42-2.55.84-4.46.84-11.37,0-20.72-11.17-20.72-28.63,0-19.14,10.52-30.31,24.23-30.31s24.23,11.17,24.23,29.89c0,8.1-1.91,15.36-5.31,23.47l-17.54,42.18c-.32.84-.53.98-1.28.98h-13.5c-.85,0-1.06-.56-.74-1.4l15.3-36.73Zm8.4-28.77c0-7.68-3.72-13.13-9.56-13.13s-9.57,5.45-9.57,13.13,3.72,13.27,9.57,13.27,9.56-5.45,9.56-13.27Z"/>
      <path d="m366.52,34.22v-.42h-15.2c-.42,0-.64.28-.64.84v9.92c0,.84-.42,1.4-1.06,1.4h-11.8c-.64,0-1.06-.56-1.06-1.4v-26.4c0-.84.42-1.4,1.06-1.4h43.25c.64,0,1.06.56,1.06,1.4v14.53c0,.7-.11,1.26-.21,1.68l-22.96,76.12c-.32.98-.74,1.26-1.49,1.26h-13.28c-.64,0-.96-.56-.64-1.54l22.96-75.98Z"/>
      <path d="m390.64,64.25c0-21.09.53-25.42,1.59-29.61,2.98-12.15,10.42-19.42,21.79-19.42s18.81,7.26,21.79,19.42c1.06,4.19,1.59,8.52,1.59,29.61s-.53,25.42-1.59,29.61c-2.98,12.15-10.42,19.41-21.79,19.41s-18.81-7.26-21.79-19.41c-1.06-4.19-1.59-8.52-1.59-29.61Zm23.38,32.54c3.72,0,6.27-2.09,7.33-6.42.64-2.51.85-5.31.85-26.12s-.21-23.61-.85-26.12c-1.06-4.33-3.61-6.43-7.33-6.43s-6.27,2.1-7.33,6.43c-.64,2.51-.85,5.31-.85,26.12s.21,23.6.85,26.12c1.06,4.33,3.51,6.42,7.33,6.42Z"/>
    </g>
  </g>
</svg>