<?xml version="1.0" encoding="UTF-8"?>
<svg id="Layer_2" data-name="Layer 2" xmlns="http://www.w3.org/2000/svg" viewBox="0 0 54.49 62.92">
  <defs>
    <style>
      .cls-1 {
        fill: #00be5a;
      }
    </style>
  </defs>
  <g id="_デザイン" data-name="デザイン">
    <path class="cls-1" d="m.08,23.16c0-4.92.11-9.85-.04-14.76C-.05,5.74.9,4.29,3.49,3.49,14.26.13,25.28-.7,36.41.56c4.97.56,9.85,1.98,14.77,3.06,2.48.54,3.34,2.15,3.32,4.66-.1,9.51,0,19.01-.06,28.52-.03,6-3.03,10.66-7.18,14.65-5.24,5.04-11.47,8.56-18.23,11.15-1.04.4-2.49.44-3.52.04-6.96-2.69-13.38-6.32-18.74-11.59C2.28,46.63-.33,41.43.03,34.9c.22-3.9.04-7.83.04-11.74Zm24.82,11.69c-.1-1.47-.24-2.67-.25-3.87-.03-4.47-.11-8.95.02-13.42.07-2.52-1.2-2.94-3.33-2.93-2.12,0-3.38.42-3.34,2.95.11,7.04.09,14.09,0,21.13-.02,2.02.8,2.87,2.75,2.86,4.27-.02,8.53-.04,12.8.01,2.43.03,3.01-1.28,2.98-3.42-.03-2.1-.48-3.46-3-3.34-2.78.13-5.58.03-8.64.03Z"/>
  </g>
</svg>