<?xml version="1.0" encoding="UTF-8"?>
<svg id="Layer_2" data-name="Layer 2" xmlns="http://www.w3.org/2000/svg" viewBox="0 0 45.14 65.35">
  <defs>
    <style>
      .cls-1 {
        fill: #008037;
      }
    </style>
  </defs>
  <g id="_デザイン" data-name="デザイン">
    <path class="cls-1" d="m0,2.87v38.64c.05,2.06,1.01,4.28,2.47,5.74l18.06,17.13c.53.49,1.13.88,1.92.95v.03h.06s.04,0,.07,0c.02,0,.04,0,.06,0,.02,0,.04,0,.06,0,.42,0,.84-.17,1.18-.42.26-.16.51-.34.74-.56l18.06-17.13c1.46-1.46,2.41-3.68,2.47-5.74V2.87c0-.65-.1-1.25-.45-1.83-.33-.58-1.1-1.06-1.83-1.04-.89.02-1.53.45-2.11.98l-18.06,17.13L4.4.99C3.82.45,3.17.02,2.28,0,1.55-.03.78.45.46,1.04.1,1.62,0,2.22,0,2.87Zm2.8.45l17.73,16.82c.77.66,1.65,2.69,1.6,3.71v38.18L4.39,45.21c-.77-.66-1.64-2.69-1.59-3.71V3.32Z"/>
  </g>
</svg>