<?xml version="1.0" encoding="UTF-8"?>
<svg id="Layer_2" data-name="Layer 2" xmlns="http://www.w3.org/2000/svg" viewBox="0 0 72.49 64.86">
  <defs>
    <style>
      .cls-1 {
        fill: #008037;
      }
    </style>
  </defs>
  <g id="_デザイン" data-name="デザイン">
    <g>
      <path class="cls-1" d="m43.68,64.86c-1.05,0-1.91-1.08-1.91-2.42v-22.55h-11.06v22.55c0,1.33-.86,2.42-1.91,2.42H10.52c-1.05,0-1.91-1.08-1.91-2.42V26.93c0-1.33.86-2.42,1.91-2.42s1.91,1.08,1.91,2.42v33.09h14.46v-22.55c0-1.33.86-2.42,1.91-2.42h14.88c1.05,0,1.91,1.08,1.91,2.42v22.55h14.46V26.93c0-1.33.86-2.42,1.91-2.42s1.91,1.08,1.91,2.42v35.51c0,1.33-.86,2.42-1.91,2.42h-18.28Z"/>
      <path class="cls-1" d="m1.91,34.25c-.61,0-1.16-.35-1.53-.96-.66-1.1-.44-2.68.46-3.46L35.18.42c.32-.27.69-.42,1.07-.42s.75.14,1.07.42l34.34,29.41c.91.78,1.12,2.36.46,3.46-.37.61-.92.96-1.53.96-.38,0-.74-.14-1.06-.41L36.25,5.33,2.98,33.83c-.32.27-.68.42-1.06.42Z"/>
    </g>
  </g>
</svg>