<?xml version="1.0" encoding="UTF-8"?>
<svg id="Layer_2" data-name="Layer 2" xmlns="http://www.w3.org/2000/svg" viewBox="0 0 172.22 66.09">
  <defs>
    <style>
      .cls-1 {
        fill: #fff;
      }
    </style>
  </defs>
  <g id="menu">
    <g>
      <g>
        <rect class="cls-1" y="6.55" width="75.16" height="2.95"/>
        <polygon class="cls-1" points="69.13 16.17 67.14 13.99 73.69 8.04 67.16 2.3 69.11 .08 78.12 8.01 69.13 16.17"/>
      </g>
      <g>
        <rect class="cls-1" x="97.06" y="6.65" width="75.16" height="2.95"/>
        <polygon class="cls-1" points="103.11 16.05 94.09 8.14 103.09 0 105.07 2.19 98.53 8.11 105.06 13.83 103.11 16.05"/>
      </g>
      <g>
        <path class="cls-1" d="m27.72,53.65v12.07H0V24.81h9.89l.08,29.08,17.75-.24Z"/>
        <path class="cls-1" d="m29.21,25.83c0-2.92,2.29-4.99,5.56-4.99s5.5,2.06,5.5,4.99-2.29,4.93-5.5,4.93-5.56-2.07-5.56-4.93Zm.69,38.82v-28.15c0-.86.58-1.44,1.44-1.44h6.82c.86,0,1.44.57,1.44,1.44v28.15c0,.86-.57,1.44-1.44,1.44h-6.82c-.86,0-1.44-.57-1.44-1.44Z"/>
        <path class="cls-1" d="m44.65,64.65v-28.15c0-.86.57-1.44,1.43-1.44h5.28c.74,0,1.32.46,1.43,1.14l.17.8c.23,1.15.92,1.38,1.83.63,2.35-1.89,5.1-3.32,8.54-3.32,6.77,0,9.63,4.87,9.63,12.61v17.72c0,.86-.57,1.44-1.43,1.44h-6.83c-.86,0-1.43-.57-1.43-1.44v-16.57c0-4.24-1.15-5.45-3.56-5.45-2.01,0-3.27.8-4.93,2.35-.29.23-.46.63-.46,1.03v18.64c0,.86-.57,1.44-1.43,1.44h-6.83c-.86,0-1.43-.57-1.43-1.44Z"/>
        <path class="cls-1" d="m77.78,64.65V24c0-.86.57-1.43,1.43-1.43h6.59c.86,0,1.44.57,1.44,1.43l.11,18.87c0,2.41,1.03,2.75,2.52.86l6.48-8.08.11-.11c.29-.23.69-.46,1.09-.46h6.71c1.83,0,2.29.92,1.09,2.35l-8.26,9.69c-.4.46-.46,1.15-.11,1.72l9.75,15.02c.86,1.38.4,2.23-1.2,2.23h-7.05c-.51,0-1.03-.29-1.26-.74l-5.33-9.29c-.57-1.04-1.49-1.09-2.29-.23l-2.01,2.29c-.23.23-.34.63-.34.92v5.62c0,.86-.58,1.44-1.44,1.44h-6.59c-.86,0-1.43-.57-1.43-1.44Z"/>
        <path class="cls-1" d="m135.87,65l-1.78-7.11c-.17-.63-.74-1.09-1.38-1.09h-9.81c-.63,0-1.2.46-1.38,1.09l-1.78,7.11c-.17.63-.74,1.09-1.38,1.09h-6.88c-1.15,0-1.72-.74-1.38-1.83l11.75-37.67c.17-.63.69-1.03,1.32-1.03h9.58c.63,0,1.14.4,1.32,1.03l11.75,37.67c.35,1.09-.23,1.83-1.38,1.83h-7.23c-.63,0-1.2-.46-1.37-1.09Zm-11.07-15.77h6.08c.63,0,.98-.4.8-1.09l-.57-2.29c-.8-2.98-1.66-6.42-2.47-9.63-.52-2.01-1.15-2.01-1.66,0l-2.41,9.63-.63,2.29c-.17.63.17,1.09.86,1.09Z"/>
        <path class="cls-1" d="m151.52,64.65v-29.59c0-.86-.57-1.44-1.44-1.44h-8.08c-.86,0-1.44-.57-1.44-1.43v-5.22c0-.86.58-1.44,1.44-1.44h28.79c.86,0,1.44.57,1.44,1.44v5.22c0,.86-.58,1.43-1.44,1.43h-8.08c-.86,0-1.44.57-1.44,1.44v29.59c0,.86-.57,1.44-1.44,1.44h-6.88c-.86,0-1.44-.57-1.44-1.44Z"/>
      </g>
    </g>
  </g>
</svg>