<svg xmlns="http://www.w3.org/2000/svg" viewBox="0 0 136.36 120"><defs><style>.cls-1{fill:#fff;}</style></defs><g id="Layer_2" data-name="Layer 2"><g id="デザイン"><path class="cls-1" d="M134.52,67.19a1.84,1.84,0,0,1-1.85-1.84V52.45c0-9.6-6.62-16.58-15.75-16.58H106.06a1.84,1.84,0,0,1,0-3.68h10.86c11.08,0,19.44,8.71,19.44,20.26v12.9A1.84,1.84,0,0,1,134.52,67.19Z"/><path class="cls-1" d="M110.52,28.51c-6.61,0-11-5.19-11-12.9s4.44-12.9,11-12.9,11,5.19,11,12.9S117.13,28.51,110.52,28.51Zm0-22.11c-5.43,0-7.37,4.76-7.37,9.21s1.94,9.21,7.37,9.21,7.37-4.76,7.37-9.21S116,6.4,110.52,6.4Z"/><path class="cls-1" d="M125.26,67.19a1.84,1.84,0,0,1-1.85-1.84V56.14a1.84,1.84,0,0,1,1.85-1.84h1.84a1.84,1.84,0,1,1,0,3.68v7.37A1.84,1.84,0,0,1,125.26,67.19Z"/><path class="cls-1" d="M27.67,67.19a1.84,1.84,0,0,1-1.84-1.84V52.45c0-11.55,8.35-20.26,19.44-20.26H56.13a1.84,1.84,0,0,1,0,3.68H45.27c-9.13,0-15.76,7-15.76,16.58v12.9A1.84,1.84,0,0,1,27.67,67.19Z"/><path class="cls-1" d="M51.66,28.51c-6.61,0-11-5.19-11-12.9s4.44-12.9,11-12.9S62.72,7.9,62.72,15.61,58.28,28.51,51.66,28.51Zm0-22.11c-5.43,0-7.36,4.76-7.36,9.21s1.93,9.21,7.36,9.21S59,20.06,59,15.61,57.1,6.4,51.66,6.4Z"/><path class="cls-1" d="M36.93,67.19a1.84,1.84,0,0,1-1.84-1.84V58a1.84,1.84,0,1,1,0-3.68h1.84a1.84,1.84,0,0,1,1.84,1.84v9.21A1.84,1.84,0,0,1,36.93,67.19Z"/><path class="cls-1" d="M105.05,66.32a1.84,1.84,0,0,1-1.84-1.84V49.74c0-9.61-6.63-16.58-15.76-16.58H74.75c-9.13,0-15.75,7-15.75,16.58V64.48a1.85,1.85,0,0,1-3.69,0V49.74c0-11.55,8.36-20.27,19.44-20.27h12.7c11.09,0,19.44,8.72,19.44,20.27V64.48A1.84,1.84,0,0,1,105.05,66.32Z"/><path class="cls-1" d="M81.15,25.79c-6.61,0-11.05-5.18-11.05-12.89S74.54,0,81.15,0s11,5.18,11,12.9S87.76,25.79,81.15,25.79Zm0-22.11c-5.43,0-7.37,4.76-7.37,9.22s1.94,9.21,7.37,9.21,7.37-4.76,7.37-9.21S86.58,3.68,81.15,3.68Z"/><path class="cls-1" d="M66.41,66.32a1.85,1.85,0,0,1-1.84-1.84V55.27a1.85,1.85,0,0,1,0-3.69h1.84a1.85,1.85,0,0,1,1.85,1.84V64.48A1.85,1.85,0,0,1,66.41,66.32Z"/><path class="cls-1" d="M95.91,66.32a1.84,1.84,0,0,1-1.84-1.84V53.42a1.84,1.84,0,0,1,1.84-1.84h1.84a1.85,1.85,0,1,1,0,3.69v9.21A1.84,1.84,0,0,1,95.91,66.32Z"/><path class="cls-1" d="M81.42,119.16A110.74,110.74,0,0,1,52,115.33c-18.44-5.3-26.18-2.15-26.26-2.12a1.85,1.85,0,0,1-2.42-.95,1.83,1.83,0,0,1,.93-2.41c.34-.16,8.79-3.8,28.78,1.94,14.64,4.32,57.43,9.92,79.41-15.67l.07-.08c-.76-.82-4.32-2-9.8.31a38.15,38.15,0,0,0-5.45,2.51c-4.82,2.52-10.29,5.37-19.74,4.71a1.84,1.84,0,0,1,.25-3.67c8.43.59,13.18-1.9,17.78-4.31a41.85,41.85,0,0,1,5.87-2.69c6.92-2.87,12.58-1.46,14.33,1.35a3.32,3.32,0,0,1-.59,4.35C121.28,114.72,99.75,119.16,81.42,119.16Z"/><path class="cls-1" d="M81.27,106.59c-8.72,0-15.47-1.74-20.13-5.21a1.84,1.84,0,1,1,2.2-2.95c5.61,4.17,15.51,5.45,28.61,3.7,2.52-.34,4.14-1.25,4.7-2.66A3.69,3.69,0,0,0,96,96c-.34-.41-.75-.66-1-.61s-.66,0-1.47.11c-4.36.38-14.54,1.28-18.3-4.19C62.11,75.58,53.21,76.2,48.41,76.53c-.66,0-1.24.09-1.75.09a13.21,13.21,0,0,0-7,1.76c-2.73,1.35-6.12,3-14.74,3.65a1.84,1.84,0,1,1-.26-3.67c7.89-.57,10.8-2,13.36-3.28a16.82,16.82,0,0,1,8.68-2.15c.43,0,.93,0,1.5-.07,5.06-.35,15.59-1.09,30,16.13l.12.17c2.5,3.75,11.89,2.92,15,2.65l1.3-.1a4.83,4.83,0,0,1,4.32,1.93,7.31,7.31,0,0,1,1.2,7.18c-.62,1.56-2.42,4.27-7.64,5A84.37,84.37,0,0,1,81.27,106.59Z"/><path class="cls-1" d="M23.94,120H1.84a1.84,1.84,0,0,1,0-3.68H22.09V75.79H1.84a1.85,1.85,0,0,1,0-3.69h22.1A1.85,1.85,0,0,1,25.78,74v44.21A1.84,1.84,0,0,1,23.94,120Z"/><path class="cls-1" d="M98.72,98.89A1.84,1.84,0,0,1,98,95.36l18.27-8a10.48,10.48,0,0,1,7.81-.49,5.37,5.37,0,0,1,3.06,2.86,5.57,5.57,0,0,1-.21,4.54,1.84,1.84,0,1,1-3.34-1.55,2,2,0,0,0,.16-1.55,1.76,1.76,0,0,0-1-.87,6.91,6.91,0,0,0-5,.43l-18.26,8A1.8,1.8,0,0,1,98.72,98.89Z"/><path class="cls-1" d="M106.15,95.47a1.81,1.81,0,0,1-1.16-.41,1.84,1.84,0,0,1-.28-2.59,2.69,2.69,0,0,0,.77-2.51,1.76,1.76,0,0,0-1-.87,6.87,6.87,0,0,0-5,.44L86.66,95.11a1.84,1.84,0,0,1-1.47-3.38L98,86.15a10.47,10.47,0,0,1,7.81-.48,5.33,5.33,0,0,1,3.05,2.85c.82,1.94.35,4.23-1.29,6.26A1.83,1.83,0,0,1,106.15,95.47Z"/></g></g></svg>