<svg xmlns="http://www.w3.org/2000/svg" viewBox="0 0 112.94 119"><defs><style>.cls-1{fill:#fff;}</style></defs><g id="Layer_2" data-name="Layer 2"><g id="デザイン"><path class="cls-1" d="M7.54,119A7.56,7.56,0,0,1,0,111.46V7.54A7.56,7.56,0,0,1,7.54,0H72.22a7.57,7.57,0,0,1,7.47,6.56l.07.53.52-.1A27.53,27.53,0,1,1,85.4,61.58a26.91,26.91,0,0,1-4.3-.34l-.76-.13L79.75,61v50.46A7.55,7.55,0,0,1,72.21,119H7.54ZM4,111.46A3.53,3.53,0,0,0,7.54,115H72.22a3.52,3.52,0,0,0,3.51-3.51V101.13H4ZM4,97.11H75.73V59.84l-.31-.13a27.41,27.41,0,0,1-4.86-2.47l-.24-.15-9.86,4.83a2,2,0,0,1-.88.21,2,2,0,0,1-1.86-2.78l4.39-10.58L62,48.55a27.53,27.53,0,0,1-1.62-26l.32-.71H4ZM70.49,52.77a2,2,0,0,1,1.17.37A23.45,23.45,0,1,0,66,47.4a2,2,0,0,1,.21,1.92L63.47,56l6.14-3A2.06,2.06,0,0,1,70.49,52.77ZM7.54,4A3.54,3.54,0,0,0,4,7.53V17.87h59.1l.15-.2A27.65,27.65,0,0,1,75.42,8.39l.31-.13V7.54A3.54,3.54,0,0,0,72.22,4Zm17.79,79.2a4.51,4.51,0,0,1-4.4-5.52,23.74,23.74,0,0,1,2.45-6.36,21.56,21.56,0,0,1,4.08-5.18A18.87,18.87,0,0,1,33,62.62a17.11,17.11,0,0,1,13.13,0,18.69,18.69,0,0,1,5.49,3.53,21.16,21.16,0,0,1,4.09,5.18,23.81,23.81,0,0,1,2.45,6.35,4.52,4.52,0,0,1-4.4,5.53ZM39.52,65.33a13.2,13.2,0,0,0-5,1,14.62,14.62,0,0,0-4.31,2.78,17.3,17.3,0,0,0-3.31,4.2,19.51,19.51,0,0,0-2,5.27l-.14.62H54.34l-.13-.62a19.53,19.53,0,0,0-2-5.27,17.26,17.26,0,0,0-3.3-4.2,14.88,14.88,0,0,0-4.31-2.78A13.21,13.21,0,0,0,39.52,65.33Zm-.06-5.8a13,13,0,0,1-5.1-1,13.19,13.19,0,0,1,5.11-25.35,13.61,13.61,0,0,1,2.62.26,13.2,13.2,0,0,1-2.61,26.13Zm0-22.28a9.15,9.15,0,0,0-9.13,9.13h0a9.13,9.13,0,1,0,9.13-9.13Zm37,4.64a2,2,0,1,1,0-4H94.6a2,2,0,1,1,0,4Zm0-12a2,2,0,1,1,0-4H94.6a2,2,0,0,1,2,2A2,2,0,0,1,96,29.26a2,2,0,0,1-1.42.59ZM32.6,12.67a2,2,0,1,1,0-4H46.45a2,2,0,0,1,1.42.58,2,2,0,0,1,0,2.84,2,2,0,0,1-1.42.59Z"/></g></g></svg>