<svg xmlns="http://www.w3.org/2000/svg" viewBox="0 0 135.82 119"><defs><style>.cls-1,.cls-2{fill:#fff;}.cls-2{fill-rule:evenodd;}</style></defs><g id="Layer_2" data-name="Layer 2"><g id="デザイン"><path class="cls-1" d="M135.82,16l-7.51-.39-3.92-6.38-2.7,7L114.39,18l5.83,4.72-.59,7.48,6.31-4.1L132.87,29l-1.93-7.24Zm-7.34,7.6-3.65-1.5-3.3,2.14.31-3.92-3.06-2.47,3.83-.93L124,13.24l2.06,3.36,3.93.2-2.56,3Z"/><path class="cls-1" d="M24,72.3l-3.83-.19-2-3.26-1.38,3.57L13,73.33l3,2.4-.3,3.83,3.22-2.1,3.54,1.46-1-3.7Zm-3.75,3.88-1.86-.76-1.69,1.09.16-2-1.56-1.26,2-.48L18,70.89,19,72.61l2,.1-1.31,1.53Z"/><path class="cls-1" d="M15.43,57.61H10L6.92,53.13,5.22,58.3,0,59.84,4.39,63l-.15,5.44,4.41-3.2,5.12,1.81-1.66-5.17Zm-5,5.76-2.69-.95L5.39,64.1l.08-2.85-2.3-1.68,2.74-.81L6.8,56l1.61,2.35h2.86L9.52,60.66Z"/><path class="cls-2" d="M63.58,50.78A4,4,0,0,1,57,50.37l-1.23-1.92a1,1,0,0,0-1.09-.53l-.44.16-2.87,1-.45.15a1,1,0,0,0-.53,1.09l.21,2.28a4,4,0,0,1-4.94,4.36l-2.23-.48a.93.93,0,0,0-1.14.39l-.21.42L40.76,60l-.21.43a.94.94,0,0,0,.39,1.14L42.69,63a4,4,0,0,1-.4,6.58l-1.92,1.24a.94.94,0,0,0-.53,1.08l.15.45,1,2.86.15.45a1,1,0,0,0,1.08.53L44.49,76A4.05,4.05,0,0,1,48,77.34a4,4,0,0,1,.9,3.6l-.48,2.23a1,1,0,0,0,.39,1.14l.42.21,2.73,1.33.42.21a1,1,0,0,0,1.15-.4l1.46-1.75a4,4,0,0,1,6.57.41l1.24,1.91a.93.93,0,0,0,1.08.53l.45-.15,2.86-1,.45-.16c.45-.15.57-.61.53-1.08l-.21-2.27a4,4,0,0,1,4.94-4.37l2.23.49a1,1,0,0,0,1.14-.4l.21-.42,1.33-2.73.21-.42a.94.94,0,0,0-.4-1.14l-1.74-1.46a4,4,0,0,1,.4-6.58l1.92-1.23a1,1,0,0,0,.53-1.09l-.15-.45-1-2.86L77.38,59a1,1,0,0,0-1.08-.53l-2.27.2a4,4,0,0,1-4.37-4.93l.49-2.23a.94.94,0,0,0-.4-1.14l-.42-.21-2.72-1.33-.43-.2A1,1,0,0,0,65,49ZM50.31,68.05A9,9,0,1,1,60,76.3a9,9,0,0,1-9.66-8.25Z"/><path class="cls-2" d="M90.23,36.77A2.88,2.88,0,0,1,86,34.66l-.28-1.61c-.06-.33-.23-.63-.57-.65l-.34,0-2.17-.15-.33,0c-.34,0-.56.24-.66.57l-.5,1.55a2.89,2.89,0,0,1-1.85,1.92,2.92,2.92,0,0,1-2.64-.41l-1.33-.95a.7.7,0,0,0-.87-.06L74.2,35l-1.63,1.43-.26.22a.68.68,0,0,0-.06.87L73,39a2.9,2.9,0,0,1-2.11,4.23l-1.62.28c-.33.06-.63.23-.65.57l0,.33-.16,2.17,0,.34c0,.34.25.55.57.65l1.56.51a2.88,2.88,0,0,1,1.5,4.48l-.94,1.34a.69.69,0,0,0-.07.87l.23.25,1.42,1.64.23.26a.69.69,0,0,0,.86.06l1.46-.75a2.87,2.87,0,0,1,2.66,0,2.91,2.91,0,0,1,1.57,2.16L79.75,60c.06.33.23.63.57.66l.34,0,2.16.15.34,0c.34,0,.56-.24.66-.56l.5-1.56a2.87,2.87,0,0,1,1.85-1.92,2.91,2.91,0,0,1,2.63.41l1.34,1a.7.7,0,0,0,.87.06l.25-.22,1.64-1.43.26-.22a.69.69,0,0,0,.06-.87L92.47,54a2.88,2.88,0,0,1,2.11-4.23l1.61-.28c.34-.06.64-.24.66-.57l0-.34L97,46.42l0-.34c0-.33-.25-.55-.57-.65l-1.56-.5a2.89,2.89,0,0,1-1.5-4.49l.94-1.34a.67.67,0,0,0,.06-.86L94.2,38l-1.43-1.64-.22-.25a.66.66,0,0,0-.86-.06Zm-13.61,7.7a6.45,6.45,0,1,1,4.07,8.16,6.44,6.44,0,0,1-4.07-8.16Z"/><path class="cls-2" d="M91.71,59.59a1.78,1.78,0,0,1-2.91-.16l-.55-.84a.42.42,0,0,0-.48-.23l-.2.07-1.26.44-.2.08a.42.42,0,0,0-.23.48l.1,1a1.78,1.78,0,0,1-2.17,2l-1-.21a.44.44,0,0,0-.51.18l-.09.19-.57,1.2-.09.19c-.09.19,0,.37.18.51l.78.63a1.78,1.78,0,0,1,.67,1.5A1.75,1.75,0,0,1,82.37,68l-.84.55a.44.44,0,0,0-.23.49l.07.19.44,1.27.08.19c.06.2.27.25.48.23l1-.1a1.82,1.82,0,0,1,1.54.58,1.77,1.77,0,0,1,.4,1.59l-.2,1a.42.42,0,0,0,.18.5l.19.09,1.21.57.18.09a.4.4,0,0,0,.5-.17l.64-.78a1.78,1.78,0,0,1,2.91.15l.55.85a.45.45,0,0,0,.49.23l.19-.08L93.42,75l.19-.07c.2-.07.25-.27.23-.48l-.1-1a1.79,1.79,0,0,1,.58-1.54,1.77,1.77,0,0,1,1.59-.41l1,.2a.42.42,0,0,0,.51-.17l.09-.19.57-1.21.09-.19a.41.41,0,0,0-.17-.5l-.78-.64a1.77,1.77,0,0,1-.68-1.49,1.79,1.79,0,0,1,.83-1.42l.84-.55a.41.41,0,0,0,.23-.48l-.06-.2-.45-1.26-.07-.2a.43.43,0,0,0-.48-.23l-1,.1a1.77,1.77,0,0,1-2-2.16l.2-1a.41.41,0,0,0-.18-.5l-.19-.09L93,58.72l-.19-.09a.42.42,0,0,0-.5.18Zm-5.8,7.68a4,4,0,1,1,4.3,3.61,4,4,0,0,1-4.3-3.61Z"/><path class="cls-1" d="M36.78,119a7.56,7.56,0,0,1-7.54-7.54V7.54A7.56,7.56,0,0,1,36.78,0h64.68A7.55,7.55,0,0,1,109,7.54V111.46a7.55,7.55,0,0,1-7.53,7.54H36.78Zm-3.52-7.54A3.53,3.53,0,0,0,36.78,115h64.68a3.52,3.52,0,0,0,3.52-3.51V101.13H33.26Zm0-14.35H105V21.89H33.26ZM36.78,4a3.52,3.52,0,0,0-3.52,3.51V17.87H105V7.54A3.53,3.53,0,0,0,101.46,4Z"/><path class="cls-1" d="M62.35,12.67a2,2,0,0,1-1.42-.59,2,2,0,0,1,0-2.84,2,2,0,0,1,1.42-.58H76.19a2,2,0,1,1,0,4Z"/></g></g></svg>