<svg xmlns="http://www.w3.org/2000/svg" viewBox="0 0 77.24 59.48"><defs><style>.cls-1{fill:#00be5a;}</style></defs><g id="Layer_2" data-name="Layer 2"><g id="デザイン"><path class="cls-1" d="M32.68,31.41a8.06,8.06,0,0,1-4.18-1.17.9.9,0,1,1,.93-1.53,6.28,6.28,0,1,0-2.27-2.38.88.88,0,0,1-.36,1.21.89.89,0,0,1-1.22-.36,8.08,8.08,0,1,1,7.1,4.23Z"/><path class="cls-1" d="M19.48,31.87a.91.91,0,0,1-.78-.44,16.16,16.16,0,1,1,30.14-8.1,15.9,15.9,0,0,1-1.47,6.73.9.9,0,0,1-1.63-.75,14.12,14.12,0,0,0,1.3-6,14.36,14.36,0,1,0-26.79,7.2.89.89,0,0,1-.32,1.22A.92.92,0,0,1,19.48,31.87Z"/><path class="cls-1" d="M32.68,39.49a16,16,0,0,1-11.71-5,.9.9,0,0,1,1.3-1.24,14.38,14.38,0,0,0,14.54,3.88.9.9,0,1,1,.52,1.72A16.15,16.15,0,0,1,32.68,39.49Z"/><path class="cls-1" d="M20.93,53a3.61,3.61,0,0,1-1.79-.48,3.58,3.58,0,0,1-1.32-4.9l3-5.21a.9.9,0,0,1,1.56.9l-3,5.2a1.79,1.79,0,0,0,3.1,1.8l1.64-2.68a.9.9,0,1,1,1.53.94L24,51.19A3.57,3.57,0,0,1,20.93,53Z"/><path class="cls-1" d="M5.47,39.94A.82.82,0,0,1,5,39.82L.46,37.28A.88.88,0,0,1,0,36.51a.9.9,0,0,1,.45-.79l5.44-3.14a.89.89,0,0,1,.88,0l4.58,2.54a.91.91,0,0,1,.46.78.93.93,0,0,1-.45.79L5.92,39.82A.89.89,0,0,1,5.47,39.94ZM2.72,36.48,5.46,38l3.63-2.1L6.35,34.39Z"/><path class="cls-1" d="M5.38,45.17a.92.92,0,0,1-.45-.12.9.9,0,0,1-.44-.79L4.57,39A.92.92,0,0,1,5,38.26l5.44-3.14a.9.9,0,0,1,.91,0,.87.87,0,0,1,.44.78l-.09,5.24a.88.88,0,0,1-.45.76L5.83,45.05A.89.89,0,0,1,5.38,45.17Zm1-5.61L6.31,42.7l3.63-2.09L10,37.47Z"/><path class="cls-1" d="M3.14,41.28a.89.89,0,0,1-.45-1.67l29.53-17a.9.9,0,0,1,1.23.33.89.89,0,0,1-.33,1.22l-29.53,17A.92.92,0,0,1,3.14,41.28Z"/><path class="cls-1" d="M13.22,35.4a.9.9,0,0,1-.78-.45,23.34,23.34,0,1,1,42.64-5.06.9.9,0,1,1-1.72-.5,21.54,21.54,0,1,0-42.21-6.06A21.47,21.47,0,0,0,14,34.05a.9.9,0,0,1-.33,1.23A.92.92,0,0,1,13.22,35.4Z"/><path class="cls-1" d="M32.68,46.66A23.22,23.22,0,0,1,14.55,38a.9.9,0,1,1,1.39-1.13,21.57,21.57,0,0,0,21.33,7.5.9.9,0,1,1,.38,1.75A22.92,22.92,0,0,1,32.68,46.66Z"/><path class="cls-1" d="M73.83,59.48H42.37A3.42,3.42,0,0,1,39,56.06V34.26a.9.9,0,0,1,1.8,0v21.8a1.62,1.62,0,0,0,1.62,1.62H73.83a1.62,1.62,0,0,0,1.62-1.62V34.18a.9.9,0,1,1,1.79,0V56.06A3.42,3.42,0,0,1,73.83,59.48Z"/><path class="cls-1" d="M63.24,40H61.35a.9.9,0,1,1,0-1.79h1.89a.9.9,0,1,1,0,1.79Z"/><path class="cls-1" d="M71.63,40H69.74a.9.9,0,1,1,0-1.79h1.89a.9.9,0,0,1,0,1.79Z"/><path class="cls-1" d="M46.46,55.07H44.57a.9.9,0,1,1,0-1.79h1.89a.9.9,0,1,1,0,1.79Z"/><path class="cls-1" d="M54.85,55.07H53a.9.9,0,1,1,0-1.79h1.89a.9.9,0,1,1,0,1.79Z"/><path class="cls-1" d="M46.46,45H44.57a.9.9,0,0,1,0-1.8h1.89a.9.9,0,0,1,0,1.8Z"/><path class="cls-1" d="M54.85,45H53a.9.9,0,0,1,0-1.8h1.89a.9.9,0,0,1,0,1.8Z"/><path class="cls-1" d="M46.46,50H44.57a.9.9,0,1,1,0-1.79h1.89a.9.9,0,1,1,0,1.79Z"/><path class="cls-1" d="M54.85,50H53a.9.9,0,1,1,0-1.79h1.89a.9.9,0,1,1,0,1.79Z"/><path class="cls-1" d="M63.24,55.07H61.35a.9.9,0,1,1,0-1.79h1.89a.9.9,0,1,1,0,1.79Z"/><path class="cls-1" d="M63.24,45H61.35a.9.9,0,0,1,0-1.8h1.89a.9.9,0,0,1,0,1.8Z"/><path class="cls-1" d="M63.24,50H61.35a.9.9,0,1,1,0-1.79h1.89a.9.9,0,1,1,0,1.79Z"/><path class="cls-1" d="M71.63,45H69.74a.9.9,0,0,1,0-1.8h1.89a.9.9,0,0,1,0,1.8Z"/><path class="cls-1" d="M71.63,50H69.74a.9.9,0,1,1,0-1.79h1.89a.9.9,0,0,1,0,1.79Z"/><path class="cls-1" d="M77.24,35.57H39V32.15a3.42,3.42,0,0,1,3.42-3.41H73.83a3.41,3.41,0,0,1,3.41,3.41Zm-36.49-1.8h34.7V32.15a1.62,1.62,0,0,0-1.62-1.61H42.37a1.62,1.62,0,0,0-1.62,1.61Z"/><path class="cls-1" d="M45.52,31.79a.89.89,0,0,1-.9-.89V28.38a.9.9,0,1,1,1.79,0V30.9A.89.89,0,0,1,45.52,31.79Z"/><path class="cls-1" d="M48.66,31.79a.9.9,0,0,1-.9-.89V28.38a.9.9,0,1,1,1.8,0V30.9A.89.89,0,0,1,48.66,31.79Z"/><path class="cls-1" d="M67.54,31.79a.89.89,0,0,1-.9-.89V28.38a.9.9,0,1,1,1.79,0V30.9A.89.89,0,0,1,67.54,31.79Z"/><path class="cls-1" d="M70.68,31.79a.89.89,0,0,1-.89-.89V28.38a.9.9,0,1,1,1.79,0V30.9A.89.89,0,0,1,70.68,31.79Z"/></g></g></svg>