<svg xmlns="http://www.w3.org/2000/svg" viewBox="0 0 63 60.15"><defs><style>.cls-1{fill:#00be5a;}</style></defs><g id="Layer_2" data-name="Layer 2"><g id="デザイン"><path class="cls-1" d="M36,34.59H27a.77.77,0,0,1,0-1.54H36a.77.77,0,1,1,0,1.54Z"/><path class="cls-1" d="M18,52.56H8.44A8.44,8.44,0,0,1,0,44.12V22.4a.77.77,0,0,1,1.54,0V44.12A6.9,6.9,0,0,0,8.44,51H18a.77.77,0,1,1,0,1.54Z"/><path class="cls-1" d="M16.1,60a.78.78,0,0,1-.77-.77V51.79a.77.77,0,0,1,1.54,0v7.42A.77.77,0,0,1,16.1,60Z"/><path class="cls-1" d="M6.47,60a.77.77,0,0,1-.77-.77V51.79a.77.77,0,1,1,1.53,0v7.42A.77.77,0,0,1,6.47,60Z"/><path class="cls-1" d="M25.69,60.15a.78.78,0,0,1-.77-.69L23.25,44.28a3.65,3.65,0,0,0-3.52-2.66H13.55a.77.77,0,0,1-.77-.77V31.52a.77.77,0,0,1,1.54,0v8.56h5.41a5.21,5.21,0,0,1,5,3.86.36.36,0,0,1,0,.11l1.68,15.24a.76.76,0,0,1-.68.85Z"/><path class="cls-1" d="M21.21,60.15a.76.76,0,0,1-.75-.65L18.65,48.65H8.77a5,5,0,0,1-4.94-4.94V27.61a5.64,5.64,0,0,1,4-5.7l.17,0,4.05-.05s.09,0,.11,0a3,3,0,0,1,2.45,1.51L19,29.22h5.25a3.44,3.44,0,0,1,3.44,3.44v1.16a.76.76,0,0,1-.76.77H17.31a3.67,3.67,0,0,1-2.61-1.08l-4.25-4.26a.76.76,0,0,1,0-1.08.77.77,0,0,1,1.09,0l4.25,4.25a2.13,2.13,0,0,0,1.52.63H26.2v-.39a1.91,1.91,0,0,0-1.91-1.9H18.66a.77.77,0,0,1-.61-.31L13.4,24.27c-.61-.84-1-.86-1.33-.89l-3.94.05a4.14,4.14,0,0,0-2.76,4.18v16.1a3.41,3.41,0,0,0,3.4,3.4H19.3a.78.78,0,0,1,.76.64L22,59.25a.77.77,0,0,1-.63.89Z"/><path class="cls-1" d="M10.25,21.11c-3.1,0-5.62-2.81-5.62-6.27s2.52-6.28,5.62-6.28,5.63,2.82,5.63,6.28S13.35,21.11,10.25,21.11Zm0-11c-2.25,0-4.09,2.12-4.09,4.74S8,19.57,10.25,19.57s4.09-2.12,4.09-4.73S12.51,10.1,10.25,10.1Z"/><path class="cls-1" d="M54.56,52.56H45A.77.77,0,0,1,45,51h9.58a6.91,6.91,0,0,0,6.9-6.9V22.4a.77.77,0,0,1,1.54,0V44.12A8.45,8.45,0,0,1,54.56,52.56Z"/><path class="cls-1" d="M46.89,60a.78.78,0,0,1-.77-.77V51.79a.77.77,0,0,1,1.54,0v7.42A.77.77,0,0,1,46.89,60Z"/><path class="cls-1" d="M56.53,60a.78.78,0,0,1-.77-.77V51.79a.77.77,0,0,1,1.54,0v7.42A.77.77,0,0,1,56.53,60Z"/><path class="cls-1" d="M37.31,60.15h-.08a.75.75,0,0,1-.68-.85l1.68-15.24a.36.36,0,0,1,0-.11,5.2,5.2,0,0,1,5-3.86h5.42V31.52a.77.77,0,1,1,1.54,0v9.33a.78.78,0,0,1-.77.77H43.26a3.65,3.65,0,0,0-3.51,2.66L38.07,59.46A.76.76,0,0,1,37.31,60.15Z"/><path class="cls-1" d="M41.78,60.15h-.12a.78.78,0,0,1-.64-.89l1.92-11.5a.76.76,0,0,1,.76-.64H54.22a3.41,3.41,0,0,0,3.41-3.4V27.61a4.14,4.14,0,0,0-2.76-4.18l-4-.05c-.34,0-.7.05-1.3.88L45,30.45a.77.77,0,0,1-.61.31H38.71a1.91,1.91,0,0,0-1.91,1.9v.39h8.88a2.14,2.14,0,0,0,1.53-.63l4.25-4.25a.77.77,0,0,1,1.09,0,.76.76,0,0,1,0,1.08l-4.26,4.26a3.64,3.64,0,0,1-2.61,1.08H36a.77.77,0,0,1-.77-.77V32.66a3.45,3.45,0,0,1,3.45-3.44H44l4.42-5.87a3,3,0,0,1,2.45-1.5h.11l4,.05.17,0a5.65,5.65,0,0,1,4,5.7v16.1a4.94,4.94,0,0,1-4.94,4.94H44.35L42.54,59.5A.77.77,0,0,1,41.78,60.15Z"/><path class="cls-1" d="M52.74,21.11c-3.1,0-5.62-2.81-5.62-6.27s2.52-6.28,5.62-6.28,5.63,2.82,5.63,6.28S55.85,21.11,52.74,21.11Zm0-11c-2.25,0-4.09,2.12-4.09,4.74s1.84,4.73,4.09,4.73,4.09-2.12,4.09-4.73S55,10.1,52.74,10.1Z"/><path class="cls-1" d="M20.71,16.91a.8.8,0,0,1-.3-.06.76.76,0,0,1-.47-.71V13.07h-.45a1.87,1.87,0,0,1-1.86-1.86V1.86A1.86,1.86,0,0,1,19.49,0H32.68a1.86,1.86,0,0,1,1.86,1.86V5.38a.77.77,0,0,1-1.54,0V1.86a.32.32,0,0,0-.32-.32H19.49a.32.32,0,0,0-.32.32v9.35a.32.32,0,0,0,.32.32h1.22a.76.76,0,0,1,.76.77v2L24,11.76a.74.74,0,0,1,.54-.23h3.07a.77.77,0,0,1,0,1.54H24.87l-3.62,3.62A.79.79,0,0,1,20.71,16.91Z"/><path class="cls-1" d="M40.69,21.52a.79.79,0,0,1-.54-.22l-3.62-3.62H28.72a1.86,1.86,0,0,1-1.86-1.86V6.47a1.86,1.86,0,0,1,1.86-1.86H41.91a1.87,1.87,0,0,1,1.86,1.86v9.35a1.87,1.87,0,0,1-1.86,1.86h-.45v3.07a.77.77,0,0,1-.47.71A.8.8,0,0,1,40.69,21.52Zm-12-15.37a.32.32,0,0,0-.33.32v9.35a.32.32,0,0,0,.33.32h8.13a.74.74,0,0,1,.54.23l2.53,2.53v-2a.78.78,0,0,1,.77-.77h1.22a.32.32,0,0,0,.32-.32V6.47a.32.32,0,0,0-.32-.32Z"/></g></g></svg>