<svg xmlns="http://www.w3.org/2000/svg" viewBox="0 0 66.41 42.18"><defs><style>.cls-1{fill:#00be5a;}</style></defs><g id="Layer_2" data-name="Layer 2"><g id="デザイン"><path class="cls-1" d="M9,36.12a4.94,4.94,0,0,1,0-9.87,4.87,4.87,0,0,1,1.57.25.67.67,0,1,1-.42,1.28A3.75,3.75,0,0,0,9,27.59a3.59,3.59,0,1,0,3.59,3.59,2.55,2.55,0,0,0,0-.39.67.67,0,1,1,1.34-.14,4.58,4.58,0,0,1,0,.53A4.94,4.94,0,0,1,9,36.12Z"/><path class="cls-1" d="M9,33.56a.65.65,0,0,1-.47-.2L6.81,31.67a.66.66,0,0,1,0-1,.67.67,0,0,1,1,0l1.13,1.13,3.4-4.75a.65.65,0,0,1,.93-.16.67.67,0,0,1,.16.94l-3.86,5.4a.67.67,0,0,1-.49.28Z"/><path class="cls-1" d="M50.25,18a.89.89,0,0,1-.89-.9V2.69a.91.91,0,0,0-.9-.9H10.77a.9.9,0,0,0-.9.9V17.05a.9.9,0,1,1-1.79,0V2.69A2.69,2.69,0,0,1,10.77,0H48.46a2.7,2.7,0,0,1,2.69,2.69V17.05A.9.9,0,0,1,50.25,18Z"/><path class="cls-1" d="M32.31,30.51H17.05a.9.9,0,1,1,0-1.79H32.31a.9.9,0,0,1,0,1.79Z"/><path class="cls-1" d="M36.79,42.18H22.43a.89.89,0,0,1-.89-.9v-1.8a.9.9,0,0,1,.56-.83c.15-.06,3.87-1.74,3.92-9a.9.9,0,0,1,.9-.89h5.39a.9.9,0,0,1,0,1.79H27.8c-.3,6.27-3.22,8.73-4.47,9.51v.36H36.79a.9.9,0,0,1,0,1.8Z"/><path class="cls-1" d="M15.26,42.18H2.69A2.7,2.7,0,0,1,0,39.48V18.85a2.7,2.7,0,0,1,2.69-2.7H15.26A2.7,2.7,0,0,1,18,18.85V39.48A2.7,2.7,0,0,1,15.26,42.18ZM2.69,18a.9.9,0,0,0-.9.9V39.48a.9.9,0,0,0,.9.9H15.26a.89.89,0,0,0,.89-.9V18.85a.89.89,0,0,0-.89-.9Z"/><path class="cls-1" d="M62.82,42.18H32.31a3.59,3.59,0,0,1-3.59-3.59v-1.8a.89.89,0,0,1,.89-.89h35.9a.89.89,0,0,1,.9.89v1.8A3.59,3.59,0,0,1,62.82,42.18ZM30.51,37.69v.9a1.8,1.8,0,0,0,1.8,1.79H62.82a1.79,1.79,0,0,0,1.79-1.79v-.9Z"/><path class="cls-1" d="M62.82,37.69H32.31a.9.9,0,0,1-.9-.9V18.85a2.7,2.7,0,0,1,2.69-2.7H61a2.7,2.7,0,0,1,2.7,2.7V36.79A.9.9,0,0,1,62.82,37.69ZM33.2,35.9H61.92v-17A.9.9,0,0,0,61,18H34.1a.9.9,0,0,0-.9.9Z"/><path class="cls-1" d="M17.05,22.43H.9a.9.9,0,1,1,0-1.79H17.05a.9.9,0,1,1,0,1.79Z"/><path class="cls-1" d="M32.31,26H17.05a.9.9,0,1,1,0-1.79H32.31a.9.9,0,0,1,0,1.79Z"/><path class="cls-1" d="M38.59,23.33h-1.8a.9.9,0,0,1,0-1.79h1.8a.9.9,0,1,1,0,1.79Z"/><path class="cls-1" d="M38.59,27.82h-1.8a.9.9,0,0,1,0-1.8h1.8a.9.9,0,0,1,0,1.8Z"/><path class="cls-1" d="M38.59,32.31h-1.8a.9.9,0,0,1,0-1.8h1.8a.9.9,0,0,1,0,1.8Z"/><path class="cls-1" d="M58.33,23.33H43.08a.9.9,0,1,1,0-1.79H58.33a.9.9,0,1,1,0,1.79Z"/><path class="cls-1" d="M53.84,27.82H43.08a.9.9,0,1,1,0-1.8H53.84a.9.9,0,0,1,0,1.8Z"/><path class="cls-1" d="M48.46,32.31H43.08a.9.9,0,1,1,0-1.8h5.38a.9.9,0,0,1,0,1.8Z"/><path class="cls-1" d="M23.66,17.34a.93.93,0,0,1-.53-.17L16,12.05a.9.9,0,1,1,1-1.46l6.51,4.65,7.64-8.59a.88.88,0,0,1,1.19-.14l7.21,5.09,5.25-5.5a.9.9,0,0,1,1.3,1.24L40.32,13.4a.9.9,0,0,1-1.17.12L32,8.44,24.33,17A.94.94,0,0,1,23.66,17.34Z"/><path class="cls-1" d="M45.46,11.62a.9.9,0,0,1-.9-.9V7.62H41.45a.9.9,0,0,1,0-1.8h4a.9.9,0,0,1,.9.9v4A.9.9,0,0,1,45.46,11.62Z"/></g></g></svg>