<svg xmlns="http://www.w3.org/2000/svg" viewBox="0 0 61.13 53.8"><defs><style>.cls-1{fill:#00be5a;}</style></defs><g id="Layer_2" data-name="Layer 2"><g id="デザイン"><path class="cls-1" d="M60.31,30.12a.83.83,0,0,1-.83-.82V23.52c0-4.31-3-7.44-7.06-7.44H47.55a.83.83,0,1,1,0-1.65h4.87c5,0,8.71,3.91,8.71,9.09V29.3A.82.82,0,0,1,60.31,30.12Z"/><path class="cls-1" d="M49.55,12.78c-3,0-5-2.32-5-5.78s2-5.78,5-5.78,5,2.32,5,5.78S52.51,12.78,49.55,12.78Zm0-9.91c-2.44,0-3.3,2.13-3.3,4.13s.86,4.13,3.3,4.13S52.85,9,52.85,7,52,2.87,49.55,2.87Z"/><path class="cls-1" d="M56.16,30.12a.83.83,0,0,1-.83-.82V25.17a.83.83,0,0,1,.83-.83H57A.83.83,0,1,1,57,26V29.3A.82.82,0,0,1,56.16,30.12Z"/><path class="cls-1" d="M12.4,30.12a.82.82,0,0,1-.82-.82V23.52c0-5.18,3.75-9.09,8.71-9.09h4.87a.83.83,0,1,1,0,1.65H20.29c-4.09,0-7.06,3.13-7.06,7.44V29.3A.83.83,0,0,1,12.4,30.12Z"/><path class="cls-1" d="M23.16,12.78c-3,0-4.95-2.32-4.95-5.78s2-5.78,4.95-5.78,5,2.32,5,5.78S26.13,12.78,23.16,12.78Zm0-9.91c-2.43,0-3.3,2.13-3.3,4.13s.87,4.13,3.3,4.13S26.47,9,26.47,7,25.6,2.87,23.16,2.87Z"/><path class="cls-1" d="M16.56,30.12a.83.83,0,0,1-.83-.82V26a.83.83,0,1,1,0-1.65h.83a.83.83,0,0,1,.82.83V29.3A.82.82,0,0,1,16.56,30.12Z"/><path class="cls-1" d="M47.1,29.73a.83.83,0,0,1-.83-.82V22.3c0-4.31-3-7.43-7.06-7.43h-5.7c-4.09,0-7.06,3.12-7.06,7.43v6.61a.83.83,0,0,1-1.65,0V22.3c0-5.18,3.74-9.09,8.71-9.09h5.7c5,0,8.71,3.91,8.71,9.09v6.61A.82.82,0,0,1,47.1,29.73Z"/><path class="cls-1" d="M36.38,11.56c-3,0-5-2.32-5-5.78s2-5.78,5-5.78,5,2.32,5,5.78S39.35,11.56,36.38,11.56Zm0-9.91c-2.43,0-3.3,2.14-3.3,4.13s.87,4.13,3.3,4.13,3.31-2.13,3.31-4.13S38.82,1.65,36.38,1.65Z"/><path class="cls-1" d="M29.77,29.73a.82.82,0,0,1-.82-.82V24.78a.83.83,0,0,1-.83-.83.82.82,0,0,1,.83-.82h.82a.82.82,0,0,1,.83.82v5A.83.83,0,0,1,29.77,29.73Z"/><path class="cls-1" d="M43,29.73a.83.83,0,0,1-.83-.82V24a.82.82,0,0,1,.83-.82h.83a.82.82,0,0,1,.82.82.83.83,0,0,1-.82.83v4.13A.83.83,0,0,1,43,29.73Z"/><path class="cls-1" d="M36.5,53.42a49.81,49.81,0,0,1-13.18-1.71c-8.27-2.38-11.74-1-11.77-1a.83.83,0,0,1-1.08-.43.81.81,0,0,1,.41-1.08c.16-.07,3.94-1.7,12.91.87,6.56,1.94,25.74,4.45,35.6-7l0,0c-.34-.37-1.94-.88-4.4.14a17.22,17.22,0,0,0-2.44,1.12,14.83,14.83,0,0,1-8.85,2.11.82.82,0,1,1,.11-1.64,13.33,13.33,0,0,0,8-1.93,18.29,18.29,0,0,1,2.63-1.21c3.11-1.29,5.65-.66,6.43.6a1.5,1.5,0,0,1-.26,2C54.37,51.43,44.72,53.42,36.5,53.42Z"/><path class="cls-1" d="M36.43,47.79c-3.91,0-6.93-.78-9-2.34a.83.83,0,1,1,1-1.32c2.51,1.87,7,2.44,12.83,1.66,1.12-.15,1.85-.56,2.1-1.19A1.64,1.64,0,0,0,43.06,43c-.16-.18-.34-.3-.45-.28s-.29,0-.65.06c-2,.17-6.53.57-8.21-1.88-5.91-7-9.9-6.77-12-6.62-.3,0-.56,0-.79,0a5.91,5.91,0,0,0-3.16.79,15.11,15.11,0,0,1-6.6,1.64.84.84,0,0,1-.89-.77.83.83,0,0,1,.77-.88,13.52,13.52,0,0,0,6-1.47,7.57,7.57,0,0,1,3.89-1c.19,0,.42,0,.67,0,2.27-.15,7-.48,13.45,7.24l.06.07c1.12,1.68,5.33,1.31,6.71,1.19l.58,0a2.14,2.14,0,0,1,1.94.86,3.29,3.29,0,0,1,.54,3.22c-.28.7-1.09,1.91-3.43,2.23A38.07,38.07,0,0,1,36.43,47.79Z"/><path class="cls-1" d="M10.73,53.8H.83a.83.83,0,1,1,0-1.65H9.91V34H.83a.83.83,0,1,1,0-1.65h9.9a.83.83,0,0,1,.83.82V53A.83.83,0,0,1,10.73,53.8Z"/><path class="cls-1" d="M44.26,44.33a.83.83,0,0,1-.76-.49.84.84,0,0,1,.42-1.09l8.2-3.6a4.69,4.69,0,0,1,3.5-.22A2.4,2.4,0,0,1,57,40.21a2.46,2.46,0,0,1-.1,2,.82.82,0,1,1-1.49-.69,1,1,0,0,0,.07-.69.81.81,0,0,0-.46-.4,3.13,3.13,0,0,0-2.23.2l-8.19,3.6A.78.78,0,0,1,44.26,44.33Z"/><path class="cls-1" d="M47.59,42.8a.84.84,0,0,1-.52-.18A.83.83,0,0,1,47,41.46a1.23,1.23,0,0,0,.34-1.13.83.83,0,0,0-.46-.39,3.08,3.08,0,0,0-2.23.2l-5.75,2.5a.82.82,0,0,1-1.08-.43.83.83,0,0,1,.42-1.09l5.75-2.5a4.73,4.73,0,0,1,3.5-.21,2.4,2.4,0,0,1,1.37,1.28,2.72,2.72,0,0,1-.58,2.8A.79.79,0,0,1,47.59,42.8Z"/></g></g></svg>