<svg xmlns="http://www.w3.org/2000/svg" viewBox="0 0 66.68 59.09"><defs><style>.cls-1{fill:#00be5a;}</style></defs><g id="Layer_2" data-name="Layer 2"><g id="デザイン"><path class="cls-1" d="M29.53,30.73a.89.89,0,0,1-.89-.9V10.56a.89.89,0,0,1,.89-.89h7.25a.9.9,0,1,1,0,1.79H30.43V29.83A.9.9,0,0,1,29.53,30.73Z"/><path class="cls-1" d="M61.76,49.32H36.82a.9.9,0,1,1,0-1.79h24V11.46H54.5a.9.9,0,0,1,0-1.79h7.26a.89.89,0,0,1,.89.89V48.43A.89.89,0,0,1,61.76,49.32Z"/><path class="cls-1" d="M25.51,29.49a.89.89,0,0,1-.9-.89V8.15a2.51,2.51,0,0,1,2.51-2.51h9.66a.9.9,0,1,1,0,1.79H27.12a.72.72,0,0,0-.72.72V28.6A.89.89,0,0,1,25.51,29.49Z"/><path class="cls-1" d="M64.17,53.35H34.58a.9.9,0,0,1,0-1.79H64.17a.72.72,0,0,0,.72-.72V8.15a.72.72,0,0,0-.72-.72H54.5a.9.9,0,0,1,0-1.79h9.67a2.51,2.51,0,0,1,2.51,2.51V50.84A2.51,2.51,0,0,1,64.17,53.35Z"/><path class="cls-1" d="M54.5,11.46H36.78a.89.89,0,0,1-.89-.9V4.93a2.5,2.5,0,0,1,2.5-2.51H41.9a4.1,4.1,0,0,1,7.48,0h3.51A2.51,2.51,0,0,1,55.4,4.93v5.63A.9.9,0,0,1,54.5,11.46ZM37.68,9.67H53.61V4.93a.72.72,0,0,0-.72-.72H48.75a.91.91,0,0,1-.87-.67,2.31,2.31,0,0,0-4.48,0,.9.9,0,0,1-.86.67H38.39a.71.71,0,0,0-.71.72Z"/><path class="cls-1" d="M55.81,19.78H42.92a.9.9,0,0,1,0-1.8H55.81a.9.9,0,1,1,0,1.8Z"/><path class="cls-1" d="M36.65,21.39a.91.91,0,0,1-.61-.23l-1.77-1.62a.89.89,0,0,1-.07-1.26.9.9,0,0,1,1.27-.07l1,.93,1.67-2.38a.89.89,0,1,1,1.47,1L37.38,21a.88.88,0,0,1-.63.38Z"/><path class="cls-1" d="M55.81,30.89H42.92a.9.9,0,0,1,0-1.79H55.81a.9.9,0,1,1,0,1.79Z"/><path class="cls-1" d="M36.65,32.5a.91.91,0,0,1-.61-.23l-1.77-1.61a.9.9,0,1,1,1.2-1.33l1,.93,1.67-2.39a.9.9,0,0,1,1.47,1l-2.25,3.22a.92.92,0,0,1-.63.38Z"/><path class="cls-1" d="M55.81,42H42.92a.9.9,0,0,1,0-1.8H55.81a.9.9,0,0,1,0,1.8Z"/><path class="cls-1" d="M22,59.09A15.76,15.76,0,0,1,10.17,53.8a.9.9,0,0,1,1.35-1.19,13.92,13.92,0,1,0-1.68-2.33.9.9,0,0,1-1.56.9A15.76,15.76,0,1,1,22,59.09Z"/><path class="cls-1" d="M22,49a5.59,5.59,0,0,1-2.47-.57.9.9,0,1,1,.79-1.61,3.85,3.85,0,1,0-1.71-1.64A.9.9,0,1,1,17,46a5.72,5.72,0,0,1-.68-2.7A5.66,5.66,0,1,1,22,49Z"/><path class="cls-1" d="M22,54.34a11,11,0,0,1-7.51-3,.9.9,0,0,1,1.23-1.32A9.1,9.1,0,1,0,14,48a.88.88,0,0,1-.32,1.22.9.9,0,0,1-1.23-.32A11,11,0,1,1,22,54.34Z"/><path class="cls-1" d="M3.93,54.64a.88.88,0,0,1-.44-.12l-3-1.68A.88.88,0,0,1,0,52.07a.9.9,0,0,1,.45-.79l3.6-2.08a.91.91,0,0,1,.89,0l3,1.68a.9.9,0,0,1,0,1.57l-3.6,2.08A.92.92,0,0,1,3.93,54.64ZM2.72,52l1.2.67,1.79-1L4.51,51Z"/><path class="cls-1" d="M3.87,58.1A1,1,0,0,1,3.41,58,.93.93,0,0,1,3,57.19L3,53.73A.93.93,0,0,1,3.48,53l3.6-2.08a.9.9,0,0,1,.91,0,.89.89,0,0,1,.44.78l-.06,3.47a.87.87,0,0,1-.45.76L4.32,58A.89.89,0,0,1,3.87,58.1Zm1-3.84,0,1.38,1.79-1,0-1.37Z"/><path class="cls-1" d="M2.38,55.53a.87.87,0,0,1-.77-.45.91.91,0,0,1,.32-1.23L21.5,42.56a.9.9,0,0,1,.9,1.55L2.83,55.41A.89.89,0,0,1,2.38,55.53Z"/></g></g></svg>