<svg xmlns="http://www.w3.org/2000/svg" viewBox="0 0 455.71 211.07"><defs><style>.cls-1{fill:#fff;}.cls-2{fill:#00be5a;}.cls-3{isolation:isolate;}.cls-4{fill:none;stroke:#00be5a;stroke-miterlimit:10;stroke-width:3px;}</style></defs><g id="Layer_2" data-name="Layer 2"><g id="デザイン"><rect class="cls-1" width="455.71" height="211.07" rx="17.29"/><path class="cls-2" d="M41.31,32.88H46V48.33h7.51v3.9H41.31Z"/><path class="cls-2" d="M57.87,32.88h4.65V52.23H57.87Z"/><path class="cls-2" d="M68,32.88h4.73l4.81,9.26,1.9,4.29h.13A61.15,61.15,0,0,1,79,39.28v-6.4h4.42V52.23H78.64l-4.78-9.34L72,38.65h-.13c.21,2.16.6,4.81.6,7.15v6.43H68Z"/><path class="cls-2" d="M88.91,32.88h12.27v3.85H93.56v3.59H100v3.9H93.56v4.11h7.91v3.9H88.91Z"/><path class="cls-2" d="M115.79,31.71a31.48,31.48,0,0,1-7,10.58,25.63,25.63,0,0,0-3.7-2.83,20.83,20.83,0,0,0,6.3-9ZM123,43.59a55,55,0,0,1,5.8,9.16l-3.95,2.08a20.41,20.41,0,0,0-.94-2c-6.11.44-12.48.8-17.05,1.06l-.5-4c1.09,0,2.34-.08,3.67-.16a55.59,55.59,0,0,0,4.21-10.16l4.55,1.09a80.85,80.85,0,0,1-4.39,8.89c2.39-.1,4.94-.23,7.46-.36-.83-1.35-1.72-2.71-2.55-3.88Zm-.44-13A33,33,0,0,0,129.16,39a18.34,18.34,0,0,0-3.2,3.33,54.59,54.59,0,0,1-7.2-10.25Z"/><path class="cls-2" d="M140.73,48.92c1.48-.23,3-.46,4.47-.72l.26,3.35c-4.19.88-8.71,1.77-12.12,2.44l-1-3.82c1.27-.15,2.89-.39,4.63-.65V44h-3.54V40.34h11.13V44h-3.82Zm8.4-11.05c.49,7,1.84,12.85,3.38,12.85.46,0,.75-1.41.88-4.58a10.08,10.08,0,0,0,3.3,2.21c-.54,5.2-1.79,6.35-4.52,6.35-4.6,0-6.45-7.83-7-16.83H132.41V34.18H145c0-1.35-.06-2.73-.06-4.08H149c-.06,1.35-.06,2.73,0,4.08h3.3A20.6,20.6,0,0,0,149.75,32l2.5-2.06a20.17,20.17,0,0,1,3.25,2.73l-1.82,1.56h2.26v3.69Z"/><path class="cls-2" d="M182.41,34.62c-.31.39-.91,1.15-1.17,1.56a27.23,27.23,0,0,1-6.14,7.13l-3.25-2.6a14.15,14.15,0,0,0,4.29-4.29H163.3a31.44,31.44,0,0,0-3.31.21V32.28a22.15,22.15,0,0,0,3.31.29h13.49a17.59,17.59,0,0,0,3.12-.26Zm-10.72,3.54c0,6.11.13,11.73-7.2,15.81l-3.66-3a10.08,10.08,0,0,0,3-1.59c2.89-2.18,3.54-4.39,3.54-8.63a15.44,15.44,0,0,0-.21-2.6Z"/><path class="cls-2" d="M205.34,36.81a11.35,11.35,0,0,0-.18,1.43c-.11,3-.45,10.09-1.54,12.82A3.46,3.46,0,0,1,200,53.29c-1.61,0-3.17-.13-4.39-.23l-.49-4.21a20.65,20.65,0,0,0,3.53.39,1.28,1.28,0,0,0,1.43-1c.63-1.43,1-6,1-8.78H196c-.94,6.57-3.3,10.71-8.11,14.17l-3.67-3a16.5,16.5,0,0,0,3.85-2.88,14.24,14.24,0,0,0,3.82-8.32h-2.94c-.8,0-2.47,0-3.66.13V35.51c1.19.13,2.67.21,3.66.21h3.25c0-.68,0-1.36,0-2.06a22.33,22.33,0,0,0-.21-2.52h4.63c-.08.62-.16,1.82-.18,2.44s-.06,1.46-.11,2.14h4.16a12.91,12.91,0,0,0,2.16-.21Z"/><path class="cls-2" d="M232,36.5a21.25,21.25,0,0,0-.57,2.34A24.07,24.07,0,0,1,229.05,46,16.7,16.7,0,0,1,218.26,54L215,50.22A22.49,22.49,0,0,0,219.22,49a12.53,12.53,0,0,0,5.26-4,14.14,14.14,0,0,0,2.21-6.19h-12v3.33a20.57,20.57,0,0,0,.1,2.13h-4.34a24.57,24.57,0,0,0,.13-2.47V37.38a19.35,19.35,0,0,0-.13-2.37,22.74,22.74,0,0,0,2.78.13h5.44V33.4a13.73,13.73,0,0,0-.24-2.65h4.87a18.6,18.6,0,0,0-.21,2.65v1.74h3.79a7.11,7.11,0,0,0,2.37-.31Z"/><path class="cls-2" d="M245.35,46.14a25.06,25.06,0,0,0,9.93-10.4l2.45,4.45A28.09,28.09,0,0,1,247.61,50a27.73,27.73,0,0,1-9.3,3.43l-2.68-4.16A26.8,26.8,0,0,0,245.35,46.14Zm.89-8.5L243,40.94a53.71,53.71,0,0,0-6.52-5.69l3-3.2A52.9,52.9,0,0,1,246.24,37.64Z"/><path class="cls-2" d="M277.28,46.66a81.82,81.82,0,0,0-8.94-3.72v6.69c0,.7.15,2.75.28,3.92h-4.94a29.57,29.57,0,0,0,.32-3.92V34.78a18,18,0,0,0-.32-3.38h4.92a29.49,29.49,0,0,0-.26,3.38v3.56a86.63,86.63,0,0,1,10.74,3.93Z"/><path class="cls-2" d="M293.79,49.83a18.73,18.73,0,0,0,2.52-.46c3.28-.81,5.46-3.1,5.46-6.48s-1.61-5.69-4.57-6.39a54.26,54.26,0,0,1-1.51,6.7c-1.53,5.15-3.85,8.61-6.89,8.61s-5.62-3.46-5.62-7.85c0-6.11,5.28-11.31,12.17-11.31,6.55,0,10.71,4.52,10.71,10.37,0,5.41-3.19,9.39-9.9,10.51ZM293,36.57a7.68,7.68,0,0,0-5.72,7c0,2.24.78,3.41,1.66,3.41,1,0,1.82-1.56,2.73-4.55A36.4,36.4,0,0,0,293,36.57Z"/><path class="cls-2" d="M330.63,50.12c0,2.13-.49,3.2-1.82,3.82s-3.27.73-5.92.73a15.68,15.68,0,0,0-1.56-4c1.66.13,3.84.11,4.47.11s.8-.21.8-.73v-3H316.23a13.82,13.82,0,0,1-4.37,7.62A14.41,14.41,0,0,0,308.92,52c3.83-3.18,4.14-8,4.14-11.91V31.14h17.57Zm-4-6.71V40.92H317c0,.78-.08,1.63-.16,2.49ZM317,34.83v2.5h9.64v-2.5Z"/><path class="cls-2" d="M359.94,49.37h-8.79l2.73,1.79a18.82,18.82,0,0,1-5.62,3.51c-.39-.44-1-1.07-1.56-1.61v.15h-5.64v1h-3.15V47.62l-.15.06a12,12,0,0,0-1.9-2.71,15.91,15.91,0,0,0,4.37-2.26l-1.3-.88q-.39.3-.78.57a17.59,17.59,0,0,0-2.34-2.21A11.42,11.42,0,0,0,340.62,35l3,.78c-.16.34-.31.68-.47,1h1.87l.55-.13,2.13,1a16.42,16.42,0,0,1-2.57,4.73c1.3.84,2.49,1.67,3.33,2.29l-1.8,2.26V52a16.62,16.62,0,0,0,4.06-2.6h-2V35.46H352c.08-.45.16-.91.21-1.36h-4v2.42h-3.12V34.94h-5.61v1.58h-3V32.05h4.05V30.1H344v1.95h4.08V30.91h12.3V34.1h-4.23l-.55,1.36h4.32Zm-16.44-.65h-2.44v1.66h2.44Zm-1.95-9.52c-.13.18-.28.34-.41.49l1.38.89a16.8,16.8,0,0,0,1-1.38Zm3.12,6.68c-.54-.41-1.14-.83-1.76-1.27-.55.44-1.12.88-1.72,1.27Zm11.7-7.67h-4.21V39.3h4.21Zm0,3.64h-4.21v1.09h4.21Zm0,3.67h-4.21v1.09h4.21Zm.81,3.85a36.48,36.48,0,0,1,4.13,3.43l-2.91,1.9a32,32,0,0,0-3.95-3.62Z"/><path class="cls-2" d="M385.16,47.75v6.92h-3.54V48.4l-6.81,1.23-.52-3.25-2.13,2.75c-.34-.75-.89-1.74-1.46-2.73v8.22h-3.48v-8.4a27.18,27.18,0,0,1-2.66,5.88,24.55,24.55,0,0,0-1.66-4,21.86,21.86,0,0,0,3.09-6h-2.57V38.63h3.8V30.15h3.48v7.28a49.93,49.93,0,0,0,1.22-6.08l3.15.65c-.68,2.18-1.43,4.68-2.06,6.24l-2.31-.6v1h3.61v3.51H370.7v.1a50.36,50.36,0,0,1,3.61,3.82l7.31-1.3V30h3.54V44.14l2.44-.44.55,3.51ZM364.3,38.39a26.24,26.24,0,0,0-1-6.21l2.6-.68a27.82,27.82,0,0,1,1.23,6.17Zm11.81-.83a21.8,21.8,0,0,1,4.39,3l-1.9,3a22.42,22.42,0,0,0-4.26-3.35Zm3.35-.44a20.62,20.62,0,0,0-4-3.41l1.82-2.54a20.6,20.6,0,0,1,4.16,3.12Z"/><path class="cls-2" d="M410.92,47.21c-.91,1.27-1.82,2.6-2.6,3.59h5.31V54h-22V50.8h4.66a21.3,21.3,0,0,0-1.95-3.7l1.92-.8H393V43.07h7.44V41h-4.48V39.85a35.3,35.3,0,0,1-3.63,2.26A15.24,15.24,0,0,0,389.94,39a26.8,26.8,0,0,0,10.43-9.15h3.95a24.75,24.75,0,0,0,11,8.84,19.25,19.25,0,0,0-2.49,3.41,36.12,36.12,0,0,1-3.77-2.37V41h-4.63v2.08H412V46.3H408.4Zm-13.23-.91a16.41,16.41,0,0,1,2,3.66l-1.9.84h2.6V46.3Zm8.76-8.58a25.89,25.89,0,0,1-3.95-4.14,23.89,23.89,0,0,1-3.85,4.14Zm-2,8.58v4.5h1.92L405,50.22a23.7,23.7,0,0,0,2.16-3.92Z"/><g class="cls-3"><path d="M141,181.27l4.63-4.63.4.41-4.62,4.62L146,186.3l-.4.4L141,182.08l-4.63,4.64-.41-.41,4.64-4.64L136,177.05l.4-.41Zm-2.94.4a1.05,1.05,0,0,1-2.1,0,1.05,1.05,0,0,1,2.1,0Zm2.94-2.94a1,1,0,1,1,1.05-1A1.06,1.06,0,0,1,141,178.73Zm0,5.89a1,1,0,0,1,1.05,1,1.05,1.05,0,1,1-1.05-1Zm2.95-3a1.05,1.05,0,1,1,1.05,1.05A1.06,1.06,0,0,1,143.92,181.67Z"/><path d="M149.93,176.73h1.3v9.16h4.49V187h-5.79Z"/><path d="M158.08,176.73h1.3V187h-1.3Z"/><path d="M162.74,176.73h1.35l3.74,6.47,1.09,2.12H169c-.07-1-.17-2.19-.17-3.25v-5.34h1.23V187h-1.33L165,180.51l-1.1-2.11h-.06c.06,1,.15,2.12.15,3.2V187h-1.23Z"/><path d="M173.41,176.73h5.93v1.09h-4.63V181h3.9v1.11h-3.9v3.74h4.78V187h-6.08Z"/><path d="M186.61,184c-.36-.41-1.13-1.19-1.76-1.78v5.8h-1v-5.42a13.91,13.91,0,0,1-2.15,1.74,4.72,4.72,0,0,0-.54-.94,12.21,12.21,0,0,0,4.38-4.6h-3.89v-1h2.2v-2.6h1v2.6h1.22l.18,0,.59.39a12.92,12.92,0,0,1-1.81,3c.65.52,1.88,1.6,2.23,1.91Zm7.72,2.61v1h-7.84v-1H190v-5.82h-3v-1h3v-4.44h1v4.44h3v1h-3v5.82Z"/><path d="M199,176.49c-.09.24-.21.69-.27.94a32.46,32.46,0,0,0-.67,5.31,15.13,15.13,0,0,0,.11,1.9c.24-.63.55-1.44.77-2l.6.45c-.34,1-.85,2.45-1,3.11a3.68,3.68,0,0,0-.07.62l.05.49-1,.07a17.36,17.36,0,0,1-.51-4.46,38.34,38.34,0,0,1,.62-5.56,8.57,8.57,0,0,0,.1-1Zm3.16,6.72a5.51,5.51,0,0,0-.18,1.28c0,.63.42,1.25,2.33,1.25a15.22,15.22,0,0,0,3.43-.37v1.18a18.19,18.19,0,0,1-3.46.28c-2.32,0-3.36-.77-3.36-2.08a7.69,7.69,0,0,1,.23-1.63Zm-.54-5.66a23.62,23.62,0,0,0,5.7,0v1.15a33.78,33.78,0,0,1-5.69,0Z"/><path d="M214.68,181.66a10.15,10.15,0,0,1,3-.5c2,0,3.48,1.1,3.48,2.75s-1,2.75-3,3.21a8.51,8.51,0,0,1-1.71.18l-.39-1.1a8.21,8.21,0,0,0,1.63-.1c1.21-.22,2.32-.88,2.32-2.17s-1.06-1.81-2.38-1.81a8.9,8.9,0,0,0-3,.55c0,1.17.05,2.39.05,3,0,1.29-.49,1.7-1.23,1.7-1.09,0-2.9-1.05-2.9-2.3s1.44-2.34,3-3v-.79c0-.56,0-1.2,0-1.82-.38,0-.73,0-1,0a16.16,16.16,0,0,1-1.76-.07l0-1.06a12.26,12.26,0,0,0,1.76.11c.33,0,.69,0,1.07,0,0-.73,0-1.33,0-1.58a5,5,0,0,0-.09-1h1.22c0,.25,0,.63-.07,1s0,.88,0,1.5a18.3,18.3,0,0,0,2.84-.56l0,1.1a26,26,0,0,1-2.89.48c0,.66,0,1.32,0,1.88Zm-1,3.87c0-.51,0-1.45,0-2.46-1.13.54-2,1.32-2,2s1,1.18,1.5,1.18C213.55,186.2,213.72,186,213.72,185.53Zm5.46-8.16a24.15,24.15,0,0,1,3.17,2l-.56.9a17.71,17.71,0,0,0-3.11-2.07Z"/><path d="M235,181a9.87,9.87,0,0,1-3.66,4.51,15.67,15.67,0,0,0,5.44,1.64,4,4,0,0,0-.66,1,15.41,15.41,0,0,1-5.79-2,18.78,18.78,0,0,1-5.81,1.95,3.32,3.32,0,0,0-.56-1,18.68,18.68,0,0,0,5.44-1.63,10.16,10.16,0,0,1-2.9-3.55l.84-.3h-2.22v-1h4.68v-2.16h-5.31v-1h5.31v-2.12h1.07v2.12h5.33v1H230.9v2.16h3.22l.19,0Zm-7.54.63a8.79,8.79,0,0,0,2.92,3.29,8.3,8.3,0,0,0,3.12-3.29Z"/><path d="M244.13,182.23l-2.26.59v4c0,.64-.14.93-.55,1.1a6.58,6.58,0,0,1-2.11.18,4.87,4.87,0,0,0-.32-1c.75,0,1.48,0,1.69,0s.3-.07.3-.3v-3.7c-.79.19-1.53.39-2.18.56l-.25-1c.66-.14,1.5-.34,2.43-.56v-3h-2.23v-1h2.23v-2.86h1v2.86h2v1h-2v2.73l2.16-.54Zm6.37,5.83c-.1-.36-.23-.8-.39-1.25-2.65.37-5.45.73-7.37,1l-.22-1.08c.42,0,.89-.08,1.41-.15a90.14,90.14,0,0,0,2.48-10.89l1.12.2c-.63,3.36-1.63,7.61-2.52,10.58l4.73-.55a27.6,27.6,0,0,0-1.86-3.78l.88-.35a26.47,26.47,0,0,1,2.72,5.89Z"/><path d="M255.32,178.59c0,.87,0,2.14.1,3.28.23,2.32.9,3.85,1.88,3.85.71,0,1.36-1.43,1.72-2.83l.89,1c-.83,2.35-1.69,3.15-2.64,3.15-1.3,0-2.56-1.3-2.94-4.9a36.73,36.73,0,0,1-.15-3.7,7.35,7.35,0,0,0-.09-1.23l1.35,0C255.38,177.58,255.34,178.23,255.32,178.59Zm9.78,5.83-1.13.45a13.73,13.73,0,0,0-2.4-6.87l1.09-.38A14.24,14.24,0,0,1,265.1,184.42Z"/><path d="M274.21,178.7c0,.79,0,1.64,0,2.27a3.36,3.36,0,0,1,.45,1.78c0,1.88-.91,4-4.13,4.93l-1-.94c1.82-.42,3.11-1.17,3.68-2.41a1.94,1.94,0,0,1-1.18.35,2.23,2.23,0,0,1-2.3-2.32,2.43,2.43,0,0,1,2.45-2.42,2.69,2.69,0,0,1,.92.15c0-.41,0-.9,0-1.37-2.1,0-4.46.11-6.19.24l0-1.1c1.54,0,4.15-.11,6.21-.14,0-.39,0-.71,0-.91s-.06-.7-.09-.87h1.28l-.07.87c0,.21,0,.53,0,.9h4.28l0,1.05c-.78,0-2-.07-4.07-.07Zm-.74,3a1.23,1.23,0,0,0-1.23-.85,1.41,1.41,0,0,0-1.4,1.46,1.33,1.33,0,0,0,1.41,1.37C273.07,183.72,273.6,183.06,273.47,181.74Z"/><path d="M289.35,177.27c-.25.17-.56.38-.77.54-.69.51-2.55,2.15-3.62,3.05a6,6,0,0,1,1.88-.29c2.31,0,4,1.4,4,3.27,0,2.25-1.86,3.7-4.79,3.7-1.89,0-3-.84-3-2a2,2,0,0,1,2.14-1.82,2.75,2.75,0,0,1,2.86,2.45,2.42,2.42,0,0,0,1.72-2.35c0-1.36-1.37-2.35-3.12-2.35-2.29,0-3.55,1-5.31,2.76l-.82-.83,3.74-3.11c.77-.64,2.5-2.1,3.18-2.72l-4.17.2a7.15,7.15,0,0,0-.94.08l0-1.16a8.28,8.28,0,0,0,1,0c.72,0,4-.1,4.74-.17a5,5,0,0,0,.75-.11Zm-2.4,9.18a1.85,1.85,0,0,0-1.83-1.85c-.63,0-1.11.38-1.11.85,0,.69.8,1.08,1.84,1.08A6.32,6.32,0,0,0,287,186.45Z"/><path d="M300.1,186.69h5.48v.92H293.7v-.92H299v-3.46h-4.69v-.91H299v-1.88h-2.88v-.8a19.23,19.23,0,0,1-2.32,1.46,3.12,3.12,0,0,0-.63-.81,15.7,15.7,0,0,0,5.8-5h1a16.42,16.42,0,0,0,6.08,4.84,4.56,4.56,0,0,0-.67.93,17.6,17.6,0,0,1-2.34-1.46v.87h-3v1.88h4.8v.91h-4.8Zm-3.77-3.08a8.69,8.69,0,0,1,1.33,2.49l-.89.41a10,10,0,0,0-1.28-2.58Zm6.68-4.09a16.62,16.62,0,0,1-3.44-3.25,15.54,15.54,0,0,1-3.28,3.25Zm-1.75,6.64a16.21,16.21,0,0,0,1.5-2.58l1,.38a24,24,0,0,1-1.71,2.55Z"/><path d="M309.69,187.16v.66h-.9V184c-.22.12-.43.22-.66.32a3.69,3.69,0,0,0-.56-.74,8.91,8.91,0,0,0,3-1.92l-1.31-.94a10.79,10.79,0,0,1-.88.8,5.25,5.25,0,0,0-.7-.62,7.62,7.62,0,0,0,2.54-3.12l.88.22q-.19.42-.42.81h1.81l.15,0,.6.27a8.27,8.27,0,0,1-1.38,2.49,23.75,23.75,0,0,1,2.08,1.7l-.61.72-.35-.33v3.58Zm-.8-8.61H308v-2h2.38V175.3h1v1.25h2.38v2h-.9v-1.16h-4Zm4,5c-.45-.41-1-.87-1.62-1.35a10,10,0,0,1-1.66,1.35Zm-.84.82h-2.32v2H312Zm-1.85-4.8a4.78,4.78,0,0,1-.39.5l1.34.94a6.64,6.64,0,0,0,.92-1.44Zm6.35,6.68a8.87,8.87,0,0,1-2.9,1.82,8.93,8.93,0,0,0-.69-.68,7.35,7.35,0,0,0,2.69-1.66Zm-.24-8c.11-.42.22-.9.29-1.33h-2.64v-.91h6.47v.91h-2.7c-.15.45-.29.92-.42,1.33H320v7.24h-5.57v-7.24ZM319,179h-3.65v1.34H319Zm0,2.1h-3.65v1.34H319Zm0,2.13h-3.65v1.36H319Zm-.61,2.52a14.82,14.82,0,0,1,2.36,1.79l-.79.55a17.2,17.2,0,0,0-2.36-1.84Z"/></g><g class="cls-3"><path d="M57.73,93a4.35,4.35,0,0,0-.45.79,23,23,0,0,1-3,5.28,52.09,52.09,0,0,1,5.26,5.36l-1.26,1.1a42.72,42.72,0,0,0-5-5.35,22.76,22.76,0,0,1-7,5.26l-1.15-1.2a20.63,20.63,0,0,0,7.42-5.35,16,16,0,0,0,3-5h-7c-.63,0-1.62.08-1.82.09V92.32a18.08,18.08,0,0,0,1.82.13h7a4.84,4.84,0,0,0,1.35-.16Z"/><path d="M76,93.49a7.81,7.81,0,0,0-.42,1A18.3,18.3,0,0,1,73,99.81c.69.44,1.3.85,1.75,1.18l-1,1.29c-.43-.34-1-.77-1.71-1.24a17.1,17.1,0,0,1-7.06,4.79l-1.29-1.12a15.76,15.76,0,0,0,7.11-4.48c-1.42-.92-2.94-1.82-4-2.38l.92-1.06c1,.54,2.56,1.4,4,2.25A14.94,14.94,0,0,0,74,94.23H67.9A19.74,19.74,0,0,1,63.12,99L61.92,98a16.12,16.12,0,0,0,5.78-6.25,7.2,7.2,0,0,0,.57-1.44l1.62.53c-.29.46-.61,1.08-.79,1.42s-.23.43-.38.66h4.92a3.14,3.14,0,0,0,1.19-.18Z"/><path d="M79.29,97.24c.54,0,1.49.09,2.5.09h9.87a19.19,19.19,0,0,0,1.94-.09V99c-.36,0-1.12-.09-1.93-.09H81.79c-1,0-1.94,0-2.5.09Z"/><path d="M108,100.41a47.2,47.2,0,0,0-7.07-2.9l0,5.94c0,.58,0,1.53.1,2.13H99.3a17.94,17.94,0,0,0,.11-2.13V93a11.15,11.15,0,0,0-.14-1.87H101c0,.56-.12,1.33-.12,1.87v2.94a58.16,58.16,0,0,1,7.69,3Z"/><path d="M122.69,92.7c.18,0,.38,0,.59,0a2.12,2.12,0,0,1-.09-.57,2,2,0,1,1,2,2,2.3,2.3,0,0,1-.69-.1l0,.19a18,18,0,0,1-2.68,6.65,13.8,13.8,0,0,1-7.1,4.81l-1.22-1.35a11.93,11.93,0,0,0,7-4.33,13.61,13.61,0,0,0,2.36-5.87h-9.22c-.7,0-1.33,0-1.78.06V92.59a16.1,16.1,0,0,0,1.8.11Zm3.71-.59a1.22,1.22,0,0,0-1.19-1.21A1.2,1.2,0,0,0,124,92.11a1.19,1.19,0,0,0,1.19,1.19A1.2,1.2,0,0,0,126.4,92.11Z"/><path d="M142.38,96.38a2.52,2.52,0,0,0-.23.52,12.49,12.49,0,0,1-2.63,5.11,13.11,13.11,0,0,1-6.45,3.76L132,104.5a12.2,12.2,0,0,0,6.33-3.3,9.24,9.24,0,0,0,2.15-4h-9.56c-.44,0-1.12,0-1.75.06V95.76a17.06,17.06,0,0,0,1.75.11h9.48a2.5,2.5,0,0,0,1-.14Zm-11.65-4.76a11.62,11.62,0,0,0,1.62.09h7.08a11.56,11.56,0,0,0,1.64-.09v1.5c-.44,0-1-.06-1.66-.06h-7.06c-.56,0-1.13,0-1.62.06Z"/><path d="M152.91,101.27a16.91,16.91,0,0,0,6-6.62l.87,1.53a17.91,17.91,0,0,1-6,6.39,19.48,19.48,0,0,1-7.08,2.81l-.95-1.48A18.65,18.65,0,0,0,152.91,101.27Zm-1.06-5.7-1.14,1.13a37.13,37.13,0,0,0-4.48-3.76l1-1.1A39.46,39.46,0,0,1,151.85,95.57Z"/></g><g class="cls-3"><path d="M215.51,104.46c0,.94-.27,1.4-.93,1.62a14.76,14.76,0,0,1-3.8.25,5.28,5.28,0,0,0-.58-1.38c1.51,0,3,0,3.37,0s.56-.14.56-.54v-3.6h-8.65a10.2,10.2,0,0,1-3.09,5.6,5.06,5.06,0,0,0-1-1c2.86-2.52,3.15-6.18,3.15-9V90.92h11Zm-1.38-4.93v-3H205.9a23.44,23.44,0,0,1-.2,3Zm-8.23-7.3v3h8.23v-3Z"/><path d="M222.73,105.25v.85h-1.16v-5a7.23,7.23,0,0,1-.84.41,5.16,5.16,0,0,0-.72-1,11.35,11.35,0,0,0,3.8-2.47l-1.68-1.2a14.87,14.87,0,0,1-1.13,1,8.62,8.62,0,0,0-.9-.79,9.76,9.76,0,0,0,3.26-4l1.13.29a11.58,11.58,0,0,1-.54,1h2.32l.2-.06.78.34A10.59,10.59,0,0,1,225.46,98a28.87,28.87,0,0,1,2.69,2.18l-.8.93-.45-.43v4.61Zm-1-11.07h-1.12V91.6h3.07V90h1.24v1.6H228v2.58H226.8v-1.5h-5.1Zm5.1,6.37c-.58-.52-1.32-1.11-2.09-1.73a12.33,12.33,0,0,1-2.13,1.73Zm-1.08,1.07h-3v2.55h3Zm-2.38-6.18a8,8,0,0,1-.5.65l1.72,1.2a8.14,8.14,0,0,0,1.17-1.85ZM231.5,104a11.75,11.75,0,0,1-3.73,2.34c-.22-.24-.6-.63-.88-.88a9.45,9.45,0,0,0,3.45-2.13Zm-.31-10.34c.14-.54.29-1.15.38-1.71h-3.41V90.81h8.32V92H233c-.18.58-.36,1.19-.54,1.71H236V103h-7.17V93.69Zm3.56,1.06h-4.69v1.73h4.69Zm0,2.71h-4.69v1.72h4.69Zm0,2.73h-4.69v1.75h4.69Zm-.79,3.24a19.87,19.87,0,0,1,3,2.31l-1,.7a21.64,21.64,0,0,0-3-2.36Z"/></g><g class="cls-3"><path d="M300.79,98.39c0-4.59,1.6-6.8,4.12-6.8s4.11,2.23,4.11,6.8-1.6,6.88-4.11,6.88S300.79,103,300.79,98.39Zm6.63,0c0-3.85-1-5.47-2.51-5.47s-2.52,1.62-2.52,5.47,1,5.57,2.52,5.57S307.42,102.28,307.42,98.39Z"/><path d="M327.06,104.62c0,.87-.22,1.3-.83,1.53a11.16,11.16,0,0,1-3.21.24,5.62,5.62,0,0,0-.5-1.34c1.22.06,2.39,0,2.74,0s.45-.11.45-.45V99.11H313.64v7.31h-1.33V91.21h14.75Zm-13.42-6.84h5.28V92.5h-5.28Zm12.07,0V92.5h-5.48v5.28Z"/><path d="M334.94,90.76h1.18l-5.38,17.5h-1.21Z"/><path d="M351.51,103.67h2.94V93.82h-2.34v-1a8.43,8.43,0,0,0,2.74-.93h1.25v11.83h2.65V105h-7.24Z"/><path d="M361.52,98.39c0-4.59,1.6-6.8,4.13-6.8s4.1,2.23,4.1,6.8-1.6,6.88-4.1,6.88S361.52,103,361.52,98.39Zm6.63,0c0-3.85-1-5.47-2.5-5.47s-2.53,1.62-2.53,5.47,1,5.57,2.53,5.57S368.15,102.28,368.15,98.39Z"/><path d="M372.23,98.39c0-4.59,1.6-6.8,4.12-6.8s4.11,2.23,4.11,6.8-1.6,6.88-4.11,6.88S372.23,103,372.23,98.39Zm6.63,0c0-3.85-1-5.47-2.51-5.47s-2.52,1.62-2.52,5.47,1,5.57,2.52,5.57S378.86,102.28,378.86,98.39Z"/><path d="M382.94,98.39c0-4.59,1.6-6.8,4.12-6.8s4.11,2.23,4.11,6.8-1.6,6.88-4.11,6.88S382.94,103,382.94,98.39Zm6.63,0c0-3.85-1-5.47-2.51-5.47s-2.52,1.62-2.52,5.47,1,5.57,2.52,5.57S389.57,102.28,389.57,98.39Z"/><path d="M397.47,102.8c.86,1.35,2.41,2,4.52,2,2,.09,6.07,0,8.21-.11a6.19,6.19,0,0,0-.42,1.32c-2,.09-5.81.12-7.79,0-2.36-.09-4-.72-5.08-2.14-.92.79-1.87,1.57-2.9,2.32l-.65-1.29a30.33,30.33,0,0,0,2.81-2V98.28h-2.59V97h3.89Zm-.6-8.6a13.2,13.2,0,0,0-3-3l.94-.83a13.28,13.28,0,0,1,3,2.9Zm3.71,9.52h-1.26V94.47h5.13c-1.06-.52-2.34-1.1-3.42-1.5l.85-.75c.77.27,1.66.63,2.5,1a13.28,13.28,0,0,0,2.47-1.43h-7.51V90.72h8.79l.25-.07.83.63a16.26,16.26,0,0,1-3.64,2.47c.52.25,1,.5,1.39.72h2.27v7.92c0,.65-.15,1-.62,1.17a7.86,7.86,0,0,1-2.43.2,3.79,3.79,0,0,0-.38-1.1c.85,0,1.63,0,1.84,0s.31-.07.31-.31v-1.64h-3.14v2.92h-1.2v-2.92h-3Zm0-8.23v1.59h3V95.49Zm3,4.22V98.07h-3v1.64ZM408,95.49h-3.14v1.59H408Zm0,4.22V98.07h-3.14v1.64Z"/></g><g class="cls-3"><path d="M46.63,124.82c.87-.88,2.44-2.88,3.57-4.21.95-1.13,1.69-1.26,3-.18a46.81,46.81,0,0,1,3.73,3.73c1.2,1.29,3,3.26,4.35,4.81l-1.17,1.27c-1.26-1.62-2.9-3.47-4.05-4.79a50.33,50.33,0,0,0-3.51-3.65c-.76-.63-1-.61-1.62.14-.86,1-2.38,3-3.19,4-.38.47-.77,1-1,1.39L45.37,126C45.82,125.62,46.17,125.29,46.63,124.82Zm11.91-3.43-1,.48A19.34,19.34,0,0,0,55.82,119l1-.45A28.62,28.62,0,0,1,58.54,121.39Zm2.37-1-1,.51a18.79,18.79,0,0,0-1.73-2.85l1-.47A26.16,26.16,0,0,1,60.91,120.43Z"/><path d="M65,123c.54,0,1.49.09,2.5.09h9.87a19,19,0,0,0,1.94-.09v1.77c-.36,0-1.11-.09-1.93-.09H67.48c-1,0-2,0-2.5.09Z"/><path d="M87.82,123.4,87,124.66a37.4,37.4,0,0,0-3.92-2.46l.79-1.23C84.94,121.55,87,122.83,87.82,123.4Zm2.09,4.29a18.34,18.34,0,0,0,6.82-6.59l.87,1.47A21.14,21.14,0,0,1,90.68,129a22.51,22.51,0,0,1-6,2.23l-.83-1.47A19.41,19.41,0,0,0,89.91,127.69Zm.58-8.23-.85,1.22c-.87-.64-2.81-1.94-3.87-2.55l.81-1.21C87.64,117.51,89.71,118.88,90.49,119.46Z"/><path d="M102.92,125.35l-1.37.5a32,32,0,0,0-1.6-4l1.33-.52C101.64,122.05,102.58,124.41,102.92,125.35Zm9.06-4c-.13.37-.2.66-.27.9a14.09,14.09,0,0,1-2.56,5.52,13.85,13.85,0,0,1-5.87,4.29l-1.19-1.23a11.91,11.91,0,0,0,5.85-3.81,12.38,12.38,0,0,0,2.49-6.16Zm-5.1,2.88-1.33.47a35.21,35.21,0,0,0-1.4-3.91l1.31-.45C105.77,121.1,106.65,123.47,106.88,124.27Z"/><path d="M128.81,119.5a8.28,8.28,0,0,0-.43,1,17.61,17.61,0,0,1-3.19,6.19,15.76,15.76,0,0,1-7.17,4.9l-1.29-1.17a14.56,14.56,0,0,0,7.18-4.52,14.23,14.23,0,0,0,2.86-5.62h-6.08a17.57,17.57,0,0,1-4.56,4.43l-1.24-.93a14.68,14.68,0,0,0,5.65-6.09,5.13,5.13,0,0,0,.56-1.42l1.68.56c-.31.46-.63,1.06-.81,1.4s-.27.51-.43.76h4.89a3.66,3.66,0,0,0,1.17-.16Z"/><path d="M142.6,118.41h.59a2.2,2.2,0,0,1-.09-.58,2,2,0,1,1,2,2,2.26,2.26,0,0,1-.69-.11l0,.2a17.8,17.8,0,0,1-2.69,6.64,13.73,13.73,0,0,1-7.09,4.81L133.4,130a12,12,0,0,0,7-4.32,13.78,13.78,0,0,0,2.36-5.87h-9.22c-.71,0-1.33,0-1.79,0v-1.58c.49,0,1.21.1,1.81.1Zm3.71-.59a1.21,1.21,0,0,0-1.19-1.2,1.2,1.2,0,1,0,1.19,1.2Z"/><path d="M162.29,122.09a2.52,2.52,0,0,0-.23.52,12.43,12.43,0,0,1-2.63,5.11,13.13,13.13,0,0,1-6.45,3.77l-1.12-1.28a12.06,12.06,0,0,0,6.34-3.3,9.24,9.24,0,0,0,2.15-4h-9.57c-.43,0-1.11,0-1.74.06v-1.51a16.76,16.76,0,0,0,1.74.1h9.49a2.33,2.33,0,0,0,1-.14Zm-11.65-4.76a10.27,10.27,0,0,0,1.62.09h7.08a10.32,10.32,0,0,0,1.64-.09v1.5c-.44,0-1,0-1.66,0h-7.06c-.56,0-1.13,0-1.62,0Z"/><path d="M172.82,127a17,17,0,0,0,6-6.63l.87,1.53a18.09,18.09,0,0,1-6,6.39,19.48,19.48,0,0,1-7.08,2.81l-.95-1.48A18.5,18.5,0,0,0,172.82,127Zm-1.06-5.71-1.14,1.13a38.08,38.08,0,0,0-4.48-3.76l1-1.1A39.77,39.77,0,0,1,171.76,121.28Z"/></g><g class="cls-3"><path d="M215.51,130.17c0,.94-.27,1.41-.93,1.62a14.3,14.3,0,0,1-3.8.25,5.58,5.58,0,0,0-.58-1.38c1.51.05,3,0,3.37,0s.56-.15.56-.54v-3.61h-8.65a10.16,10.16,0,0,1-3.09,5.6,5.35,5.35,0,0,0-1-1c2.86-2.52,3.15-6.18,3.15-9v-5.51h11Zm-1.38-4.93v-3H205.9a23.32,23.32,0,0,1-.2,3ZM205.9,118v3h8.23v-3Z"/><path d="M222.73,131v.85h-1.16v-5c-.28.16-.55.29-.84.42a5.6,5.6,0,0,0-.72-1,11.2,11.2,0,0,0,3.8-2.47l-1.68-1.2a15.06,15.06,0,0,1-1.13,1,7.67,7.67,0,0,0-.9-.8,9.8,9.8,0,0,0,3.26-4l1.13.29a10.24,10.24,0,0,1-.54,1h2.32l.2-.05.78.34a10.54,10.54,0,0,1-1.79,3.2,28.87,28.87,0,0,1,2.69,2.18l-.8.94c-.12-.13-.28-.27-.45-.43V131Zm-1-11.07h-1.12v-2.57h3.07v-1.61h1.24v1.61H228v2.57H226.8V118.4h-5.1Zm5.1,6.38c-.58-.53-1.32-1.12-2.09-1.73a13.34,13.34,0,0,1-2.13,1.73Zm-1.08,1.06h-3v2.55h3Zm-2.38-6.18a8,8,0,0,1-.5.65l1.72,1.21a8.43,8.43,0,0,0,1.17-1.86Zm8.16,8.59a11.58,11.58,0,0,1-3.73,2.34c-.22-.23-.6-.63-.88-.88a9.45,9.45,0,0,0,3.45-2.13Zm-.31-10.33c.14-.54.29-1.16.38-1.71h-3.41v-1.18h8.32v1.18H233c-.18.57-.36,1.18-.54,1.71H236v9.3h-7.17v-9.3Zm3.56,1.06h-4.69v1.73h4.69Zm0,2.7h-4.69v1.73h4.69Zm0,2.74h-4.69v1.74h4.69Zm-.79,3.24a19.23,19.23,0,0,1,3,2.3l-1,.7a21.64,21.64,0,0,0-3-2.36Z"/></g><g class="cls-3"><path d="M264.66,129.24l.81-1.08a4.38,4.38,0,0,0,3.24,1.45,2.85,2.85,0,0,0,2.81-3.11c0-1.89-1.08-3-2.73-3a3.56,3.56,0,0,0-2.2.78l-.88-.54.41-6.18h6.43V119h-5l-.32,3.82a3.81,3.81,0,0,1,2-.52c2.2,0,4,1.3,4,4.2a4.29,4.29,0,0,1-4.32,4.53A5.64,5.64,0,0,1,264.66,129.24Z"/><path d="M275.82,133.2a2.69,2.69,0,0,0,1.8-2.45.62.62,0,0,1-.19,0,1.14,1.14,0,0,1-1.21-1.16,1.17,1.17,0,0,1,1.24-1.15c.87,0,1.39.74,1.39,1.95a4,4,0,0,1-2.63,3.76Z"/><path d="M281.48,124.11c0-4.6,1.6-6.81,4.12-6.81s4.1,2.23,4.1,6.81-1.6,6.87-4.1,6.87S281.48,128.7,281.48,124.11Zm6.62,0c0-3.86-1-5.48-2.5-5.48s-2.52,1.62-2.52,5.48,1,5.56,2.52,5.56S288.1,128,288.1,124.11Z"/><path d="M292.19,124.11c0-4.6,1.6-6.81,4.12-6.81s4.1,2.23,4.1,6.81-1.6,6.87-4.1,6.87S292.19,128.7,292.19,124.11Zm6.62,0c0-3.86-1-5.48-2.5-5.48s-2.52,1.62-2.52,5.48,1,5.56,2.52,5.56S298.81,128,298.81,124.11Z"/><path d="M302.9,124.11c0-4.6,1.6-6.81,4.12-6.81s4.1,2.23,4.1,6.81S309.52,131,307,131,302.9,128.7,302.9,124.11Zm6.62,0c0-3.86-1-5.48-2.5-5.48s-2.52,1.62-2.52,5.48,1,5.56,2.52,5.56S309.52,128,309.52,124.11Z"/><path d="M329.16,130.33c0,.87-.22,1.3-.83,1.54a11.58,11.58,0,0,1-3.2.23,5.59,5.59,0,0,0-.51-1.33c1.23,0,2.4,0,2.74,0s.45-.1.45-.45v-5.51H315.75v7.32h-1.33V116.92h14.74Zm-13.41-6.84H321v-5.27h-5.27Zm12.06,0v-5.27h-5.47v5.27Z"/><path d="M337,116.47h1.19L332.85,134h-1.21Z"/><path d="M340.8,129.38h2.94v-9.85H341.4v-1a8.51,8.51,0,0,0,2.73-.94h1.26v11.83H348v1.37H340.8Z"/><path d="M350.43,129.24l.81-1.08a4.36,4.36,0,0,0,3.24,1.45,2.85,2.85,0,0,0,2.81-3.11c0-1.89-1.08-3-2.73-3a3.54,3.54,0,0,0-2.2.78l-.88-.54.41-6.18h6.43V119h-5l-.32,3.82a3.81,3.81,0,0,1,2-.52c2.2,0,4,1.3,4,4.2a4.29,4.29,0,0,1-4.32,4.53A5.63,5.63,0,0,1,350.43,129.24Z"/><path d="M361.52,124.11c0-4.6,1.6-6.81,4.12-6.81s4.11,2.23,4.11,6.81-1.6,6.87-4.11,6.87S361.52,128.7,361.52,124.11Zm6.63,0c0-3.86-1-5.48-2.51-5.48s-2.52,1.62-2.52,5.48,1,5.56,2.52,5.56S368.15,128,368.15,124.11Z"/><path d="M372.23,124.11c0-4.6,1.6-6.81,4.12-6.81s4.11,2.23,4.11,6.81-1.6,6.87-4.11,6.87S372.23,128.7,372.23,124.11Zm6.63,0c0-3.86-1-5.48-2.51-5.48s-2.52,1.62-2.52,5.48,1,5.56,2.52,5.56S378.86,128,378.86,124.11Z"/><path d="M382.94,124.11c0-4.6,1.6-6.81,4.12-6.81s4.11,2.23,4.11,6.81-1.6,6.87-4.11,6.87S382.94,128.7,382.94,124.11Zm6.63,0c0-3.86-1-5.48-2.51-5.48s-2.52,1.62-2.52,5.48,1,5.56,2.52,5.56S389.57,128,389.57,124.11Z"/><path d="M397.47,128.52c.86,1.35,2.41,1.94,4.52,2,2,.09,6.06,0,8.21-.11a6.19,6.19,0,0,0-.42,1.32c-2,.09-5.81.13-7.79,0-2.36-.09-4-.73-5.08-2.15-.92.79-1.87,1.57-2.9,2.32l-.65-1.29a30.33,30.33,0,0,0,2.81-2V124h-2.59v-1.26h3.89Zm-.6-8.61a13.83,13.83,0,0,0-3-3l.94-.83a13.49,13.49,0,0,1,3,2.9Zm3.71,9.52h-1.26v-9.25h5.13a36.5,36.5,0,0,0-3.42-1.49l.85-.76c.77.27,1.65.63,2.5,1a13.83,13.83,0,0,0,2.47-1.42h-7.51v-1.07h8.79l.25-.07.83.63a16.26,16.26,0,0,1-3.64,2.47c.52.25,1,.5,1.39.72h2.26v7.92c0,.65-.14,1-.61,1.17a7.9,7.9,0,0,1-2.43.2,3.89,3.89,0,0,0-.38-1.1c.85,0,1.62,0,1.84,0s.31-.07.31-.31v-1.63h-3.14v2.91h-1.2v-2.91h-3Zm0-8.22v1.58h3v-1.58Zm3,4.21v-1.64h-3v1.64Zm4.34-4.21h-3.14v1.58H408Zm0,4.21v-1.64h-3.14v1.64Z"/></g><g class="cls-3"><path d="M56.3,144.13c.18,0,.38,0,.6,0a1.85,1.85,0,0,1-.09-.58,2,2,0,1,1,2,2,2.25,2.25,0,0,1-.68-.11l0,.2a17.78,17.78,0,0,1-2.68,6.64,13.77,13.77,0,0,1-7.09,4.81l-1.23-1.35a11.9,11.9,0,0,0,7-4.32,13.76,13.76,0,0,0,2.35-5.87H47.27c-.71,0-1.34,0-1.79,0V144c.49,0,1.21.11,1.8.11Zm3.71-.6a1.21,1.21,0,0,0-1.19-1.2,1.2,1.2,0,1,0,1.19,1.2Z"/><path d="M64.38,155.88a1.9,1.9,0,0,0,.18-.88V144.7a14.6,14.6,0,0,0-.14-1.63h1.77a10.36,10.36,0,0,0-.13,1.63v10.21a19.38,19.38,0,0,0,9.85-6.14l.81,1.26a20.92,20.92,0,0,1-10.53,6.43,2.44,2.44,0,0,0-.76.32Z"/><path d="M90.9,155.52l-.61,1.39a59.35,59.35,0,0,0-10.66-2.72l.56-1.37A63.74,63.74,0,0,1,90.9,155.52Zm-.65-5.78-.57,1.39a52.91,52.91,0,0,0-9-2.2l.54-1.35A65.92,65.92,0,0,1,90.25,149.74Zm1.19-4.82-.58,1.39a59.24,59.24,0,0,0-9.39-2.15l.52-1.33A64.63,64.63,0,0,1,91.44,144.92Z"/><path d="M109.77,144.29c-.13.18-.36.45-.49.65a17.53,17.53,0,0,1-4.48,5l-1.19-1a12,12,0,0,0,3.92-4H97.29a18.2,18.2,0,0,0-2.05.11v-1.62a19.41,19.41,0,0,0,2.05.14h10.33a8,8,0,0,0,1.26-.11Zm-7.19,2.38c0,4.88-.43,8.17-5,10.46l-1.32-1.08a7.09,7.09,0,0,0,1.61-.8C100.64,153.54,101,151,101,148a9.55,9.55,0,0,0-.07-1.29Z"/><path d="M124.56,157.07c-.23-.65-.59-1.47-1-2.36-2.79.36-8.8,1-11.22,1.25-.45,0-1,.12-1.49.2l-.27-1.68c.54,0,1.15,0,1.67,0l.9-.05c1-2.49,2.85-8.25,3.35-10a13.8,13.8,0,0,0,.36-1.73l1.79.36c-.18.45-.38.92-.62,1.67-.54,1.7-2.3,7.22-3.2,9.56,2.65-.25,6.1-.64,8.07-.9a26.68,26.68,0,0,0-2.18-3.69l1.35-.61a49.35,49.35,0,0,1,4,7.33Z"/><path d="M138.46,144.13c.18,0,.38,0,.59,0a2.2,2.2,0,0,1-.09-.58,2,2,0,1,1,2,2,2.26,2.26,0,0,1-.69-.11l0,.2a17.94,17.94,0,0,1-2.68,6.64,13.8,13.8,0,0,1-7.1,4.81l-1.22-1.35a11.87,11.87,0,0,0,7-4.32,13.66,13.66,0,0,0,2.36-5.87h-9.22c-.7,0-1.33,0-1.78,0V144c.48,0,1.2.11,1.8.11Zm3.71-.6a1.21,1.21,0,0,0-1.19-1.2,1.2,1.2,0,1,0,1.19,1.2Z"/><path d="M158.15,147.8a2.77,2.77,0,0,0-.23.52,12.47,12.47,0,0,1-2.63,5.12,13.11,13.11,0,0,1-6.45,3.76l-1.11-1.28a12.12,12.12,0,0,0,6.33-3.29,9.35,9.35,0,0,0,2.15-4h-9.56c-.44,0-1.12,0-1.75,0v-1.51a17.06,17.06,0,0,0,1.75.11h9.48a2.3,2.3,0,0,0,1-.15Zm-11.65-4.75a11.62,11.62,0,0,0,1.62.09h7.08a11.65,11.65,0,0,0,1.64-.09v1.49c-.44,0-1.05,0-1.66,0h-7.06c-.56,0-1.13,0-1.62,0Z"/><path d="M168.68,152.7a16.93,16.93,0,0,0,6-6.63l.87,1.53a18,18,0,0,1-6.05,6.39,19.3,19.3,0,0,1-7.08,2.81l-1-1.47A18.65,18.65,0,0,0,168.68,152.7ZM167.62,147l-1.14,1.13a38.08,38.08,0,0,0-4.48-3.76l1-1.1A39.77,39.77,0,0,1,167.62,147Z"/></g><g class="cls-3"><path d="M215.51,155.88c0,.94-.27,1.41-.93,1.62a14.17,14.17,0,0,1-3.8.26,5.48,5.48,0,0,0-.58-1.39c1.51,0,3,0,3.37,0s.56-.15.56-.54v-3.6h-8.65a10.23,10.23,0,0,1-3.09,5.6,5.11,5.11,0,0,0-1-1c2.86-2.52,3.15-6.17,3.15-9v-5.51h11ZM214.13,151v-3H205.9a23.29,23.29,0,0,1-.2,3Zm-8.23-7.29v3h8.23v-3Z"/><path d="M222.73,156.68v.84h-1.16v-5a7.31,7.31,0,0,1-.84.42,5.6,5.6,0,0,0-.72-1,11.17,11.17,0,0,0,3.8-2.46l-1.68-1.21a15.06,15.06,0,0,1-1.13,1,7.67,7.67,0,0,0-.9-.8,9.8,9.8,0,0,0,3.26-4l1.13.29a10.24,10.24,0,0,1-.54,1h2.32l.2,0,.78.34a10.42,10.42,0,0,1-1.79,3.2,30.59,30.59,0,0,1,2.69,2.18l-.8.94c-.12-.13-.28-.27-.45-.43v4.61Zm-1-11.08h-1.12V143h3.07v-1.6h1.24V143H228v2.57H226.8v-1.49h-5.1Zm5.1,6.38c-.58-.53-1.32-1.12-2.09-1.73a13.34,13.34,0,0,1-2.13,1.73ZM225.72,153h-3v2.56h3Zm-2.38-6.18a8,8,0,0,1-.5.65l1.72,1.21a8.43,8.43,0,0,0,1.17-1.86Zm8.16,8.59a11.58,11.58,0,0,1-3.73,2.34c-.22-.23-.6-.63-.88-.88a9.57,9.57,0,0,0,3.45-2.12Zm-.31-10.33c.14-.54.29-1.16.38-1.71h-3.41v-1.17h8.32v1.17H233c-.18.57-.36,1.19-.54,1.71H236v9.31h-7.17v-9.31Zm3.56,1.06h-4.69v1.73h4.69Zm0,2.7h-4.69v1.73h4.69Zm0,2.74h-4.69v1.74h4.69Zm-.79,3.24a20.52,20.52,0,0,1,3,2.3l-1,.71a20.92,20.92,0,0,0-3-2.36Z"/></g><g class="cls-3"><path d="M255,155.09H258v-9.85h-2.34v-1a8.19,8.19,0,0,0,2.73-.94h1.27v11.83h2.64v1.37H255Z"/><path d="M264.66,155l.81-1.08a4.39,4.39,0,0,0,3.24,1.46,2.86,2.86,0,0,0,2.81-3.12c0-1.89-1.08-3-2.73-3a3.56,3.56,0,0,0-2.2.78l-.88-.54.41-6.18h6.43v1.41h-5l-.32,3.81a3.81,3.81,0,0,1,2-.52c2.2,0,4,1.3,4,4.2a4.29,4.29,0,0,1-4.32,4.54A5.65,5.65,0,0,1,264.66,155Z"/><path d="M275.82,158.91a2.69,2.69,0,0,0,1.8-2.45.62.62,0,0,1-.19,0,1.13,1.13,0,0,1-1.21-1.15,1.17,1.17,0,0,1,1.24-1.16c.87,0,1.39.74,1.39,2a4,4,0,0,1-2.63,3.76Z"/><path d="M281.48,149.82c0-4.59,1.6-6.81,4.12-6.81s4.1,2.23,4.1,6.81-1.6,6.88-4.1,6.88S281.48,154.41,281.48,149.82Zm6.62,0c0-3.86-1-5.48-2.5-5.48s-2.52,1.62-2.52,5.48,1,5.56,2.52,5.56S288.1,153.71,288.1,149.82Z"/><path d="M292.19,149.82c0-4.59,1.6-6.81,4.12-6.81s4.1,2.23,4.1,6.81-1.6,6.88-4.1,6.88S292.19,154.41,292.19,149.82Zm6.62,0c0-3.86-1-5.48-2.5-5.48s-2.52,1.62-2.52,5.48,1,5.56,2.52,5.56S298.81,153.71,298.81,149.82Z"/><path d="M302.9,149.82c0-4.59,1.6-6.81,4.12-6.81s4.1,2.23,4.1,6.81-1.6,6.88-4.1,6.88S302.9,154.41,302.9,149.82Zm6.62,0c0-3.86-1-5.48-2.5-5.48s-2.52,1.62-2.52,5.48,1,5.56,2.52,5.56S309.52,153.71,309.52,149.82Z"/><path d="M329.16,156.05c0,.86-.22,1.29-.83,1.53a11.58,11.58,0,0,1-3.2.23,5.59,5.59,0,0,0-.51-1.33c1.23.05,2.4,0,2.74,0s.45-.11.45-.45v-5.51H315.75v7.31h-1.34V142.63h14.75Zm-13.41-6.85H321v-5.27h-5.27Zm12.06,0v-5.27h-5.47v5.27Z"/><path d="M337,142.18h1.19l-5.38,17.5h-1.21Z"/><path d="M348.64,152.82h-1.75v3.64h-1.57v-3.64h-5.74v-1.08l5.49-8.48h1.82v8.25h1.75Zm-3.32-1.31v-4c0-.65.07-1.71.11-2.4h-.07c-.33.65-.69,1.3-1.06,1.95l-3,4.5Z"/><path d="M350.43,155l.81-1.08a4.37,4.37,0,0,0,3.24,1.46,2.86,2.86,0,0,0,2.81-3.12c0-1.89-1.08-3-2.73-3a3.54,3.54,0,0,0-2.2.78l-.88-.54.41-6.18h6.43v1.41h-5l-.32,3.81a3.81,3.81,0,0,1,2-.52c2.2,0,4,1.3,4,4.2a4.29,4.29,0,0,1-4.32,4.54A5.63,5.63,0,0,1,350.43,155Z"/><path d="M361.52,149.82c0-4.59,1.6-6.81,4.12-6.81s4.11,2.23,4.11,6.81-1.6,6.88-4.11,6.88S361.52,154.41,361.52,149.82Zm6.63,0c0-3.86-1-5.48-2.51-5.48s-2.52,1.62-2.52,5.48,1,5.56,2.52,5.56S368.15,153.71,368.15,149.82Z"/><path d="M372.23,149.82c0-4.59,1.6-6.81,4.12-6.81s4.11,2.23,4.11,6.81-1.6,6.88-4.11,6.88S372.23,154.41,372.23,149.82Zm6.63,0c0-3.86-1-5.48-2.51-5.48s-2.52,1.62-2.52,5.48,1,5.56,2.52,5.56S378.86,153.71,378.86,149.82Z"/><path d="M382.94,149.82c0-4.59,1.6-6.81,4.12-6.81s4.11,2.23,4.11,6.81-1.6,6.88-4.11,6.88S382.94,154.41,382.94,149.82Zm6.63,0c0-3.86-1-5.48-2.51-5.48s-2.52,1.62-2.52,5.48,1,5.56,2.52,5.56S389.57,153.71,389.57,149.82Z"/><path d="M397.47,154.23c.86,1.35,2.41,1.94,4.52,2,2,.09,6.06,0,8.21-.1a5.92,5.92,0,0,0-.42,1.31c-2,.09-5.81.13-7.79,0-2.36-.09-4-.72-5.08-2.15-.92.8-1.87,1.57-2.9,2.33l-.65-1.3a32.1,32.1,0,0,0,2.81-2v-4.63h-2.59v-1.26h3.89Zm-.6-8.61a13.83,13.83,0,0,0-3-3l.94-.83a13.71,13.71,0,0,1,3,2.9Zm3.71,9.53h-1.26v-9.26h5.13A36.5,36.5,0,0,0,401,144.4l.85-.76c.77.27,1.65.63,2.5,1a14.19,14.19,0,0,0,2.47-1.42h-7.51v-1.06h8.79l.25-.08.83.63a15.94,15.94,0,0,1-3.64,2.47c.52.25,1,.51,1.38.72h2.27v7.92c0,.65-.14,1-.61,1.17a7.9,7.9,0,0,1-2.43.2,4.23,4.23,0,0,0-.38-1.1c.85,0,1.62,0,1.84,0s.31-.07.31-.3v-1.64h-3.14v2.91h-1.2v-2.91h-3Zm0-8.23v1.58h3v-1.58Zm3,4.21v-1.64h-3v1.64Zm4.34-4.21h-3.14v1.58H408Zm0,4.21v-1.64h-3.14v1.64Z"/></g><line class="cls-4" x1="29.26" y1="64.46" x2="426.45" y2="64.46"/></g></g></svg>