<svg xmlns="http://www.w3.org/2000/svg" viewBox="0 0 455.71 211.07"><defs><style>.cls-1{fill:#fff;}.cls-2{fill:#00be5a;}</style></defs><g id="Layer_2" data-name="Layer 2"><g id="デザイン"><rect class="cls-1" width="455.71" height="211.07" rx="17.29"/><path class="cls-2" d="M115,32.88h4.66V48.33h7.51v3.9H115Z"/><path class="cls-2" d="M130.9,33a2.66,2.66,0,1,1,2.65,2.37A2.42,2.42,0,0,1,130.9,33Zm.34,4.42h4.6v14.8h-4.6Z"/><path class="cls-2" d="M140.63,37.43h3.77l.31,1.85h.1a6.67,6.67,0,0,1,4.73-2.21c3.23,0,4.61,2.31,4.61,6v9.16h-4.63V43.65c0-2-.55-2.63-1.72-2.63a3.53,3.53,0,0,0-2.57,1.33v9.88h-4.6Z"/><path class="cls-2" d="M158.77,31.45h4.5v11.6h.11l4.49-5.62h5l-5.22,6.11,5.59,8.69h-5L165,46.61l-1.77,2v3.62h-4.5Z"/><path class="cls-2" d="M185.79,47.78h-5.72L179,52.23h-4.73l6-19.35h5.57l6,19.35h-4.88Zm-.89-3.59-.41-1.64c-.52-1.92-1-4.23-1.54-6.21h-.1c-.47,2-1,4.29-1.48,6.21L181,44.19Z"/><path class="cls-2" d="M196.37,36.73h-5.23V32.88h15.14v3.85H201v15.5h-4.65Z"/><path class="cls-2" d="M220.06,49.83a19,19,0,0,0,2.52-.46c3.27-.81,5.46-3.1,5.46-6.48s-1.61-5.69-4.58-6.39A52.5,52.5,0,0,1,222,43.2c-1.53,5.15-3.84,8.61-6.89,8.61s-5.61-3.46-5.61-7.85c0-6.11,5.28-11.31,12.17-11.31,6.55,0,10.71,4.52,10.71,10.37,0,5.41-3.2,9.39-9.91,10.51Zm-.84-13.26a7.68,7.68,0,0,0-5.72,7c0,2.24.78,3.41,1.67,3.41,1,0,1.82-1.56,2.73-4.55A37.53,37.53,0,0,0,219.22,36.57Z"/><path class="cls-2" d="M256.9,50.12c0,2.13-.5,3.2-1.82,3.82s-3.28.73-5.93.73a15.32,15.32,0,0,0-1.56-4c1.66.13,3.85.11,4.47.11s.81-.21.81-.73v-3H242.49a13.86,13.86,0,0,1-4.36,7.62A15,15,0,0,0,235.19,52c3.82-3.18,4.13-8,4.13-11.91V31.14H256.9Zm-4-6.71V40.92h-9.65c0,.78-.08,1.63-.15,2.49Zm-9.65-8.58v2.5h9.65v-2.5Z"/><path class="cls-2" d="M286.2,49.37h-8.79l2.73,1.79a18.9,18.9,0,0,1-5.61,3.51c-.39-.44-1-1.07-1.56-1.61v.15h-5.65v1h-3.14V47.62l-.16.06a12,12,0,0,0-1.9-2.71,15.91,15.91,0,0,0,4.37-2.26l-1.3-.88q-.39.3-.78.57a16.45,16.45,0,0,0-2.34-2.21A11.42,11.42,0,0,0,266.88,35l3,.78c-.15.34-.31.68-.46,1h1.87l.54-.13,2.14,1a16.44,16.44,0,0,1-2.58,4.73c1.3.84,2.5,1.67,3.33,2.29L273,46.84V52a16.55,16.55,0,0,0,4-2.6h-2V35.46h3.19c.08-.45.16-.91.21-1.36h-4v2.42h-3.12V34.94h-5.62v1.58h-3V32.05h4.06V30.1h3.51v1.95h4.08V30.91h12.3V34.1h-4.24c-.18.47-.36.91-.55,1.36h4.32Zm-16.43-.65h-2.45v1.66h2.45Zm-1.95-9.52c-.13.18-.29.34-.42.49l1.38.89a16.8,16.8,0,0,0,1-1.38Zm3.12,6.68c-.55-.41-1.15-.83-1.77-1.27-.55.44-1.12.88-1.72,1.27Zm11.7-7.67h-4.21V39.3h4.21Zm0,3.64h-4.21v1.09h4.21Zm0,3.67h-4.21v1.09h4.21Zm.8,3.85a37.55,37.55,0,0,1,4.14,3.43l-2.91,1.9a32.19,32.19,0,0,0-4-3.62Z"/><path class="cls-2" d="M311.42,47.75v6.92h-3.54V48.4l-6.81,1.23-.52-3.25-2.13,2.75c-.34-.75-.88-1.74-1.46-2.73v8.22h-3.48v-8.4a26.71,26.71,0,0,1-2.65,5.88,23.73,23.73,0,0,0-1.67-4,22.15,22.15,0,0,0,3.1-6h-2.58V38.63h3.8V30.15H297v7.28a51.92,51.92,0,0,0,1.23-6.08l3.14.65c-.67,2.18-1.43,4.68-2.05,6.24l-2.32-.6v1h3.62v3.51H297v.1a52.56,52.56,0,0,1,3.62,3.82l7.3-1.3V30h3.54V44.14l2.44-.44.55,3.51Zm-20.85-9.36a27.3,27.3,0,0,0-1-6.21l2.6-.68a27.21,27.21,0,0,1,1.22,6.17Zm11.8-.83a22.18,22.18,0,0,1,4.4,3l-1.9,3a22.51,22.51,0,0,0-4.27-3.35Zm3.36-.44a20.62,20.62,0,0,0-4-3.41l1.82-2.54a20.6,20.6,0,0,1,4.16,3.12Z"/><path class="cls-2" d="M337.19,47.21c-.91,1.27-1.82,2.6-2.6,3.59h5.3V54h-22V50.8h4.65a20.64,20.64,0,0,0-1.95-3.7l1.93-.8h-3.25V43.07h7.43V41h-4.47V39.85a34.38,34.38,0,0,1-3.64,2.26A15.24,15.24,0,0,0,316.2,39a26.73,26.73,0,0,0,10.43-9.15h3.95a24.83,24.83,0,0,0,11,8.84,18.82,18.82,0,0,0-2.5,3.41,37.2,37.2,0,0,1-3.77-2.37V41h-4.63v2.08h7.52V46.3h-3.57ZM324,46.3A16.41,16.41,0,0,1,326,50l-1.9.84h2.6V46.3Zm8.76-8.58a26.34,26.34,0,0,1-3.95-4.14,23.89,23.89,0,0,1-3.85,4.14Zm-2,8.58v4.5h1.93l-1.38-.58a24.46,24.46,0,0,0,2.16-3.92Z"/><path d="M76.44,114.56c0-1,0-1.92,0-2.88,0-1.12.48-1.47,1.55-1.47s1.86.06,2.8.06h7.57c.9,0,1.84-.06,2.74-.06s1.57.19,1.57,1.47c0,1-.05,1.95-.05,2.91v13c0,.69.08,1.36.08,2,0,1.42-.19,2.46-1.52,3.18a7.62,7.62,0,0,1-3.7.74c-1.36,0-1.68-.37-1.87-1.22a10.31,10.31,0,0,1-.24-2c0-.43.13-.78.64-.78.32,0,.88.11,1.33.11,1.18,0,1.23-.48,1.23-1v-2.8a.77.77,0,0,0-.75-.75H81.32c-.72,0-1,.22-1.14.93a17,17,0,0,1-1.42,4.19c-.34.75-1.57,3.25-2.45,3.25-.69,0-2.9-1.41-2.9-2.26a1.22,1.22,0,0,1,.37-.67A13.66,13.66,0,0,0,76,125.38a22.66,22.66,0,0,0,.4-5Zm4.08.56a.77.77,0,0,0,.75.75h6.5a.77.77,0,0,0,.75-.75v-.35a.75.75,0,0,0-.75-.74h-6.5a.75.75,0,0,0-.75.74Zm7.25,6.34a.76.76,0,0,0,.75-.74v-.48a.77.77,0,0,0-.75-.75H81.38c-.59,0-.86.32-.86.91v.16a.81.81,0,0,0,.91.9Z"/><path d="M77.8,159c-.5,0-.58.05-.58.45,0,.64-.08.69-1,.69H74.74c-.8,0-1.07-.05-1.07-.56s0-1,0-1.49v-4.53c0-.45,0-.64-.37-.77a5.08,5.08,0,0,1-1.5-2.67c0-.4.32-.48.7-.59s3-.93,3-1.33c0-.16-.3-.59-.56-.59a.7.7,0,0,0-.46.22,1.66,1.66,0,0,1-.82.45c-.56,0-1.84-1.41-1.84-2,0-.27.27-.43.67-.69a18,18,0,0,0,3.67-3.39,2.82,2.82,0,0,0,.56-.83.24.24,0,0,0-.26-.24h-.4a.51.51,0,0,0-.51.48c0,.14,0,.32,0,.78,0,.61-.34.66-1.06.66h-1.1c-.79,0-1.14,0-1.14-.66,0-.27,0-.51,0-.75a2.58,2.58,0,0,0,0-.48v-.85c0-.46,0-.88,0-1.34,0-.9.85-.93,1.51-.93s1.2.05,1.79.05a.78.78,0,0,0,.88-.72c0-.18,0-.72-.08-.9s0-.13,0-.21c0-.3.32-.3.54-.3.74,0,2,.08,2.77.14s1.12.05,1.12.37c0,.13-.13.21-.29.34a.72.72,0,0,0,.53,1.28c.24,0,.88-.05,1.44-.05s1.6,0,1.6.93c0,.43-.06.88-.06,1.34v.9c0,.51.06.8.06,1.2s-.16.64-.43.64c-.11,0-.37,0-.37.24s.08.22.18.35a2.46,2.46,0,0,1,.54,1.17c0,.56-1.79,2.51-2.24,3a.59.59,0,0,0-.24.43c0,.58,2.69,1.25,2.85,1.25.35,0,.43-.29.43-.59v-3.67c0-.83-.06-1.68-.06-2.51,0-1.09.51-1.25,1.42-1.25h.48a.6.6,0,0,0,.5-.3,1.83,1.83,0,0,0,.3-.72c0-.26-.24-.32-.46-.32-.69,0-1.38.08-2.08.08-.53,0-.58-.26-.58-1.12v-1.3c0-.75,0-1,.58-1s1.5.06,2.4.06h5.68c.91,0,1.76-.06,2.4-.06s.59.25.59.88v1.55c0,.77-.06,1-.56,1-.7,0-1.58-.08-2.43-.08h-.77a1.26,1.26,0,0,0-1.17,1.1c0,.1.08.29.45.29.77,0,1.54,0,2.32,0s1.3.29,1.3,1.22-.05,1.68-.05,2.54v6.39c0,.86.05,1.68.05,2.54,0,1.19-.69,1.25-1.54,1.25l-.24,0a.21.21,0,0,0-.22.19c0,.34,2.46,1.62,2.88,1.81.24.11.38.27.38.45,0,.64-1.36,2.48-2,2.48a1,1,0,0,1-.51-.18,18.81,18.81,0,0,1-3-2c-.24-.19-.69-.59-.69-.77,0-.35.45-.77.77-1.12l.21-.22a2.41,2.41,0,0,0,.24-.21c.06,0,.14-.1.14-.21s-.16-.24-.3-.24H88.71a.33.33,0,0,0-.35.27c0,.21.67.82.88,1s.75.69.75.93a.32.32,0,0,1-.32.29c-.19,0-.22-.05-.46-.05-.08,0-.1,0-.21.08-.61.51-3.52,2.56-4.16,2.56s-1.31-1.09-1.6-1.49a.22.22,0,0,0-.13-.11c-.08,0-.11.16-.11.21v.19c0,.4-.27.51-1,.51H80c-.53,0-.53-.24-.53-.38s-.11-.26-.27-.26Zm1.66-7.39c.13,0,.21-.05.21-.18s-.83-.78-1.36-.78a1.26,1.26,0,0,0-.72.27l-.48.29c-.13.08-.21.16-.21.24s.18.16.29.16Zm-2.24,3.65a.52.52,0,0,0,.5.51H79a.53.53,0,0,0,.51-.51v-.18a.51.51,0,0,0-.51-.51H77.72a.5.5,0,0,0-.5.51Zm1.12-10c-.19,0-.54,0-.54.26s.48.78.8.78,1.1-.78,1.1-.86-.51-.18-1-.18Zm1.17-4.22c-.08,0-.21,0-.21.14s.29.21.45.24.69.16.69.4-.24.29-.4.32a.58.58,0,0,0-.5.48.24.24,0,0,0,.24.24h.82a.39.39,0,0,0,.38-.4v-.16c0-.08,0-.62,0-.7a.38.38,0,0,0,0-.18c0-.16-.11-.35-.45-.38ZM83,156.63c0,.32,0,.64.4.64a4.77,4.77,0,0,0,.82-.37c.29-.16,2.13-1.2,2.13-1.44a.19.19,0,0,0-.21-.19h-.19c-.82,0-1.12-.48-1.12-1.22s.06-1.47.06-2.22v-.37c0-.13,0-.29-.19-.29s-.19.1-.29.29a4.47,4.47,0,0,1-1,1.15c-.38.26-.4.61-.4,1.17ZM91.4,144.8a.33.33,0,0,0-.32-.35H89a.33.33,0,0,0-.32.35v.13a.33.33,0,0,0,.32.35h2.08a.32.32,0,0,0,.32-.35Zm0,3.43a.33.33,0,0,0-.32-.34H89a.33.33,0,0,0-.32.34v.14a.33.33,0,0,0,.32.34h2.08a.33.33,0,0,0,.32-.34Zm0,3.39a.33.33,0,0,0-.32-.35H89a.33.33,0,0,0-.32.35v.16a.33.33,0,0,0,.32.35h2.08a.33.33,0,0,0,.32-.35Z"/><path d="M328.16,156.32c0,1.72.13,3.44.13,5.13,0,.93-.41,1-1.65,1H324.5c-1.24,0-1.69-.07-1.69-1,0-1.73.11-3.45.11-5.17V137.85c0-1.24-.07-2.44-.07-3.69,0-1.44.65-1.89,2-1.89s2.48.07,3.72.07h15.82c1.2,0,2.41-.07,3.65-.07,1.07,0,2.1.17,2.1,1.89,0,1.25-.1,2.45-.1,3.69v16.81c0,1,.07,1.9.07,2.86,0,1.38,0,2.62-1.11,3.62-1.24,1.14-3.2,1.24-4.82,1.24-1.41,0-2.24-.1-2.72-.86a6.21,6.21,0,0,1-.59-2.75c0-1.25.18-1.76.8-1.76.31,0,1.13.1,1.72.1,1.38,0,1.41-.48,1.41-1.69v-4.75a1,1,0,0,0-1-1H329.12a1,1,0,0,0-1,1ZM334,138.23a1,1,0,0,0-1-1h-3.93a1,1,0,0,0-1,1v5.82a1,1,0,0,0,1,1h3.93a1,1,0,0,0,1-1Zm5.07,5.82a.94.94,0,0,0,1,1h3.83a1,1,0,0,0,1-1v-5.82a1,1,0,0,0-1-1H340a1,1,0,0,0-1,1Z"/><path d="M380.06,146.6a1.31,1.31,0,0,1-.34.73,8.78,8.78,0,0,1-7,4,10.58,10.58,0,0,1-5.34-1.69c-1.41-.79-2.83-1.72-4.41-1.72a3.93,3.93,0,0,0-3.17,1.79c-.28.38-.45.59-.65.59s-.42-.14-.73-.41l-2-1.76c-.38-.31-.55-.55-.55-.79a1.54,1.54,0,0,1,.34-.73,8.56,8.56,0,0,1,6.93-4,10.63,10.63,0,0,1,5.44,1.79A9,9,0,0,0,372.9,146a3.8,3.8,0,0,0,3.2-1.83c.28-.38.45-.58.66-.58s.38.13.69.41l2.1,1.79C379.89,146.12,380.06,146.36,380.06,146.6Z"/><path d="M318.88,115.17a15.6,15.6,0,0,1,3.73-10.11c.19-.24.52-.61.83-.61a3,3,0,0,1,1.74,1.41.64.64,0,0,1-.22.42,13.12,13.12,0,0,0-.19,17.57c.15.16.39.4.39.61,0,.44-1.29,1.44-1.7,1.44s-.57-.28-.77-.52A15.63,15.63,0,0,1,318.88,115.17Z"/><path d="M329.72,109.9c0-.24,0-.57-.44-.57-.15,0-.5.07-.67.09a1,1,0,0,1-.24,0c-.76,0-1.09-1.81-1.09-2.4,0-.35.13-.37.43-.41a22.28,22.28,0,0,0,5.35-1.38.63.63,0,0,1,.28-.11c.24,0,.41.4,1.09,1.68.35.68.44.83.44,1a.29.29,0,0,1-.33.28.92.92,0,0,1-.37-.09.33.33,0,0,0-.13,0,5.34,5.34,0,0,0-.66.24c-.65.22-.8.35-.8,1.07v1c0,.22,0,.53.43.53s.85-.07,1.29-.07.46.22.46.72v1.35c0,.7-.05.9-.48.9-.24,0-.5-.05-.68-.05s-.37.05-.37.27a11.1,11.1,0,0,0,1.48,2.29c.33.39.4.5.4.65,0,.5-1.07,2.18-1.46,2.18s-.68-.87-.81-1.11c0-.07-.09-.16-.15-.16s-.11.14-.11.24v3.25c0,1,.06,2,.06,3,0,.55-.19.59-.87.59h-1.26c-.66,0-.85,0-.85-.54,0-1,.06-2.05.06-3.08v-.87c0-.17,0-.37-.13-.37s-.15.13-.17.22c-.14.33-.7,1.79-1.07,1.79a3.91,3.91,0,0,1-1.66-2,.67.67,0,0,1,.15-.37,20.14,20.14,0,0,0,1.09-2.18,20.79,20.79,0,0,0,1.2-3.47c0-.24-.13-.33-.37-.33s-.67.05-1,.05-.48-.2-.48-.9v-1.41c0-.4,0-.66.46-.66s1,.07,1.46.07a.47.47,0,0,0,.52-.57Zm9.51,9c-.33,3.41-3.4,6.09-4.21,6.09-.5,0-1.83-1.18-1.83-1.9a.52.52,0,0,1,.24-.39,9.36,9.36,0,0,0,2.07-2,5.08,5.08,0,0,0,.83-2.4c0-.35-.35-.37-.57-.37s-.54,0-.54-.35.06-1,.06-1.55v-4.56c0-.52,0-.89,0-1.22,0-.61.65-.69,1.13-.72.2,0,.42-.08.42-.32a13.32,13.32,0,0,0-1.33-2.42.94.94,0,0,1-.2-.4c0-.43,1.87-1.2,2.29-1.2a.41.41,0,0,1,.37.24,10.35,10.35,0,0,1,.78,1.25,9.42,9.42,0,0,1,.85,1.85c0,.26-.15.39-.93.7-.09,0-.24.09-.24.22s.19.11.5.11h1c.63,0,1-.05,1.29-.66a24.92,24.92,0,0,0,1.35-3.2c.07-.18.15-.51.39-.51s1.64.51,1.9.59c.76.29,1.31.46,1.31.72s-.13.22-.26.24a.52.52,0,0,0-.42.31,6.94,6.94,0,0,1-.35.65,13,13,0,0,0-.74,1.51c0,.26.24.3.44.32.48,0,1.2.09,1.2.7,0,.33-.05.72-.05,1.24V116c0,.74.07,1.38.07,1.55,0,.35-.31.37-.66.37H344.2c-.61,0-.83.15-.83.76v2.4c0,.44,0,.68.26.68h.11c.33,0,.35-.9.35-1.14s.09-.58.59-.58a4.78,4.78,0,0,1,1.53.3,1,1,0,0,1,.78,1,6.48,6.48,0,0,1-.87,2.77c-.53.72-1.09.72-2,.72h-1c-2.18,0-2.71-.48-2.71-2.68,0-.5,0-1,0-1.5v-2.56a.62.62,0,0,0-.62-.61h-.91c-.09,0-.33,0-.33.14s.22.15.39.19c.35.09.77.15.77.39s-.13.24-.26.33A.52.52,0,0,0,339.23,118.9Zm3-4.34a.6.6,0,0,0,.62-.61v-1a.61.61,0,0,0-.62-.61H339a.6.6,0,0,0-.61.61v1a.59.59,0,0,0,.61.61Z"/><path d="M350.8,112.34a.63.63,0,0,0-.64-.61c-.26,0-.56,0-.82,0-.55,0-.59-.24-.59-.87v-1.15c0-.68,0-.92.61-.92.24,0,.59,0,.8,0a.62.62,0,0,0,.64-.67v-1.4c0-.67-.07-1-.07-1.15s.24-.33.48-.33c.61,0,1.68.06,2.33.11.33,0,.72,0,.72.3s-.15.29-.3.4-.24.43-.24,1v1.09a.62.62,0,0,0,.61.65c.17,0,.54,0,.76,0,.55,0,.61.22.61.85v1.22c0,.63,0,.87-.59.87-.21,0-.59,0-.76,0a.62.62,0,0,0-.63.61v1.46a.4.4,0,0,0,.39.44,3.52,3.52,0,0,0,.85-.31,1.49,1.49,0,0,1,.55-.17c.5,0,.54,1.31.54,1.65,0,1.09-.15,1.16-1.55,1.71-.41.15-.78.39-.78.89v3c0,.52,0,1.07,0,1.59a2.09,2.09,0,0,1-.59,1.77,4.18,4.18,0,0,1-2.64.63c-.47,0-.89,0-1.11-.39a4.6,4.6,0,0,1-.37-1.94c0-.42.07-.88.59-.88.15,0,.48.07.68.07.45,0,.48-.26.48-.44V119c0-.22-.11-.44-.37-.44a.77.77,0,0,0-.64.38.37.37,0,0,1-.35.26c-.26,0-.32-.29-.56-1.31-.07-.28-.15-.59-.24-1a3.08,3.08,0,0,1-.13-.66c0-.3.24-.35,1-.52l.56-.15c.5-.13.77-.26.77-.74Zm10.57-5.71v.13c0,.41,0,.83,0,1.22a.61.61,0,0,0,.61.63h3.45c.76,0,1.52-.06,2.29-.06.47,0,.52.21.52.82v1.29c0,.63-.05.85-.5.85-.77,0-1.55,0-2.31,0h-3.62c-.46,0-.57.35-.61.63a2.79,2.79,0,0,0-.05.46.58.58,0,0,0,.59.54h2.7c.46,0,.92,0,1.38,0s.74.22,1.09.65a2.2,2.2,0,0,1,.61,1.2,13.37,13.37,0,0,1-1.75,4.74,1.11,1.11,0,0,0-.15.43c0,.26.18.41.35.57a14.09,14.09,0,0,0,2.2,1.57c.35.19.44.24.44.41,0,.61-1.55,2.36-2.16,2.36a8.76,8.76,0,0,1-2.33-1.7.83.83,0,0,0-.64-.33.89.89,0,0,0-.63.33c-.41.39-1.89,1.72-2.4,1.72s-2.05-1.57-2.05-2.2c0-.18.05-.22.31-.4a24.87,24.87,0,0,0,2.14-1.59c.21-.22.39-.37.39-.65a.49.49,0,0,0-.13-.35,12.15,12.15,0,0,1-.66-1.09c-.06-.11-.17-.26-.32-.26s-.33.35-.5.83c-.35.93-2.56,5.43-3.51,5.43-.57,0-2.14-1.33-2.14-1.86a1.28,1.28,0,0,1,.3-.56,17.64,17.64,0,0,0,2.88-5.41,22.08,22.08,0,0,0,.9-4.39c0-.17,0-.39,0-.48a.52.52,0,0,0-.55-.54l-1,0c-.43,0-.47-.24-.47-.83V109.4c0-.64,0-.85.52-.85.33,0,.65,0,1,0a.61.61,0,0,0,.61-.61c0-.68-.09-2.07-.09-2.27s.11-.48.55-.48c.13,0,2.33.11,2.7.15s.55.11.55.35-.2.29-.33.37S361.37,106.26,361.37,106.63Zm1.44,9.24c-.17,0-.3.07-.3.26a3.08,3.08,0,0,0,.28.66c.06.13.11.2.13.24.22.39.28.48.41.48.33,0,.66-1.33.66-1.38,0-.24-.22-.26-.74-.26Z"/><path d="M376.49,115.17a15.61,15.61,0,0,1-3.73,10.12c-.2.24-.52.61-.83.61a3,3,0,0,1-1.74-1.41.68.68,0,0,1,.21-.42,13.14,13.14,0,0,0,.2-17.57c-.15-.16-.39-.4-.39-.61,0-.44,1.29-1.44,1.7-1.44s.57.28.76.52A15.63,15.63,0,0,1,376.49,115.17Z"/><path d="M103.71,162.72a2.73,2.73,0,0,1,.46-1.7l22-34.43a19.92,19.92,0,0,0,3.69-11.4c0-5.46-2.49-9.46-6.83-9.46s-6.83,3.4-7.38,9.7c0,.73-.37,1.09-1,1l-10.14-2.18c-.56-.12-.83-.73-.74-1.45.64-11.4,7.66-21.34,19.74-21.34s19.28,10.18,19.28,23.52a34.46,34.46,0,0,1-6.36,20l-16.52,25.59v.24h22c.55,0,.92.48.92,1.21v12c0,.73-.37,1.22-.92,1.22H104.63c-.55,0-.92-.49-.92-1.22Z"/><path d="M152.6,157c0-.75.38-1.25,1-1.25h10.76c.57,0,.95.5.95,1.25v15.14a3.63,3.63,0,0,1-.86,2.5L155,185.9c-.58.63-1,.88-1.43.88s-1-.5-1-1.38Z"/><path d="M196.86,107.92v-.37H183.67c-.37,0-.55.24-.55.73v8.61c0,.73-.37,1.21-.93,1.21H172c-.55,0-.92-.48-.92-1.21V94c0-.73.37-1.21.92-1.21H209.5c.55,0,.92.48.92,1.21v12.61a6,6,0,0,1-.18,1.46l-19.93,66.08c-.27.84-.64,1.09-1.29,1.09H177.49c-.55,0-.83-.49-.55-1.34Z"/><path d="M217.8,134c0-18.3.46-22.06,1.38-25.7,2.58-10.55,9-16.85,18.91-16.85s16.33,6.3,18.91,16.85c.93,3.64,1.39,7.4,1.39,25.7s-.46,22.07-1.39,25.71c-2.58,10.55-9,16.85-18.91,16.85s-16.33-6.3-18.91-16.85C218.26,156.05,217.8,152.29,217.8,134Zm20.29,28.25c3.23,0,5.44-1.82,6.37-5.57.55-2.19.73-4.61.73-22.68s-.18-20.49-.73-22.67c-.93-3.76-3.14-5.58-6.37-5.58s-5.44,1.82-6.36,5.58c-.56,2.18-.74,4.61-.74,22.67s.18,20.49.74,22.68C232.65,160.41,234.77,162.23,238.09,162.23Z"/><path d="M267,134c0-18.3.46-22.06,1.39-25.7,2.58-10.55,9-16.85,18.91-16.85s16.33,6.3,18.91,16.85c.92,3.64,1.38,7.4,1.38,25.7s-.46,22.07-1.38,25.71c-2.58,10.55-9,16.85-18.91,16.85s-16.33-6.3-18.91-16.85C267.47,156.05,267,152.29,267,134Zm20.3,28.25c3.23,0,5.44-1.82,6.36-5.57.56-2.19.74-4.61.74-22.68s-.18-20.49-.74-22.67c-.92-3.76-3.13-5.58-6.36-5.58s-5.44,1.82-6.37,5.58c-.55,2.18-.74,4.61-.74,22.67s.19,20.49.74,22.68C281.87,160.41,284,162.23,287.31,162.23Z"/></g></g></svg>