<svg xmlns="http://www.w3.org/2000/svg" viewBox="0 0 57.25 58.33"><defs><style>.cls-1{fill:#00be5a;}</style></defs><g id="Layer_2" data-name="Layer 2"><g id="デザイン"><path class="cls-1" d="M5.89,9H.9A.89.89,0,0,1,0,8.08V4.49A4.49,4.49,0,0,1,4.49,0H27.82a4.5,4.5,0,0,1,4.49,4.49v.89a.9.9,0,0,1-1.8,0V4.49a2.7,2.7,0,0,0-2.69-2.7H4.49a2.7,2.7,0,0,0-2.7,2.7V7.18h4.1A.9.9,0,0,1,5.89,9Z"/><path class="cls-1" d="M31.41,51.15H.9a.9.9,0,1,1,0-1.79H31.41a.9.9,0,1,1,0,1.79Z"/><path class="cls-1" d="M18,54.74H14.36a.9.9,0,1,1,0-1.79H18a.9.9,0,1,1,0,1.79Z"/><path class="cls-1" d="M27.82,58.33H4.49A4.49,4.49,0,0,1,0,53.84V8.08a.9.9,0,1,1,1.79,0V53.84a2.7,2.7,0,0,0,2.7,2.7H27.82a2.7,2.7,0,0,0,2.69-2.7V41.17a.9.9,0,0,1,1.8,0V53.84A4.5,4.5,0,0,1,27.82,58.33Z"/><path class="cls-1" d="M42.18,31.61a8,8,0,1,1,0-16,8.15,8.15,0,0,1,2.55.41.91.91,0,0,1,.57,1.14.9.9,0,0,1-1.14.56,6.22,6.22,0,1,0,4.24,5.9,5.07,5.07,0,0,0,0-.68.9.9,0,0,1,1.79-.19,8.19,8.19,0,0,1,0,.87A8,8,0,0,1,42.18,31.61Z"/><path class="cls-1" d="M42.18,27.34a.88.88,0,0,1-.63-.26l-2.83-2.83A.9.9,0,0,1,40,23l2.08,2.08,6.5-9.1A.9.9,0,0,1,50,17L42.91,27a.89.89,0,0,1-.65.37Z"/><path class="cls-1" d="M16.6,46.24a.76.76,0,0,1-.36-.08.88.88,0,0,1-.53-.82V39.12H10.38a2.7,2.7,0,0,1-2.7-2.7V9.87a2.7,2.7,0,0,1,2.7-2.69H54.56a2.7,2.7,0,0,1,2.69,2.69V36.42a2.7,2.7,0,0,1-2.69,2.7H25L17.2,46A.94.94,0,0,1,16.6,46.24ZM10.38,9a.9.9,0,0,0-.9.9V36.42a.9.9,0,0,0,.9.9H16.6a.9.9,0,0,1,.9.9v5.13L24,37.55a.9.9,0,0,1,.6-.23H54.56a.9.9,0,0,0,.9-.9V9.87a.91.91,0,0,0-.9-.9Z"/><path class="cls-1" d="M29.67,16.9H20.92a.9.9,0,1,1,0-1.79h8.75a.9.9,0,0,1,0,1.79Z"/><path class="cls-1" d="M16.88,16.9H14.41a.9.9,0,1,1,0-1.79h2.47a.9.9,0,1,1,0,1.79Z"/><path class="cls-1" d="M29.67,24.08h-1.8a.9.9,0,1,1,0-1.79h1.8a.9.9,0,0,1,0,1.79Z"/><path class="cls-1" d="M24.28,24.08H14.41a.9.9,0,1,1,0-1.79h9.87a.9.9,0,1,1,0,1.79Z"/><path class="cls-1" d="M29.67,31.26H23.2a.9.9,0,1,1,0-1.79h6.47a.9.9,0,0,1,0,1.79Z"/><path class="cls-1" d="M19.35,31.26H14.41a.9.9,0,1,1,0-1.79h4.94a.9.9,0,0,1,0,1.79Z"/><path class="cls-1" d="M20.69,18.7H17.1a.89.89,0,0,1-.89-.9V14.21a.9.9,0,0,1,.89-.9h3.59a.9.9,0,0,1,.9.9V17.8A.9.9,0,0,1,20.69,18.7ZM18,16.9h1.8V15.11H18Z"/><path class="cls-1" d="M27.87,25.88H24.28a.9.9,0,0,1-.9-.9V21.39a.9.9,0,0,1,.9-.9h3.59a.9.9,0,0,1,.9.9V25A.9.9,0,0,1,27.87,25.88Zm-2.69-1.8H27V22.29H25.18Z"/><path class="cls-1" d="M23.05,33.06H19.46a.9.9,0,0,1-.9-.9V28.57a.9.9,0,0,1,.9-.9h3.59a.9.9,0,0,1,.9.9v3.59A.91.91,0,0,1,23.05,33.06Zm-2.69-1.8h1.79V29.47H20.36Z"/></g></g></svg>