<svg xmlns="http://www.w3.org/2000/svg" viewBox="0 0 66.41 41.28"><defs><style>.cls-1{fill:#00be5a;}</style></defs><g id="Layer_2" data-name="Layer 2"><g id="デザイン"><path class="cls-1" d="M59.23,35H7.13a.9.9,0,0,1-.9-.9V2.69A2.7,2.7,0,0,1,8.92,0H57.43a2.7,2.7,0,0,1,2.7,2.69V34.1A.9.9,0,0,1,59.23,35ZM8,33.2H58.33V2.69a.9.9,0,0,0-.9-.9H8.92a.91.91,0,0,0-.9.9Z"/><path class="cls-1" d="M60.28,41.28H6.12A6.13,6.13,0,0,1,0,35.16V34.1a.9.9,0,0,1,.9-.9H65.51a.9.9,0,0,1,.9.9v1.06A6.13,6.13,0,0,1,60.28,41.28ZM1.79,35v.16a4.34,4.34,0,0,0,4.33,4.33H60.28a4.34,4.34,0,0,0,4.33-4.33V35Z"/><path class="cls-1" d="M20.64,15.7H12.56a.89.89,0,0,1-.89-.89V6.73a.89.89,0,0,1,.89-.9h3.82a.9.9,0,0,1,0,1.8H13.46v6.28h6.28V11a.9.9,0,0,1,1.8,0v3.82A.89.89,0,0,1,20.64,15.7Z"/><path class="cls-1" d="M16.64,13a.89.89,0,0,1-.62-.25l-1.34-1.31a.89.89,0,1,1,1.25-1.28l.6.58,2.84-3.92a.9.9,0,0,1,1.25-.2.91.91,0,0,1,.2,1.26L17.37,12.6a.92.92,0,0,1-.65.37Z"/><path class="cls-1" d="M53,11.67H47.79a.9.9,0,1,1,0-1.8H53a.9.9,0,0,1,0,1.8Z"/><path class="cls-1" d="M42.18,11.67H27.82a.9.9,0,1,1,0-1.8H42.18a.9.9,0,0,1,0,1.8Z"/><path class="cls-1" d="M45.77,14.36H44a2.7,2.7,0,0,1-2.69-2.69V9.87A2.7,2.7,0,0,1,44,7.18h1.8a2.7,2.7,0,0,1,2.69,2.69v1.8A2.7,2.7,0,0,1,45.77,14.36ZM44,9a.91.91,0,0,0-.9.9v1.8a.9.9,0,0,0,.9.89h1.8a.89.89,0,0,0,.89-.89V9.87a.9.9,0,0,0-.89-.9Z"/><path class="cls-1" d="M20.64,30.06H12.56a.89.89,0,0,1-.89-.89V21.09a.89.89,0,0,1,.89-.9h3.82a.9.9,0,0,1,0,1.8H13.46v6.28h6.28V25.35a.9.9,0,0,1,1.8,0v3.82A.89.89,0,0,1,20.64,30.06Z"/><path class="cls-1" d="M16.64,27.33a.85.85,0,0,1-.62-.26l-1.34-1.3a.9.9,0,0,1,0-1.27.91.91,0,0,1,1.27,0l.6.58,2.84-3.91a.9.9,0,0,1,1.25-.2.91.91,0,0,1,.2,1.26L17.37,27a.88.88,0,0,1-.65.36Z"/><path class="cls-1" d="M53,26H37.69a.9.9,0,1,1,0-1.79H53A.9.9,0,0,1,53,26Z"/><path class="cls-1" d="M32.31,26H27.82a.9.9,0,1,1,0-1.79h4.49a.9.9,0,0,1,0,1.79Z"/><path class="cls-1" d="M35.9,28.72H34.1A2.7,2.7,0,0,1,31.41,26V24.23a2.7,2.7,0,0,1,2.69-2.69h1.8a2.7,2.7,0,0,1,2.69,2.69V26A2.7,2.7,0,0,1,35.9,28.72Zm-1.8-5.39a.9.9,0,0,0-.9.9V26a.9.9,0,0,0,.9.9h1.8a.89.89,0,0,0,.89-.9V24.23a.89.89,0,0,0-.89-.9Z"/></g></g></svg>