<svg xmlns="http://www.w3.org/2000/svg" viewBox="0 0 53.95 54.83"><defs><style>.cls-1{fill:#00be5a;}</style></defs><g id="Layer_2" data-name="Layer 2"><g id="デザイン"><path class="cls-1" d="M19.72,15.31a.73.73,0,0,1-.73-.73V.73a.73.73,0,0,1,1.46,0V14.58A.73.73,0,0,1,19.72,15.31Z"/><path class="cls-1" d="M19.72,10.21a.73.73,0,0,1-.24-1.42L29.53,5.24l-10-2.34a.73.73,0,1,1,.33-1.42L32.28,4.39a.73.73,0,0,1,.08,1.4L20,10.16A.69.69,0,0,1,19.72,10.21Z"/><path class="cls-1" d="M38.51,41.86a.75.75,0,0,1-.61-.31L19.72,15.13,1.32,41.23a.72.72,0,0,1-1,.18.74.74,0,0,1-.18-1l19-27a.7.7,0,0,1,.6-.31.71.71,0,0,1,.59.32L39.11,40.72a.75.75,0,0,1-.19,1A.78.78,0,0,1,38.51,41.86Z"/><path class="cls-1" d="M53.22,38.67a.72.72,0,0,1-.53-.23l-14.13-15-7.3,6.89a.74.74,0,0,1-1,0,.72.72,0,0,1,0-1l7.84-7.39a.72.72,0,0,1,1,0l14.63,15.5a.73.73,0,0,1-.53,1.23Z"/><path class="cls-1" d="M17,40.82a.72.72,0,0,1-.59-.3.71.71,0,0,1,.16-1l9-6.55L15.78,29a.74.74,0,0,1-.44-.52.72.72,0,0,1,.19-.66l3.37-3.45L19,20.57a.73.73,0,0,1,1.46,0l-.1,4.09a.73.73,0,0,1-.21.49l-2.81,2.88,9.92,4a.72.72,0,0,1,.15,1.26l-10,7.31A.69.69,0,0,1,17,40.82Z"/><path class="cls-1" d="M15.45,54.83H6.7A.73.73,0,0,1,6,54.1V45.35a.73.73,0,0,1,.73-.73h5.1a.73.73,0,1,1,0,1.46H7.43v7.29h7.29V49a.73.73,0,1,1,1.46,0v5.1A.73.73,0,0,1,15.45,54.83Z"/><path class="cls-1" d="M11.12,51.87a.75.75,0,0,1-.51-.21l-1.94-1.9a.73.73,0,0,1,0-1,.74.74,0,0,1,1,0L11,50l3.25-4.47a.72.72,0,0,1,1-.16.73.73,0,0,1,.17,1l-3.74,5.15a.71.71,0,0,1-.53.29Z"/><path class="cls-1" d="M48.12,54.83H39.37a.73.73,0,0,1-.73-.73V45.35a.73.73,0,0,1,.73-.73h5.1a.73.73,0,0,1,0,1.46H40.1v7.29h7.29V49a.73.73,0,1,1,1.45,0v5.1A.73.73,0,0,1,48.12,54.83Z"/><path class="cls-1" d="M43.79,51.87a.74.74,0,0,1-.51-.21l-2-1.9a.73.73,0,1,1,1-1L43.69,50l3.24-4.47a.73.73,0,0,1,1-.16.72.72,0,0,1,.16,1l-3.73,5.15a.71.71,0,0,1-.53.29Z"/><path class="cls-1" d="M31.78,54.83H23a.73.73,0,0,1-.73-.73V45.35a.73.73,0,0,1,.73-.73h5.11a.73.73,0,0,1,0,1.46H23.76v7.29h7.29V49a.73.73,0,1,1,1.46,0v5.1A.73.73,0,0,1,31.78,54.83Z"/><path class="cls-1" d="M27.45,51.87a.75.75,0,0,1-.51-.21L25,49.76a.73.73,0,0,1,0-1,.74.74,0,0,1,1,0L27.36,50l3.24-4.47a.73.73,0,0,1,1.18.86L28,51.57a.68.68,0,0,1-.53.29Z"/></g></g></svg>