<svg xmlns="http://www.w3.org/2000/svg" viewBox="0 0 79.75 119"><defs><style>.cls-1{fill:#fff;}</style></defs><g id="Layer_2" data-name="Layer 2"><g id="デザイン"><path class="cls-1" d="M29.43,30.15h-14a3,3,0,0,0-3,3v9.61a3,3,0,0,0,3,3h14a3,3,0,0,0,3-3V33.16A3,3,0,0,0,29.43,30.15Zm1,12.62a1,1,0,0,1-1,1h-14a1,1,0,0,1-.71-.3,1,1,0,0,1-.3-.71V33.16a1,1,0,0,1,1-1h14a1,1,0,0,1,1,1Z"/><path class="cls-1" d="M21.84,41.05,17,36.68a1,1,0,0,1-.34-.7,1,1,0,0,1,.25-.73,1,1,0,0,1,.71-.33,1,1,0,0,1,.72.27L22.52,39l4.13-3.76A1,1,0,0,1,28,36.68l-4.81,4.37a1,1,0,0,1-1.35,0Z"/><rect class="cls-1" x="38.35" y="36.3" width="28.99" height="3.34" rx="1.67"/><path class="cls-1" d="M29.43,49.36h-14a3,3,0,0,0-3,3V62a3,3,0,0,0,3,3h14a3,3,0,0,0,3-3V52.36A3,3,0,0,0,29.43,49.36Zm1,12.62a1,1,0,0,1-1,1h-14a1,1,0,0,1-.71-.29,1,1,0,0,1-.3-.71V52.36a1,1,0,0,1,.3-.7,1,1,0,0,1,.71-.3h14a1,1,0,0,1,1,1Z"/><path class="cls-1" d="M21.84,60.25,17,55.88a1,1,0,0,1-.34-.7,1,1,0,0,1,.25-.73,1,1,0,0,1,.71-.32,1,1,0,0,1,.72.27l4.14,3.76,4.13-3.76A1,1,0,0,1,28,55.88l-4.81,4.37a1,1,0,0,1-1.35,0Z"/><rect class="cls-1" x="38.35" y="55.5" width="28.99" height="3.34" rx="1.67"/><path class="cls-1" d="M29.43,68.56h-14a3,3,0,0,0-3,3v9.61a3,3,0,0,0,3,3h14a3,3,0,0,0,3-3V71.57A3,3,0,0,0,29.43,68.56Zm1,12.62a1,1,0,0,1-1,1h-14a1,1,0,0,1-1-1V71.57a1,1,0,0,1,1-1h14a1,1,0,0,1,1,1Z"/><path class="cls-1" d="M21.84,79.45,17,75.08a.92.92,0,0,1-.34-.69,1,1,0,0,1,.25-.73,1,1,0,0,1,.71-.33,1,1,0,0,1,.72.27l4.14,3.76,4.13-3.76A1,1,0,0,1,28,75.08l-4.81,4.37a1,1,0,0,1-1.35,0Z"/><rect class="cls-1" x="38.35" y="74.7" width="28.99" height="3.34" rx="1.67"/><path class="cls-1" d="M7.54,119A7.56,7.56,0,0,1,0,111.46V7.54A7.56,7.56,0,0,1,7.54,0H72.21a7.55,7.55,0,0,1,7.54,7.54V111.46A7.55,7.55,0,0,1,72.21,119H7.54ZM4,111.46A3.52,3.52,0,0,0,7.53,115H72.21a3.52,3.52,0,0,0,3.52-3.51V101.13H4ZM4,97.11H75.73V21.89H4ZM7.53,4A3.52,3.52,0,0,0,4,7.53V17.87H75.73V7.54A3.52,3.52,0,0,0,72.22,4Z"/><path class="cls-1" d="M33.1,12.67a2,2,0,0,1-2-2,2,2,0,0,1,.58-1.42,2,2,0,0,1,1.42-.58H47a2,2,0,1,1,0,4Z"/></g></g></svg>