<?xml version="1.0" encoding="UTF-8"?>
<svg id="Layer_2" data-name="Layer 2" xmlns="http://www.w3.org/2000/svg" viewBox="0 0 27.31 28.15">
  <defs>
    <style>
      .cls-1 {
        fill: #fff;
      }

      .cls-2 {
        fill: #008037;
      }
    </style>
  </defs>
  <g id="_デザイン" data-name="デザイン">
    <g id="_楕円形_3" data-name="楕円形 3">
      <ellipse class="cls-1" cx="13.66" cy="14.08" rx="13.66" ry="14.08"/>
    </g>
    <path class="cls-2" d="m23.03,8.84s-1.41.62-2.03.61c-.01-.04-.03-.07-.05-.11.34-.29,1.41-1.22,1.54-1.93,0,0-1.31.72-2.19.92-.7-.79-1.73-1.29-2.87-1.29-2.12,0-3.83,1.72-3.83,3.83,0,.26.03.52.08.76-1.33-.03-4.59-.5-7.63-3.95,0,0-1.65,2.93,1.12,5.11,0,0-.96.11-1.54-.48,0,0-.27,2.39,2.71,3.72,0,0-.8.27-1.44.16,0,0,.53,2.18,3.41,2.61,0,0-1.92,1.7-5.32,1.49,0,0,3.99,2.82,9.79.85,5.8-1.97,6.6-9.2,6.49-10.27,0,0,1.17-.85,1.76-2.02Z"/>
  </g>
</svg>