<?xml version="1.0" encoding="UTF-8"?>
<svg id="Layer_2" data-name="Layer 2" xmlns="http://www.w3.org/2000/svg" viewBox="0 0 27.31 28.15">
  <defs>
    <style>
      .cls-1 {
        fill: #fff;
      }

      .cls-2 {
        fill: #008037;
      }
    </style>
  </defs>
  <g id="_デザイン" data-name="デザイン">
    <g id="_楕円形_3" data-name="楕円形 3">
      <ellipse class="cls-1" cx="13.66" cy="14.08" rx="13.66" ry="14.08"/>
    </g>
    <path class="cls-2" d="m21.51,10.13c-.19-.71-.74-1.26-1.45-1.45-1.28-.34-6.41-.34-6.41-.34,0,0-5.13,0-6.41.34-.71.19-1.26.74-1.45,1.45-.34,1.28-.34,3.95-.34,3.95,0,0,0,2.67.34,3.95.19.71.74,1.26,1.45,1.45,1.28.34,6.41.34,6.41.34,0,0,5.13,0,6.41-.34.71-.19,1.26-.74,1.45-1.45.34-1.28.34-3.95.34-3.95,0,0,0-2.67-.34-3.95Zm-9.5,6.41v-4.92l4.26,2.46-4.26,2.46Z"/>
  </g>
</svg>